<svg width="64" height="64" viewBox="0 0 64 64" fill="none" xmlns="http://www.w3.org/2000/svg">
<path d="M49.77 41.9344H49.528L50.528 44.2328C50.5894 44.374 50.6176 44.5275 50.6104 44.6814C50.6031 44.8353 50.5607 44.9855 50.4863 45.1203C50.412 45.2551 50.3077 45.3709 50.1816 45.4587C50.0554 45.5466 49.9108 45.6041 49.759 45.6268L48.889 46.0634C48.6728 46.1718 48.503 46.3552 48.4111 46.5796C48.3191 46.8039 48.3113 47.0541 48.389 47.2838L49.46 50.5095C49.5176 50.6822 49.6208 50.8359 49.7588 50.9542C49.8967 51.0725 50.0641 51.1509 50.243 51.181L53.111 51.6597C53.3055 51.6598 53.4957 51.7168 53.6584 51.8238C53.8211 51.9308 53.9492 52.083 54.027 52.2619L55.654 55.9854H58.88C59.1609 56.0005 59.4364 55.9034 59.6462 55.7154C59.856 55.5274 59.9832 55.2636 60 54.9818C60 54.8023 59.9452 54.6272 59.843 54.48L52.526 43.3696C52.22 42.9211 51.8082 42.5554 51.3274 42.305C50.8466 42.0546 50.3116 41.9273 49.77 41.9344Z" fill="#3B53C9" fill-opacity="0.6"/>
<path d="M5.12 55.9854H9.346L15.471 41.9344H14.23C13.6876 41.9275 13.1519 42.0554 12.6707 42.3067C12.1895 42.558 11.7777 42.9249 11.472 43.3747L4.164 54.4709C4.05809 54.6201 4.00081 54.7986 4 54.9818C4.01677 55.2636 4.14396 55.5274 4.3538 55.7154C4.56364 55.9034 4.83909 56.0005 5.12 55.9854Z" fill="#3B53C9" fill-opacity="0.6"/>
<path d="M5.12 57.9927C4.73723 57.9909 4.35789 57.9202 4 57.784V58.9964C4 59.2625 4.10536 59.5178 4.29289 59.706C4.48043 59.8943 4.73478 60 5 60H59C59.2652 60 59.5196 59.8943 59.7071 59.706C59.8946 59.5178 60 59.2625 60 58.9964V57.784C59.6421 57.9202 59.2628 57.9909 58.88 57.9927H5.12Z" fill="#3B53C9" fill-opacity="0.6"/>
<path fill-rule="evenodd" clip-rule="evenodd" d="M41.474 12.8599C41.2403 12.9861 40.9663 13.0139 40.7122 12.9373C40.4581 12.8607 40.2447 12.6859 40.119 12.4514C39.9933 12.2169 39.9655 11.9419 40.0419 11.6868C40.1182 11.4318 40.2923 11.2176 40.526 11.0915L42.889 9.81785L32.237 4.05996C32.1642 4.0206 32.0827 4 32 4C31.9173 4 31.8358 4.0206 31.763 4.05996L21.111 9.81785L23.474 11.0925C23.5897 11.155 23.692 11.2397 23.7751 11.3418C23.8581 11.444 23.9203 11.5616 23.9581 11.6878C23.9959 11.8141 24.0086 11.9466 23.9953 12.0778C23.9821 12.209 23.9432 12.3363 23.881 12.4524C23.8188 12.5685 23.7343 12.6712 23.6325 12.7546C23.5308 12.8379 23.4136 12.9004 23.2878 12.9383C23.162 12.9762 23.0299 12.9889 22.8992 12.9756C22.7685 12.9624 22.6417 12.9234 22.526 12.8609L20 11.4969V22.9656C20 23.0562 20.0245 23.145 20.0708 23.2228C20.1171 23.3005 20.1835 23.3642 20.263 23.4072L31 29.2143V25.8761C31 25.61 31.1054 25.3547 31.2929 25.1665C31.4804 24.9782 31.7348 24.8725 32 24.8725C32.2652 24.8725 32.5196 24.9782 32.7071 25.1665C32.8946 25.3547 33 25.61 33 25.8761V29.2143L43.737 23.4112C43.8171 23.3679 43.8839 23.3036 43.9302 23.2251C43.9766 23.1465 44.0007 23.0568 44 22.9656V11.4969L41.474 12.8599ZM33 17.4455L36.474 15.5697V15.5657C36.7077 15.4395 36.8818 15.2254 36.9581 14.9703C37.0345 14.7153 37.0067 14.4403 36.881 14.2058C36.7553 13.9713 36.5419 13.7965 36.2878 13.7199C36.0337 13.6433 35.7597 13.6711 35.526 13.7973L32 15.7042L28.474 13.8033C28.2403 13.6771 27.9663 13.6493 27.7122 13.7259C27.4581 13.8025 27.2447 13.9773 27.119 14.2118C26.9933 14.4463 26.9655 14.7213 27.0419 14.9764C27.1182 15.2314 27.2923 15.4456 27.526 15.5717L31 17.4455V19.8543C31 20.1205 31.1054 20.3757 31.2929 20.564C31.4804 20.7522 31.7348 20.8579 32 20.8579C32.2652 20.8579 32.5196 20.7522 32.7071 20.564C32.8946 20.3757 33 20.1205 33 19.8543V17.4455Z" fill="#3B53C9" fill-opacity="0.6"/>
<path d="M18.8819 41.9342H17.6539L11.5289 55.9852H53.4689L52.4199 53.5835L49.9149 53.162C49.3753 53.0739 48.8703 52.8387 48.455 52.482C48.0397 52.1254 47.73 51.661 47.5599 51.1396L46.4909 47.922C46.2648 47.2339 46.2918 46.4873 46.567 45.8175C46.8422 45.1477 47.3473 44.5989 47.9909 44.2707L48.2969 44.1172L47.3449 41.9342H45.1179L57.8369 22.4104C57.911 22.3001 57.9626 22.1761 57.9886 22.0456C58.0146 21.9151 58.0145 21.7808 57.9883 21.6504C57.962 21.5199 57.9102 21.396 57.8359 21.2859C57.7615 21.1757 57.666 21.0815 57.5551 21.0087C57.4441 20.9359 57.3198 20.886 57.1894 20.8619C57.059 20.8377 56.9252 20.8399 56.7956 20.8681C56.6661 20.8964 56.5434 20.9502 56.4348 21.0265C56.3262 21.1027 56.2337 21.1999 56.1629 21.3124L39.4589 46.9524H24.5409L7.83685 21.3124C7.76598 21.1999 7.67355 21.1027 7.56491 21.0265C7.45628 20.9502 7.33362 20.8964 7.20407 20.8681C7.07452 20.8399 6.94066 20.8377 6.81028 20.8619C6.67991 20.886 6.55562 20.9359 6.44464 21.0087C6.33366 21.0815 6.23821 21.1757 6.16384 21.2859C6.08948 21.396 6.03768 21.5199 6.01145 21.6504C5.98523 21.7808 5.98511 21.9151 6.0111 22.0456C6.0371 22.1761 6.08868 22.3001 6.16285 22.4104L18.8819 41.9342Z" fill="#3B53C9" fill-opacity="0.6"/>
</svg>
