<svg width="40" height="40" viewBox="0 0 40 40" fill="none" xmlns="http://www.w3.org/2000/svg">
<rect x="-0.5" y="0.5" width="39" height="39" transform="matrix(-1 0 0 1 39 0)" stroke="#0E4FE3"/>
<path d="M24.7176 11.6872C24.8078 11.5918 24.8783 11.4795 24.9251 11.3567C24.972 11.234 24.9941 11.1033 24.9904 10.972C24.9867 10.8407 24.9572 10.7114 24.9035 10.5915C24.8498 10.4716 24.773 10.3635 24.6776 10.2732C24.5821 10.183 24.4698 10.1125 24.3471 10.0657C24.2243 10.0189 24.0936 9.99669 23.9623 10.0004C23.831 10.0041 23.7017 10.0337 23.5818 10.0873C23.4619 10.141 23.3538 10.2178 23.2636 10.3132L14.7636 19.3132C14.588 19.4989 14.4902 19.7447 14.4902 20.0002C14.4902 20.2558 14.588 20.5016 14.7636 20.6872L23.2636 29.6882C23.3532 29.7858 23.4613 29.8646 23.5816 29.92C23.702 29.9754 23.8321 30.0064 23.9645 30.0111C24.0969 30.0158 24.2289 29.9942 24.3529 29.9474C24.4768 29.9007 24.5903 29.8298 24.6866 29.7388C24.7829 29.6479 24.8602 29.5387 24.9139 29.4176C24.9677 29.2965 24.9969 29.166 24.9998 29.0335C25.0027 28.9011 24.9792 28.7694 24.9308 28.6461C24.8823 28.5228 24.8098 28.4103 24.7176 28.3153L16.8656 20.0002L24.7176 11.6872Z" fill="#0E4FE3"/>
</svg>
