<svg width="40" height="40" viewBox="0 0 40 40" fill="none" xmlns="http://www.w3.org/2000/svg">
<rect x="0.5" y="0.5" width="39" height="39" stroke="#0E4FE3"/>
<path d="M15.2824 11.6872C15.1922 11.5918 15.1217 11.4795 15.0749 11.3567C15.028 11.234 15.0059 11.1033 15.0096 10.972C15.0133 10.8407 15.0428 10.7114 15.0965 10.5915C15.1502 10.4716 15.227 10.3635 15.3224 10.2732C15.4179 10.183 15.5302 10.1125 15.6529 10.0657C15.7757 10.0189 15.9064 9.99669 16.0377 10.0004C16.169 10.0041 16.2983 10.0337 16.4182 10.0873C16.5381 10.141 16.6462 10.2178 16.7364 10.3132L25.2364 19.3132C25.412 19.4989 25.5098 19.7447 25.5098 20.0002C25.5098 20.2558 25.412 20.5016 25.2364 20.6872L16.7364 29.6882C16.6468 29.7858 16.5387 29.8646 16.4184 29.92C16.298 29.9754 16.1679 30.0064 16.0355 30.0111C15.9031 30.0158 15.7711 29.9942 15.6471 29.9474C15.5232 29.9007 15.4097 29.8298 15.3134 29.7388C15.2171 29.6479 15.1398 29.5387 15.0861 29.4176C15.0323 29.2965 15.0031 29.166 15.0002 29.0335C14.9973 28.9011 15.0208 28.7694 15.0692 28.6461C15.1177 28.5228 15.1902 28.4103 15.2824 28.3153L23.1344 20.0002L15.2824 11.6872Z" fill="#0E4FE3"/>
</svg>
