<svg width="14" height="14" viewBox="0 0 14 14" fill="none" xmlns="http://www.w3.org/2000/svg">
<path d="M13.0939 10.6875C12.5977 10.1875 11.3958 9.45781 10.8127 9.16375C10.0533 8.78125 9.9908 8.75 9.39393 9.19344C8.9958 9.48938 8.73112 9.75375 8.26518 9.65438C7.79924 9.555 6.78674 8.99469 5.90018 8.11094C5.01362 7.22719 4.4208 6.18531 4.32112 5.72094C4.22143 5.25656 4.49018 4.995 4.7833 4.59594C5.19643 4.03344 5.16518 3.93969 4.81205 3.18031C4.53674 2.58969 3.7858 1.39906 3.28393 0.905313C2.74705 0.375001 2.74705 0.468751 2.40112 0.612501C2.11948 0.730997 1.84929 0.875036 1.59393 1.04281C1.09393 1.375 0.816429 1.65094 0.622366 2.06563C0.428304 2.48031 0.341116 3.4525 1.3433 5.27313C2.34549 7.09375 3.04862 8.02469 4.50393 9.47594C5.95924 10.9272 7.0783 11.7075 8.71424 12.625C10.738 13.7584 11.5142 13.5375 11.9302 13.3438C12.3461 13.15 12.6233 12.875 12.9561 12.375C13.1243 12.1201 13.2687 11.8502 13.3874 11.5688C13.5314 11.2241 13.6252 11.2241 13.0939 10.6875Z" stroke="black" stroke-miterlimit="10"/>
</svg>
