<svg width="21" height="20" viewBox="0 0 21 20" fill="none" xmlns="http://www.w3.org/2000/svg">
<path d="M19.596 0.277024C19.4066 0.154115 19.1949 0.0697201 18.9729 0.0286616C18.7509 -0.012397 18.5229 -0.00931501 18.3021 0.0377315C18.0813 0.0847779 17.8719 0.174867 17.686 0.302852C17.5 0.430838 17.341 0.594211 17.2182 0.78364L7.58447 15.6331L2.88624 11.289C2.72048 11.1358 2.52615 11.0167 2.31436 10.9385C2.10256 10.8603 1.87744 10.8246 1.65186 10.8335C1.19627 10.8513 0.766422 11.0494 0.456886 11.3842C0.14735 11.7189 -0.016523 12.163 0.00131805 12.6186C0.0191591 13.0741 0.217252 13.504 0.55202 13.8135L6.72081 19.517C6.72081 19.517 6.8979 19.6694 6.97985 19.7227C7.16925 19.8457 7.38103 19.9302 7.60309 19.9713C7.82515 20.0124 8.05314 20.0093 8.27401 19.9623C8.49489 19.9152 8.70433 19.8251 8.89036 19.6971C9.07639 19.569 9.23537 19.4056 9.3582 19.2161L20.1026 2.6548C20.2255 2.46542 20.3099 2.25368 20.3509 2.03168C20.392 1.80968 20.3889 1.58176 20.3419 1.36095C20.2948 1.14015 20.2047 0.930768 20.0768 0.744784C19.9488 0.5588 19.7854 0.399853 19.596 0.277024Z" fill="white"/>
</svg>
