<svg width="32" height="32" viewBox="0 0 32 32" fill="none" xmlns="http://www.w3.org/2000/svg">
<path d="M7.11111 14.4H10.6667V17.6H7.11111V14.4ZM32 6.4V28.8C32 30.56 30.4 32 28.4444 32H3.55556C2.61256 32 1.70819 31.6629 1.0414 31.0627C0.374602 30.4626 0 29.6487 0 28.8L0.0177778 6.4C0.0177778 4.64 1.58222 3.2 3.55556 3.2H5.33333V0H8.88889V3.2H23.1111V0H26.6667V3.2H28.4444C30.4 3.2 32 4.64 32 6.4ZM3.55556 9.6H28.4444V6.4H3.55556V9.6ZM28.4444 28.8V12.8H3.55556V28.8H28.4444ZM21.3333 17.6H24.8889V14.4H21.3333V17.6ZM14.2222 17.6H17.7778V14.4H14.2222V17.6Z" fill="#0E4FE3"/>
</svg>
