<svg width="32" height="28" viewBox="0 0 32 28" fill="none" xmlns="http://www.w3.org/2000/svg">
<path d="M30.8571 1.45462e-06H22.6857C20.9321 1.45462e-06 19.2179 0.561914 17.7429 1.62198L16 2.86934L14.2571 1.62198C12.7836 0.562118 11.0674 -0.0010446 9.31429 1.45462e-06H1.14286C0.510714 1.45462e-06 0 0.569885 0 1.27526V23.9112C0 24.6166 0.510714 25.1865 1.14286 25.1865H9.31429C11.0679 25.1865 12.7821 25.7484 14.2571 26.8084L15.8429 27.9482C15.8893 27.9801 15.9429 28 15.9964 28C16.05 28 16.1036 27.9841 16.15 27.9482L17.7357 26.8084C19.2143 25.7484 20.9321 25.1865 22.6857 25.1865H30.8571C31.4893 25.1865 32 24.6166 32 23.9112V1.27526C32 0.569885 31.4893 1.45462e-06 30.8571 1.45462e-06ZM9.31429 22.3171H2.57143V2.86934H9.31429C10.5786 2.86934 11.8071 3.27185 12.8679 4.03302L14.6107 5.28039L14.8571 5.45972V23.8713C13.1571 22.8511 11.2571 22.3171 9.31429 22.3171ZM29.4286 22.3171H22.6857C20.7429 22.3171 18.8429 22.8511 17.1429 23.8713V5.45972L17.3893 5.28039L19.1321 4.03302C20.1929 3.27185 21.4214 2.86934 22.6857 2.86934H29.4286V22.3171ZM11.8893 7.9704H5.25357C5.11429 7.9704 5 8.10589 5 8.26929V10.0626C5 10.226 5.11429 10.3615 5.25357 10.3615H11.8857C12.025 10.3615 12.1393 10.226 12.1393 10.0626V8.26929C12.1429 8.10589 12.0286 7.9704 11.8893 7.9704ZM19.8571 8.26929V10.0626C19.8571 10.226 19.9714 10.3615 20.1107 10.3615H26.7429C26.8821 10.3615 26.9964 10.226 26.9964 10.0626V8.26929C26.9964 8.10589 26.8821 7.9704 26.7429 7.9704H20.1107C19.9714 7.9704 19.8571 8.10589 19.8571 8.26929ZM11.8893 13.5497H5.25357C5.11429 13.5497 5 13.6852 5 13.8486V15.6419C5 15.8053 5.11429 15.9408 5.25357 15.9408H11.8857C12.025 15.9408 12.1393 15.8053 12.1393 15.6419V13.8486C12.1429 13.6852 12.0286 13.5497 11.8893 13.5497ZM26.7464 13.5497H20.1107C19.9714 13.5497 19.8571 13.6852 19.8571 13.8486V15.6419C19.8571 15.8053 19.9714 15.9408 20.1107 15.9408H26.7429C26.8821 15.9408 26.9964 15.8053 26.9964 15.6419V13.8486C27 13.6852 26.8857 13.5497 26.7464 13.5497Z" fill="#0E4FE3"/>
</svg>
