<svg width="64" height="64" viewBox="0 0 64 64" fill="none" xmlns="http://www.w3.org/2000/svg">
<g id="akar-icons:instagram-fill">
<path id="Vector" fill-rule="evenodd" clip-rule="evenodd" d="M27.0527 20.072C28.3324 20.0131 28.7404 20 32 20C35.2596 20 35.6676 20.0142 36.9462 20.072C38.2247 20.1298 39.0975 20.3338 39.8611 20.6295C40.6607 20.9316 41.3862 21.404 41.9862 22.0149C42.5971 22.6138 43.0684 23.3382 43.3695 24.1389C43.6662 24.9025 43.8691 25.7753 43.928 27.0516C43.9869 28.3335 44 28.7415 44 32C44 35.2596 43.9858 35.6676 43.928 36.9473C43.8702 38.2236 43.6662 39.0964 43.3695 39.86C43.0684 40.6608 42.5963 41.3864 41.9862 41.9862C41.3862 42.5971 40.6607 43.0684 39.8611 43.3695C39.0975 43.6662 38.2247 43.8691 36.9484 43.928C35.6676 43.9869 35.2596 44 32 44C28.7404 44 28.3324 43.9858 27.0527 43.928C25.7764 43.8702 24.9036 43.6662 24.14 43.3695C23.3392 43.0683 22.6136 42.5963 22.0138 41.9862C21.4033 41.3869 20.9309 40.6617 20.6295 39.8611C20.3338 39.0975 20.1309 38.2247 20.072 36.9484C20.0131 35.6665 20 35.2585 20 32C20 28.7404 20.0142 28.3324 20.072 27.0538C20.1298 25.7753 20.3338 24.9025 20.6295 24.1389C20.9313 23.3383 21.4041 22.6131 22.0149 22.0138C22.6139 21.4035 23.3387 20.931 24.1389 20.6295C24.9025 20.3338 25.7753 20.1309 27.0516 20.072H27.0527ZM36.8491 22.232C35.5836 22.1742 35.204 22.1622 32 22.1622C28.796 22.1622 28.4164 22.1742 27.1509 22.232C25.9804 22.2855 25.3455 22.4807 24.9222 22.6455C24.3625 22.8636 23.9622 23.1222 23.5422 23.5422C23.144 23.9295 22.8377 24.401 22.6455 24.9222C22.4807 25.3455 22.2855 25.9804 22.232 27.1509C22.1742 28.4164 22.1622 28.796 22.1622 32C22.1622 35.204 22.1742 35.5836 22.232 36.8491C22.2855 38.0196 22.4807 38.6545 22.6455 39.0778C22.8375 39.5982 23.144 40.0705 23.5422 40.4578C23.9295 40.856 24.4018 41.1625 24.9222 41.3545C25.3455 41.5193 25.9804 41.7145 27.1509 41.768C28.4164 41.8258 28.7949 41.8378 32 41.8378C35.2051 41.8378 35.5836 41.8258 36.8491 41.768C38.0196 41.7145 38.6545 41.5193 39.0778 41.3545C39.6375 41.1364 40.0378 40.8778 40.4578 40.4578C40.856 40.0705 41.1625 39.5982 41.3545 39.0778C41.5193 38.6545 41.7145 38.0196 41.768 36.8491C41.8258 35.5836 41.8378 35.204 41.8378 32C41.8378 28.796 41.8258 28.4164 41.768 27.1509C41.7145 25.9804 41.5193 25.3455 41.3545 24.9222C41.1364 24.3625 40.8778 23.9622 40.4578 23.5422C40.0705 23.1441 39.5989 22.8377 39.0778 22.6455C38.6545 22.4807 38.0196 22.2855 36.8491 22.232ZM30.4673 35.6993C31.3233 36.0556 32.2764 36.1037 33.1639 35.8353C34.0514 35.567 34.8182 34.9988 35.3334 34.2279C35.8485 33.457 36.0801 32.5311 35.9884 31.6085C35.8968 30.6858 35.4876 29.8236 34.8309 29.1691C34.4123 28.7507 33.906 28.4303 33.3487 28.2311C32.7914 28.0318 32.1968 27.9586 31.6078 28.0167C31.0188 28.0748 30.45 28.2627 29.9423 28.5671C29.4347 28.8714 29.0008 29.2844 28.672 29.7766C28.3431 30.2687 28.1275 30.8276 28.0406 31.413C27.9536 31.9985 27.9976 32.596 28.1693 33.1624C28.341 33.7288 28.6362 34.2501 29.0335 34.6888C29.4309 35.1275 29.9205 35.4726 30.4673 35.6993ZM27.6385 27.6385C28.2113 27.0658 28.8913 26.6115 29.6396 26.3015C30.3879 25.9915 31.19 25.832 32 25.832C32.81 25.832 33.6121 25.9915 34.3604 26.3015C35.1087 26.6115 35.7887 27.0658 36.3615 27.6385C36.9342 28.2113 37.3885 28.8913 37.6985 29.6396C38.0085 30.3879 38.168 31.19 38.168 32C38.168 32.81 38.0085 33.6121 37.6985 34.3604C37.3885 35.1087 36.9342 35.7887 36.3615 36.3615C35.2047 37.5182 33.6359 38.168 32 38.168C30.3641 38.168 28.7953 37.5182 27.6385 36.3615C26.4818 35.2047 25.832 33.6359 25.832 32C25.832 30.3641 26.4818 28.7953 27.6385 27.6385ZM39.536 26.7505C39.6779 26.6167 39.7916 26.4557 39.8701 26.2771C39.9487 26.0985 39.9907 25.9059 39.9935 25.7108C39.9964 25.5157 39.9601 25.3221 39.8867 25.1412C39.8134 24.9604 39.7045 24.7962 39.5665 24.6582C39.4285 24.5203 39.2643 24.4114 39.0835 24.338C38.9027 24.2647 38.709 24.2283 38.5139 24.2312C38.3188 24.234 38.1263 24.276 37.9477 24.3546C37.7691 24.4332 37.6081 24.5468 37.4742 24.6887C37.2138 24.9648 37.0712 25.3314 37.0768 25.7108C37.0823 26.0903 37.2355 26.4526 37.5038 26.7209C37.7721 26.9892 38.1345 27.1424 38.5139 27.148C38.8933 27.1535 39.26 27.0109 39.536 26.7505Z" fill="white"/>
</g>
</svg>
