<svg width="56" height="56" viewBox="0 0 56 56" fill="none" xmlns="http://www.w3.org/2000/svg">
<g id="Instagram">
<circle id="Ellipse 2" cx="28" cy="28" r="28" fill="#BB346C"/>
<g id="Group">
<path id="Vector" fill-rule="evenodd" clip-rule="evenodd" d="M21.1601 11.5068C22.9295 11.4253 23.4936 11.4072 28.0008 11.4072C32.5079 11.4072 33.0721 11.4268 34.84 11.5068C36.6078 11.5867 37.8146 11.8688 38.8705 12.2776C39.9761 12.6954 40.9792 13.3486 41.8088 14.1933C42.6536 15.0214 43.3052 16.023 43.7215 17.1302C44.1318 18.1861 44.4124 19.3928 44.4938 21.1576C44.5753 22.93 44.5934 23.4942 44.5934 27.9998C44.5934 32.507 44.5738 33.0711 44.4938 34.8405C44.4139 36.6053 44.1318 37.8121 43.7215 38.868C43.3052 39.9753 42.6525 40.9785 41.8088 41.8079C40.9792 42.6526 39.9761 43.3042 38.8705 43.7205C37.8146 44.1308 36.6078 44.4114 34.843 44.4929C33.0721 44.5743 32.5079 44.5924 28.0008 44.5924C23.4936 44.5924 22.9295 44.5728 21.1601 44.4929C19.3953 44.4129 18.1885 44.1308 17.1326 43.7205C16.0253 43.3042 15.0221 42.6515 14.1927 41.8079C13.3486 40.9793 12.6954 39.9765 12.2786 38.8695C11.8698 37.8136 11.5892 36.6068 11.5078 34.842C11.4263 33.0696 11.4082 32.5055 11.4082 27.9998C11.4082 23.4927 11.4278 22.9285 11.5078 21.1607C11.5877 19.3928 11.8698 18.1861 12.2786 17.1302C12.696 16.0231 13.3497 15.0204 14.1943 14.1918C15.0224 13.3478 16.0247 12.6946 17.1311 12.2776C18.187 11.8688 19.3938 11.5882 21.1586 11.5068H21.1601ZM34.7057 14.4934C32.9559 14.4135 32.431 14.3969 28.0008 14.3969C23.5706 14.3969 23.0456 14.4135 21.2959 14.4934C19.6773 14.5674 18.7994 14.8374 18.2142 15.0651C17.4404 15.3668 16.8868 15.7243 16.306 16.3051C15.7555 16.8406 15.3319 17.4926 15.0661 18.2132C14.8383 18.7985 14.5683 19.6764 14.4944 21.2949C14.4145 23.0447 14.3979 23.5696 14.3979 27.9998C14.3979 32.43 14.4145 32.955 14.4944 34.7047C14.5683 36.3233 14.8383 37.2012 15.0661 37.7864C15.3316 38.5059 15.7555 39.1591 16.306 39.6946C16.8415 40.2452 17.4947 40.669 18.2142 40.9345C18.7994 41.1623 19.6773 41.4323 21.2959 41.5062C23.0456 41.5861 23.5691 41.6027 28.0008 41.6027C32.4325 41.6027 32.9559 41.5861 34.7057 41.5062C36.3242 41.4323 37.2021 41.1623 37.7874 40.9345C38.5612 40.6328 39.1148 40.2753 39.6956 39.6946C40.2461 39.1591 40.67 38.5059 40.9355 37.7864C41.1632 37.2012 41.4333 36.3233 41.5072 34.7047C41.5871 32.955 41.6037 32.43 41.6037 27.9998C41.6037 23.5696 41.5871 23.0447 41.5072 21.2949C41.4333 19.6764 41.1632 18.7985 40.9355 18.2132C40.6338 17.4394 40.2763 16.8858 39.6956 16.3051C39.16 15.7546 38.508 15.3309 37.7874 15.0651C37.2021 14.8374 36.3242 14.5674 34.7057 14.4934ZM25.8815 33.1149C27.0651 33.6076 28.383 33.6741 29.6102 33.303C30.8373 32.9319 31.8976 32.1463 32.6099 31.0804C33.3222 30.0144 33.6424 28.7342 33.5156 27.4585C33.3889 26.1827 32.8232 24.9905 31.9151 24.0855C31.3363 23.507 30.6363 23.064 29.8657 22.7885C29.0951 22.5129 28.273 22.4117 27.4585 22.492C26.6441 22.5723 25.8576 22.8322 25.1556 23.253C24.4537 23.6738 23.8538 24.245 23.3991 24.9254C22.9444 25.6059 22.6462 26.3787 22.526 27.1882C22.4058 27.9978 22.4666 28.8239 22.704 29.6071C22.9415 30.3903 23.3496 31.1111 23.899 31.7176C24.4484 32.3242 25.1255 32.8014 25.8815 33.1149ZM21.9701 21.9692C22.7621 21.1772 23.7023 20.549 24.737 20.1204C25.7718 19.6918 26.8808 19.4712 28.0008 19.4712C29.1208 19.4712 30.2298 19.6918 31.2646 20.1204C32.2993 20.549 33.2395 21.1772 34.0314 21.9692C34.8234 22.7611 35.4516 23.7013 35.8802 24.7361C36.3088 25.7708 36.5294 26.8798 36.5294 27.9998C36.5294 29.1198 36.3088 30.2288 35.8802 31.2636C35.4516 32.2983 34.8234 33.2385 34.0314 34.0305C32.432 35.6299 30.2627 36.5285 28.0008 36.5285C25.7389 36.5285 23.5696 35.6299 21.9701 34.0305C20.3707 32.431 19.4722 30.2618 19.4722 27.9998C19.4722 25.7379 20.3707 23.5686 21.9701 21.9692ZM38.4209 20.7413C38.6172 20.5562 38.7743 20.3336 38.883 20.0866C38.9916 19.8397 39.0497 19.5735 39.0536 19.3037C39.0575 19.0339 39.0073 18.7661 38.9059 18.5161C38.8044 18.2661 38.6539 18.039 38.4631 17.8482C38.2723 17.6575 38.0452 17.5069 37.7952 17.4055C37.5452 17.304 37.2774 17.2538 37.0077 17.2577C36.7379 17.2617 36.4717 17.3197 36.2247 17.4284C35.9778 17.537 35.7552 17.6942 35.57 17.8904C35.21 18.2721 35.0129 18.779 35.0205 19.3037C35.0282 19.8283 35.24 20.3293 35.611 20.7003C35.982 21.0714 36.483 21.2832 37.0077 21.2908C37.5323 21.2985 38.0393 21.1014 38.4209 20.7413Z" fill="white"/>
</g>
</g>
</svg>
