<svg width="32" height="32" viewBox="0 0 32 32" fill="none" xmlns="http://www.w3.org/2000/svg">
<path d="M28.8 7.11111H22.4V3.55556L19.2 0H12.8L9.6 3.55556V7.11111H3.2C1.44 7.11111 0 8.71111 0 10.6667V19.5556C0 20.8889 0.64 22.0089 1.6 22.6311V28.4444C1.6 30.4178 3.024 32 4.8 32H27.2C28.976 32 30.4 30.4178 30.4 28.4444V22.6133C31.344 21.9911 32 20.8533 32 19.5556V10.6667C32 8.71111 30.56 7.11111 28.8 7.11111ZM12.8 3.55556H19.2V7.11111H12.8V3.55556ZM3.2 10.6667H28.8V19.5556H20.8V14.2222H11.2V19.5556H3.2V10.6667ZM17.6 21.3333H14.4V17.7778H17.6V21.3333ZM27.2 28.4444H4.8V23.1111H11.2V24.8889H20.8V23.1111H27.2V28.4444Z" fill="#0E4FE3"/>
</svg>
