<svg width="64" height="64" viewBox="0 0 64 64" fill="none" xmlns="http://www.w3.org/2000/svg">
<g id="akar-icons:linkedin-box-fill">
<path id="Vector" fill-rule="evenodd" clip-rule="evenodd" d="M20 22.0051C20 21.4733 20.2113 20.9633 20.5873 20.5873C20.9633 20.2113 21.4733 20 22.0051 20H41.9927C42.2563 19.9996 42.5173 20.0511 42.7609 20.1517C43.0045 20.2523 43.2258 20.3999 43.4123 20.5862C43.5987 20.7724 43.7466 20.9936 43.8475 21.2371C43.9483 21.4806 44.0001 21.7416 44 22.0051V41.9927C44.0003 42.2563 43.9486 42.5174 43.8479 42.761C43.7472 43.0046 43.5994 43.2259 43.4131 43.4123C43.2268 43.5988 43.0055 43.7466 42.762 43.8475C42.5184 43.9483 42.2574 44.0001 41.9938 44H22.0051C21.7417 44 21.4809 43.9481 21.2375 43.8473C20.9942 43.7464 20.7731 43.5986 20.5869 43.4123C20.4007 43.226 20.253 43.0049 20.1523 42.7615C20.0516 42.5181 19.9999 42.2572 20 41.9938V22.0051ZM29.4996 29.1505H32.7495V30.7825C33.2185 29.8444 34.4185 29 36.2218 29C39.6789 29 40.4982 30.8687 40.4982 34.2975V40.6487H36.9996V35.0785C36.9996 33.1258 36.5305 32.024 35.3393 32.024C33.6865 32.024 32.9993 33.212 32.9993 35.0785V40.6487H29.4996V29.1505ZM23.4996 40.4993H26.9993V29H23.4996V40.4982V40.4993ZM27.5 25.2495C27.5066 25.5491 27.4533 25.847 27.3432 26.1258C27.2331 26.4046 27.0684 26.6585 26.8588 26.8728C26.6492 27.087 26.3989 27.2572 26.1227 27.3735C25.8464 27.4897 25.5497 27.5495 25.25 27.5495C24.9503 27.5495 24.6536 27.4897 24.3773 27.3735C24.1011 27.2572 23.8508 27.087 23.6412 26.8728C23.4316 26.6585 23.2669 26.4046 23.1568 26.1258C23.0467 25.847 22.9934 25.5491 23 25.2495C23.013 24.6613 23.2557 24.1016 23.6762 23.6902C24.0968 23.2788 24.6617 23.0485 25.25 23.0485C25.8383 23.0485 26.4032 23.2788 26.8238 23.6902C27.2443 24.1016 27.487 24.6613 27.5 25.2495Z" fill="white"/>
</g>
</svg>
