<svg width="56" height="56" viewBox="0 0 56 56" fill="none" xmlns="http://www.w3.org/2000/svg">
<g id="Linkedin">
<circle id="Ellipse 2" cx="28" cy="28" r="28" fill="#007AB9"/>
<g id="Group 1">
<path id="Vector" d="M16.998 20.5165C18.9407 20.5165 20.5156 18.9417 20.5156 16.999C20.5156 15.0563 18.9407 13.4814 16.998 13.4814C15.0553 13.4814 13.4805 15.0563 13.4805 16.999C13.4805 18.9417 15.0553 20.5165 16.998 20.5165Z" fill="white"/>
<path id="Vector_2" d="M23.8371 23.182V42.6973H29.8963V33.0466C29.8963 30.5 30.3754 28.0339 33.5328 28.0339C36.6469 28.0339 36.6855 30.9454 36.6855 33.2073V42.6989H42.7479V31.9968C42.7479 26.7397 41.6161 22.6997 35.4717 22.6997C32.5216 22.6997 30.5442 24.3186 29.7356 25.8507H29.6536V23.182H23.8371ZM13.9629 23.182H20.0318V42.6973H13.9629V23.182Z" fill="white"/>
</g>
</g>
</svg>
