<svg width="24" height="32" viewBox="0 0 24 32" fill="none" xmlns="http://www.w3.org/2000/svg">
<path d="M12 0C5.38 0 0 5.57874 0 12.4433C0 16.6325 2.34 20.1374 5.06 22.5846C5.92 23.3519 7.42 24.5755 8.76 26.3798C10.24 28.3914 11.58 30.5483 12 32C12.42 30.5483 13.76 28.3914 15.24 26.3798C16.58 24.5755 18.08 23.3519 18.94 22.5846C21.66 20.1374 24 16.6325 24 12.4433C24 5.57874 18.62 0 12 0ZM12 5.30914C12.9035 5.30914 13.7981 5.49367 14.6329 5.85219C15.4676 6.21072 16.226 6.73622 16.8649 7.39868C17.5038 8.06115 18.0105 8.84761 18.3563 9.71317C18.702 10.5787 18.88 11.5064 18.88 12.4433C18.88 13.3802 18.702 14.3079 18.3563 15.1734C18.0105 16.039 17.5038 16.8254 16.8649 17.4879C16.226 18.1504 15.4676 18.6759 14.6329 19.0344C13.7981 19.3929 12.9035 19.5774 12 19.5774C10.1753 19.5774 8.42536 18.8258 7.13511 17.4879C5.84485 16.15 5.12 14.3354 5.12 12.4433C5.12 10.5512 5.84485 8.7366 7.13511 7.39868C8.42536 6.06077 10.1753 5.30914 12 5.30914Z" fill="#0E4FE3"/>
</svg>
