<svg width="1256" height="186" viewBox="0 0 1256 186" fill="none" xmlns="http://www.w3.org/2000/svg">
<path d="M515.7 40.8998C506 40.8998 496.5 43.5998 488.3 48.5998C483.3 51.5998 478.9 55.2998 475 59.5998C472 55.3998 468.2 51.7998 463.9 48.8998C456 43.5998 446.6 40.7998 437.1 40.7998C426 40.7998 416 43.8998 407.2 49.9998V43.9998H373.5V168.6C373.5 175 378.6 180.1 384.8 180.1H407.3V121C407.3 103.6 409.2 95.4998 410.7 91.6998C412.7 86.6998 416.2 82.3998 420.6 79.2998C425 76.1998 429.4 74.6998 434.1 74.6998C438.6 74.6998 442.2 75.6998 445 77.9998C447.7 80.0998 449.6 83.0998 450.3 86.4998C451 89.6998 451.9 96.4998 451.9 110.6V168.6C451.9 175 457 180.1 463.2 180.1H485.4V124.6C485.4 110.7 486.5 100.2 488.5 93.3998C490.3 87.4998 493.4 82.9998 497.9 79.5998C502.4 76.1998 507.1 74.5998 512.1 74.5998C517 74.5998 520.7 75.5998 523.4 77.7998C526 79.7998 527.8 82.4998 528.6 85.6998C529.3 88.5998 530.1 94.4998 530.1 106.6V168.6C530.1 175 535.2 180.1 541.4 180.1H564.3V106.6C564.3 81.7998 559.6 65.0998 550 55.2998C540.7 45.7998 529.1 40.8998 515.7 40.8998Z" fill="white"/>
<path d="M680.6 51.4998C670.2 44.3998 658.4 40.7998 645.2 40.7998C625.8 40.7998 609.1 47.6998 595.7 61.2998C582.2 74.7998 575.4 91.2998 575.4 110.3C575.4 129.3 582.1 145.7 595.5 159.4C608.9 173.1 625.3 180.1 644.2 180.1C657.4 180.1 669.6 176.3 680.6 168.7C680.6 172.9 684 176.2 688.2 176.2H714.1V43.8998H680.6V51.4998ZM670.9 137.3C663.7 144.4 655.4 147.8 645.6 147.8C635.6 147.8 627.3 144.2 620.1 136.8C612.9 129.4 609.4 120.8 609.4 110.7C609.4 100.6 612.8 91.9998 620 84.5998C627 77.1998 635.3 73.6998 645.5 73.6998C655.6 73.6998 664.1 77.0998 671 84.1998C678 91.3998 681.5 99.9998 681.5 110.8C681.5 121.6 678.1 130.3 670.9 137.3Z" fill="white"/>
<path d="M834 130.2C824.2 142.1 812.7 147.8 798.6 147.8C787 147.8 777.8 144.2 770.3 136.7C762.8 129.2 759.2 120.4 759.2 109.9C759.2 99.4998 762.9 91.0998 770.3 84.0998C777.9 76.9998 787.2 73.5998 798.6 73.5998C813.1 73.5998 824.6 79.2998 833.6 90.7998L838 96.4998L864.8 79.6998L860.7 73.0998C854.5 62.8998 845.5 54.5998 834.7 49.1998C823.8 43.5998 811.8 40.7998 799.1 40.7998C777.5 40.7998 759.6 47.7998 745.8 61.3998C732.1 74.9998 725.1 91.6998 725.1 111C725.1 130.2 732.1 146.7 745.8 160.1C759.5 173.4 776.7 180.1 797 180.1C809.8 180.1 821.9 177.5 833 172.3C844.1 167.1 853.6 159.1 860.5 149.1L865 142.6L844.6 128.7C841.3 126.4 836.6 127 834 130.2Z" fill="white"/>
<path d="M945.899 40.9C932.599 40.9 920.399 44.5 909.699 51.6V0H876.199V165.1C876.199 171.3 881.299 176.3 887.499 176.3H909.699V168.7C920.099 176.2 932.699 180.2 945.499 180.1C964.599 180.1 981.199 173.2 994.599 159.6C1008.1 146 1014.9 129.4 1014.9 110.4C1014.9 91.4 1008.2 74.9 994.999 61.4C981.799 47.8 965.199 40.9 945.899 40.9ZM970.299 136.3C963.199 143.7 954.899 147.3 944.799 147.3C934.699 147.3 926.399 143.8 919.399 136.5C912.299 129.1 908.799 120.3 908.799 109.6C908.799 98.9 912.199 90.4 919.199 83.4C926.199 76.4 934.599 73.1 945.099 73.1C955.399 73.1 963.799 76.7 970.599 84C977.599 91.5 980.999 100.2 980.999 110.2C980.999 120.1 977.499 128.7 970.299 136.3Z" fill="white"/>
<path d="M1130.1 121.1H1163.8L1163.6 113C1163.1 91.0999 1156.3 73.3999 1143.3 60.3999C1130.3 47.3999 1113.8 40.8999 1094.6 40.8999C1075.2 40.8999 1058.7 47.8999 1045.6 61.4999C1032.6 75.0999 1026 91.5999 1026 110.6C1026 129.6 1032.6 146 1045.5 159.6C1058.5 173.2 1075.3 180.1 1095.3 180.1C1109.7 180.1 1122.3 176.7 1132.8 170C1143.1 163.4 1152 153.2 1159.4 139.8L1136.1 131.2C1131.7 129.6 1126.6 130.6 1123.5 134.2C1115.7 143.3 1106 147.8 1093.9 147.8C1084.9 147.8 1077.3 144.7 1070.8 138.4C1066 133.7 1062.8 128 1061.2 121L1130.1 121.1ZM1096.1 72.5999C1111.9 72.5999 1125.9 82.6999 1130.7 97.4999H1061.5C1066.3 82.6999 1080.4 72.5999 1096.1 72.5999Z" fill="white"/>
<path d="M1254.9 42.6002C1251.2 42.0002 1247.5 41.8002 1243.8 41.7002C1231.5 41.7002 1220.2 44.9002 1210.3 51.2002C1209.6 51.6002 1209 52.1002 1208.4 52.5002V44.7002H1174.9V168.6C1174.9 174.8 1179.9 180 1186.3 180H1207.8V112.2C1207.8 111.2 1207.8 110.1 1208 109.1V109C1208.3 106.5 1208.8 104 1209.5 101.6C1212.2 91.4002 1219.6 77.4002 1239.2 75.5002L1255.2 42.5002C1255 42.6002 1254.9 42.6002 1254.9 42.6002Z" fill="white"/>
<path d="M204.1 43.0997C189.5 33.1997 169.5 36.7997 159.3 51.1997L99.8998 135.9C89.7998 150.4 93.4998 170.2 108 180.2C122.6 190.2 142.7 186.6 152.8 172.2L212.2 87.3997C222.3 72.8997 218.7 53.1997 204.1 43.0997Z" fill="white"/>
<path d="M109.901 41.5999C95.3006 31.5999 75.2006 35.1999 65.1006 49.5999L5.70058 134.4C-4.39942 148.9 -0.699423 168.7 13.8006 178.7C28.4006 188.7 48.5006 185.1 58.6006 170.7L118.001 85.8999C128.101 71.3999 124.501 51.5999 109.901 41.5999Z" fill="white"/>
<path d="M243.401 115.2L269.3 152.3C279.2 166.5 269.001 185.9 251.801 185.9H225.901H200.001C182.701 185.9 172.601 166.5 182.501 152.3L208.401 115.2C216.901 103 234.901 103 243.401 115.2Z" fill="white"/>
</svg>
