<svg width="79" height="45" viewBox="0 0 79 45" fill="none" xmlns="http://www.w3.org/2000/svg">
<path d="M40.6602 40.8339H46.1576L46.6263 39.0947H41.0978L40.6602 40.8339Z" fill="white"/>
<path d="M39.507 40.9861C39.4741 41.1234 39.4728 41.2664 39.5032 41.4042C39.5336 41.5421 39.5949 41.6712 39.6825 41.7819C39.7701 41.8926 39.8817 41.9819 40.0088 42.0431C40.136 42.1043 40.2754 42.1358 40.4165 42.1352H46.004L45.5135 44.216H38.135C37.935 44.2163 37.7376 44.1712 37.5575 44.0842C37.3775 43.9971 37.2195 43.8704 37.0955 43.7134C36.9715 43.5565 36.8847 43.3734 36.8416 43.1781C36.7985 42.9827 36.8003 42.7801 36.8468 42.5855L37.7221 38.8588L37.8432 38.3774C37.9146 38.0668 37.9984 37.7128 38.0822 37.3463L38.1288 37.1569C38.2312 36.7097 38.3336 36.2656 38.4206 35.9146L38.4609 35.7407H47.5032L47.0159 37.8029H40.7424C40.6059 37.8024 40.4732 37.8487 40.3666 37.934C40.2599 38.0192 40.1855 38.1384 40.1558 38.2718L39.9881 38.9116L39.507 40.9861Z" fill="white"/>
<path d="M22.5898 35.769L20.6094 44.1884H23.1889L25.1725 35.769H22.5898Z" fill="white"/>
<path d="M36.31 37.4671C36.2984 37.1214 36.1816 36.7876 35.9752 36.5101C35.7689 36.2326 35.4828 36.0247 35.1552 35.9143C34.8132 35.7906 34.4509 35.7326 34.0874 35.7435H28.6303C28.2105 35.759 27.8069 35.9098 27.4797 36.1733C27.1525 36.4369 26.9191 36.7992 26.8144 37.2062L26.5971 38.1379H33.2958C33.4008 38.1342 33.5057 38.1478 33.6063 38.1783C33.6174 38.1816 33.6279 38.1869 33.6373 38.1938C33.6438 38.2224 33.6438 38.2522 33.6373 38.2808C33.6324 38.3604 33.6199 38.4395 33.6001 38.5168C33.389 39.4268 33.1717 40.3398 32.9575 41.2529C32.9343 41.3711 32.8935 41.4852 32.8364 41.5914C32.8093 41.6421 32.7713 41.6862 32.7251 41.7206C32.679 41.7549 32.6258 41.7787 32.5695 41.7901C32.4674 41.8115 32.3634 41.823 32.2591 41.8243H28.5341L29.1022 39.4112H26.504L25.3555 44.2312H32.0232C32.2218 44.2312 32.4205 44.2312 32.6191 44.2125C32.9498 44.1957 33.2756 44.1265 33.5845 44.0075C34.0254 43.8431 34.4181 43.5708 34.7269 43.2156C35.0475 42.8501 35.2744 42.412 35.388 41.9392C35.6053 41.0324 35.8164 40.1286 36.0306 39.2218L36.2355 38.3491C36.3066 38.0609 36.3317 37.7632 36.31 37.4671Z" fill="white"/>
<path d="M19.419 36.0323C19.04 35.8219 18.6105 35.7198 18.1774 35.7373H11.2086L9.28711 44.1877H11.8666L12.1771 42.815L13.0711 39.0106L13.2666 38.1193H17.4758C17.5262 38.1137 17.577 38.1234 17.6217 38.1472C17.5814 38.3646 17.361 39.2466 17.2865 39.4671C17.2636 39.5199 17.2265 39.5652 17.1794 39.5981C17.1322 39.631 17.0769 39.6502 17.0195 39.6535C16.945 39.6535 16.8674 39.6535 16.7898 39.6535H13.9247L13.5336 41.3833H15.2222L16.3273 44.1784H18.5467L19.1676 44.1504L18.0656 41.2342C18.5274 41.0875 18.942 40.8206 19.2669 40.4609C19.5993 40.0976 19.8352 39.6566 19.9529 39.1783C20.0212 38.8988 20.0895 38.6193 20.1516 38.3398L20.2044 38.1193C20.2278 38.0168 20.2454 37.9132 20.2571 37.8087C20.3185 37.4623 20.2709 37.1052 20.1207 36.787C19.9706 36.4688 19.7254 36.2051 19.419 36.0323Z" fill="white"/>
<path d="M57.7518 36.0327C57.3727 35.8226 56.9433 35.7205 56.5102 35.7377H49.5445L47.623 44.1881H50.1995L50.5099 42.8154L51.407 39.011L51.6026 38.1197H55.8055C55.8559 38.1141 55.9067 38.1239 55.9514 38.1477C55.908 38.3651 55.6907 39.2471 55.6162 39.4676C55.5933 39.5203 55.5562 39.5656 55.5091 39.5985C55.462 39.6314 55.4066 39.6506 55.3492 39.6539C55.2716 39.6539 55.1971 39.6539 55.1195 39.6539H52.2544L51.8726 41.393H53.5644L54.6694 44.1881H56.8889L57.5097 44.1602L56.4109 41.244C56.872 41.0958 57.2862 40.8291 57.6122 40.4707C57.9436 40.1071 58.1784 39.6661 58.2951 39.188C58.3665 38.9085 58.4316 38.629 58.4968 38.3495L58.5496 38.129C58.5744 38.0141 58.59 37.921 58.6024 37.8185C58.6638 37.4693 58.6149 37.1096 58.4624 36.7896C58.31 36.4695 58.0616 36.205 57.7518 36.0327Z" fill="white"/>
<path d="M68.9612 39.5732C68.6056 39.3814 68.2102 39.2751 67.8064 39.2627L67.5643 39.2316L63.3147 38.6912C63.2123 38.6912 63.1068 38.6664 63.0043 38.6446C62.9019 38.6229 62.8864 38.5701 62.8864 38.5235V38.4272H60.6607L60.6048 38.6353C60.573 38.782 60.5492 38.9302 60.5334 39.0794C60.5068 39.2795 60.5271 39.4831 60.5929 39.6739C60.6586 39.8648 60.7679 40.0376 60.9121 40.1788C61.1586 40.4 61.4617 40.5484 61.7875 40.6074C61.9179 40.6353 62.0483 40.654 62.1755 40.6726H62.2593L62.5884 40.7161L66.7479 41.2596L67.1142 41.3093C67.2291 41.331 67.2166 41.4055 67.2135 41.4335C67.1922 41.5751 67.158 41.7144 67.1111 41.8496C67.0911 41.9182 67.0506 41.979 66.9952 42.024C66.9397 42.0689 66.8719 42.0959 66.8007 42.1012C66.7322 42.115 66.6625 42.1213 66.5927 42.1198H60.0088L59.5215 44.1851H66.6113C66.9908 44.1904 67.3678 44.124 67.7226 43.9894C68.0992 43.8611 68.4382 43.6412 68.709 43.3496C68.9799 43.058 69.1743 42.7038 69.2747 42.3186C69.3523 42.0298 69.4175 41.7347 69.4827 41.4521L69.5137 41.3186C69.5435 41.1863 69.5662 41.0526 69.582 40.918C69.6207 40.6577 69.5825 40.3918 69.4722 40.1529C69.3619 39.914 69.1843 39.7125 68.9612 39.5732Z" fill="white"/>
<path d="M69.7279 36.1972C69.604 36.0448 69.4464 35.9231 69.2676 35.8418C69.0888 35.7604 68.8937 35.7216 68.6974 35.7283H63.3893C63.0727 35.7318 62.7586 35.7842 62.458 35.8836C61.9769 36.0379 61.5572 36.3413 61.2598 36.75C61.0979 36.9775 60.9751 37.2305 60.8967 37.4985L60.8066 37.7811H69.8583L69.9607 37.3587C70.0134 37.1602 70.0198 36.9523 69.9794 36.7509C69.939 36.5495 69.853 36.3601 69.7279 36.1972Z" fill="white"/>
<path d="M78.9993 11.5415C78.9985 12.2356 78.7226 12.901 78.232 13.3918C77.7414 13.8826 77.0763 14.1587 76.3825 14.1595H53.4119C53.0931 16.9752 51.8338 19.6008 49.8378 21.6113C47.8419 23.6217 45.2261 24.8994 42.414 25.2373C41.8912 25.3154 41.362 25.3424 40.834 25.3181V22.8646C41.0389 22.8367 41.2468 22.8056 41.4548 22.7683C41.6255 22.7373 41.7994 22.7062 41.967 22.669H42.0167L42.5009 22.5975C43.8416 22.3939 45.1251 21.9126 46.2693 21.1845C48.1489 19.9921 49.5708 18.1995 50.3047 16.0975C50.8563 14.9554 51.224 13.7332 51.3943 12.4763C51.4222 12.2682 51.4439 12.0726 51.4625 11.8831L51.4905 11.6471V11.5508L78.9993 11.5415Z" fill="white"/>
<path d="M54.1867 20.6286C52.5201 23.4759 49.9821 25.7113 46.9479 27.0044C45.3839 27.6624 43.7252 28.067 42.034 28.2032L41.5746 28.2467H40.8203V30.8337C40.8203 30.8647 63.9244 30.8647 63.9244 30.8647C64.268 30.8647 64.6083 30.797 64.9258 30.6654C65.2433 30.5339 65.5318 30.341 65.7747 30.0979C66.0177 29.8548 66.2105 29.5662 66.342 29.2486C66.4735 28.9309 66.5412 28.5905 66.5412 28.2467H50.26C50.7225 27.9641 51.1757 27.6659 51.6134 27.3429C52.4446 26.7275 53.2204 26.0406 53.9322 25.2901H68.832C69.1755 25.2905 69.5157 25.2232 69.8332 25.092C70.1507 24.9607 70.4392 24.7682 70.6822 24.5253C70.9252 24.2825 71.118 23.9941 71.2496 23.6766C71.3811 23.3591 71.4488 23.0188 71.4488 22.6752H55.9933C56.6004 21.7395 57.12 20.7498 57.5454 19.7186H72.6439C72.9877 19.719 73.3281 19.6516 73.6458 19.5202C73.9635 19.3888 74.2521 19.1959 74.4952 18.9527C74.7382 18.7095 74.931 18.4208 75.0623 18.103C75.1937 17.7851 75.2611 17.4445 75.2607 17.1006H55.7295C55.3265 18.3222 54.81 19.5034 54.1867 20.6286Z" fill="#FFD109"/>
<path d="M38.1809 22.8864V25.3181C37.6528 25.3424 37.1237 25.3154 36.6009 25.2373C33.789 24.8988 31.1735 23.621 29.1776 21.6107C27.1817 19.6003 25.9222 16.975 25.6029 14.1595H2.61679C1.92302 14.1587 1.25791 13.8826 0.767346 13.3918C0.276782 12.901 0.000821508 12.2356 0 11.5415H27.245C27.3539 13.9686 28.2226 16.3 29.7283 18.2062C30.4458 19.3176 31.3804 20.2724 32.4761 21.0131C33.5718 21.7539 34.8059 22.2654 36.1042 22.5168C36.4146 22.6006 36.725 22.6721 37.0572 22.7342C37.3893 22.7963 37.678 22.8305 37.9605 22.8615L38.1809 22.8864Z" fill="white"/>
<path d="M24.8165 20.6288C26.4832 23.4761 29.0211 25.7115 32.0554 27.0046C33.6201 27.6642 35.2799 28.0699 36.9723 28.2065L37.4348 28.25H38.1891V30.8369C38.1891 30.868 15.085 30.868 15.085 30.868C14.7398 30.8705 14.3976 30.8046 14.0779 30.6741C13.7583 30.5436 13.4676 30.3512 13.2227 30.1078C12.9777 29.8645 12.7833 29.575 12.6506 29.2562C12.5179 28.9373 12.4496 28.5953 12.4496 28.25H28.7308C28.2683 27.9673 27.8151 27.6692 27.3774 27.3462C26.5503 26.7282 25.7786 26.0393 25.0711 25.2872H10.1712C9.47801 25.2872 8.81321 25.0117 8.32305 24.5213C7.83289 24.0309 7.55752 23.3658 7.55752 22.6723H23.0037C22.3977 21.7359 21.8782 20.7463 21.4516 19.7157H6.35001C6.00652 19.7157 5.66639 19.648 5.34908 19.5164C5.03177 19.3847 4.74351 19.1919 4.50076 18.9487C4.25802 18.7056 4.06556 18.4169 3.93439 18.0993C3.80323 17.7817 3.73592 17.4413 3.73633 17.0977H23.2738C23.6765 18.3204 24.1931 19.5026 24.8165 20.6288Z" fill="#FFD109"/>
<path d="M49.2334 10.2342V11.3895C49.2055 11.6442 49.1807 11.8988 49.1434 12.1504C48.8584 14.2228 47.9235 16.1513 46.4731 17.6581C45.0227 19.165 43.1319 20.1725 41.0727 20.5356C40.7002 20.6008 40.3246 20.6381 39.949 20.6877H38.7942L38.6049 20.6536C38.2417 20.607 37.8754 20.5791 37.5184 20.5107C35.0303 20.0361 32.8194 18.6237 31.3423 16.565C29.8652 14.5064 29.2347 11.9588 29.5812 9.44849C29.8085 7.54449 30.6196 5.75765 31.903 4.33352C34.2529 1.70306 37.2049 0.606772 40.7002 1.01671C42.6358 1.24874 44.4506 2.08052 45.8903 3.39562C47.5864 4.87151 48.714 6.8938 49.0782 9.11308C49.1465 9.48265 49.1838 9.85843 49.2334 10.2342ZM36.9721 6.99504C36.8759 6.14721 36.789 5.29627 36.6834 4.44843C36.6338 4.02296 36.373 3.90184 35.9726 4.10371C35.2358 4.48368 34.5642 4.97848 33.9828 5.56956C33.6724 5.88013 33.719 6.19069 34.1163 6.3646L36.2675 7.34287C36.3213 7.36864 36.3774 7.38943 36.4351 7.40499C36.4983 7.42573 36.5655 7.43078 36.6311 7.4197C36.6967 7.40863 36.7586 7.38175 36.8114 7.3414C36.8643 7.30104 36.9065 7.24842 36.9345 7.18808C36.9625 7.12774 36.9754 7.06149 36.9721 6.99504ZM45.0087 5.97951C44.9622 5.86192 44.9018 5.75035 44.8287 5.6472C44.2068 4.98806 43.4706 4.44722 42.6558 4.05091C42.5979 4.01936 42.5331 4.00261 42.4671 4.00215C42.4012 4.00168 42.3361 4.01751 42.2778 4.04824C42.2194 4.07897 42.1696 4.12364 42.1326 4.17828C42.0957 4.23293 42.0728 4.29585 42.066 4.36147C42.0509 4.42584 42.0405 4.49124 42.0349 4.55713C41.9449 5.34596 41.858 6.13479 41.768 6.92672C41.7276 7.29939 42.0101 7.54785 42.3516 7.39878C43.1462 7.05405 43.9347 6.69069 44.7169 6.31802C44.8318 6.24969 44.9001 6.09441 44.9963 5.97951H45.0087ZM31.9279 11.8802C31.9279 11.8802 31.9279 11.9175 31.9279 11.9454C32.0655 12.7898 32.3402 13.6059 32.7412 14.3616C32.7669 14.4294 32.8101 14.4892 32.8664 14.5348C32.9228 14.5804 32.9902 14.6103 33.0618 14.6213C33.1335 14.6324 33.2067 14.6242 33.2742 14.5977C33.3417 14.5712 33.4009 14.5272 33.4458 14.4703C34.0108 13.8657 34.5685 13.2529 35.1189 12.6318C35.1701 12.5803 35.2061 12.5157 35.223 12.445C35.2398 12.3744 35.2368 12.3005 35.2144 12.2314C35.1919 12.1624 35.1508 12.1009 35.0956 12.0537C35.0404 12.0065 34.9733 11.9755 34.9016 11.964C34.0728 11.7808 33.244 11.6131 32.4183 11.4485C32.3548 11.4347 32.2889 11.436 32.2259 11.4523C32.163 11.4685 32.1047 11.4993 32.0558 11.5422C32.0069 11.5851 31.9687 11.6389 31.9444 11.6992C31.92 11.7595 31.9101 11.8247 31.9155 11.8895L31.9279 11.8802ZM46.3683 11.4423H46.2876C45.4961 11.6038 44.7045 11.7529 43.9161 11.933C43.4846 12.0262 43.3821 12.3678 43.6801 12.697L45.2322 14.3833C45.2702 14.4301 45.314 14.4719 45.3626 14.5076C45.4083 14.5483 45.4628 14.578 45.5219 14.5942C45.5809 14.6104 45.6429 14.6127 45.703 14.601C45.7631 14.5893 45.8197 14.5638 45.8683 14.5266C45.917 14.4894 45.9564 14.4414 45.9834 14.3864C46.4019 13.6122 46.6844 12.7718 46.8184 11.9019C46.8239 11.8403 46.8156 11.7783 46.7941 11.7203C46.7726 11.6623 46.7385 11.6099 46.6942 11.5667C46.6499 11.5236 46.5966 11.4909 46.538 11.471C46.4795 11.4511 46.4173 11.4444 46.3559 11.4516L46.3683 11.4423ZM39.3716 18.3492C39.7875 18.3088 40.1973 18.2778 40.6133 18.2188C40.6866 18.2161 40.7579 18.1935 40.8193 18.1534C40.8808 18.1132 40.9302 18.0571 40.9621 17.9909C40.994 17.9248 41.0073 17.8512 41.0005 17.7781C40.9938 17.7049 40.9672 17.635 40.9237 17.5759C40.5388 16.8803 40.1466 16.1887 39.7472 15.5014C39.7159 15.428 39.6638 15.3655 39.5973 15.3215C39.5308 15.2775 39.4529 15.2541 39.3731 15.2541C39.2934 15.2541 39.2155 15.2775 39.149 15.3215C39.0825 15.3655 39.0304 15.428 38.9991 15.5014C38.5852 16.1929 38.19 16.8906 37.8133 17.5945C37.7745 17.6533 37.7518 17.7212 37.7475 17.7915C37.7432 17.8617 37.7576 17.9319 37.789 17.9949C37.8205 18.0579 37.868 18.1114 37.9268 18.1502C37.9855 18.189 38.0535 18.2115 38.1237 18.2157C38.5242 18.284 38.9494 18.3182 39.3592 18.3585L39.3716 18.3492ZM39.3716 3.28693C39.2567 3.28693 39.145 3.28693 39.0332 3.28693C38.6049 3.28693 38.4559 3.48879 38.5086 3.90805C38.6142 4.80247 38.7104 5.69689 38.8191 6.59442C38.8687 7.02921 38.9153 7.46399 38.9774 7.89568C38.9911 7.99277 39.0402 8.08136 39.1153 8.14442C39.1903 8.20748 39.2861 8.24056 39.384 8.23729C39.4742 8.23265 39.5604 8.19854 39.6293 8.14021C39.6983 8.08187 39.7463 8.00251 39.7658 7.91431C39.7844 7.83046 39.7907 7.7435 39.8031 7.65965C39.89 6.88117 39.9779 6.10373 40.0669 5.32732C40.1228 4.82421 40.1849 4.32421 40.2345 3.8242C40.2506 3.75694 40.2501 3.68679 40.2332 3.61975C40.2163 3.55271 40.1834 3.49076 40.1373 3.4392C40.0913 3.38764 40.0334 3.34799 39.9687 3.32363C39.904 3.29928 39.8344 3.29095 39.7658 3.29935C39.6417 3.29003 39.4989 3.29624 39.3623 3.29624L39.3716 3.28693ZM46.6849 9.03234C46.6104 8.79631 46.5204 8.47953 46.4087 8.16587C46.3947 8.10117 46.3655 8.04072 46.3237 7.98945C46.2818 7.93818 46.2285 7.89755 46.1679 7.87089C46.1073 7.84423 46.0413 7.8323 45.9753 7.83607C45.9092 7.83983 45.845 7.8592 45.7878 7.89257C44.5752 8.43916 43.3635 8.98989 42.1529 9.54476C42.1006 9.56288 42.0523 9.59119 42.011 9.62808C41.9696 9.66496 41.936 9.70967 41.9121 9.75963C41.8881 9.80959 41.8743 9.86381 41.8714 9.91915C41.8685 9.97449 41.8766 10.0299 41.8953 10.082C41.935 10.1815 42.0107 10.2624 42.1074 10.3084C42.2041 10.3545 42.3145 10.3624 42.4168 10.3305L44.2296 9.96402L46.2845 9.54166C46.4025 9.5269 46.5099 9.46604 46.5831 9.37235C46.6564 9.27867 46.6897 9.15978 46.6756 9.04165L46.6849 9.03234ZM36.8697 9.93918C36.8712 9.85592 36.847 9.77423 36.8003 9.70529C36.7536 9.63634 36.6868 9.58353 36.6089 9.55408C35.3859 8.99507 34.1629 8.43606 32.9367 7.88636C32.8828 7.85516 32.8225 7.83677 32.7603 7.83259C32.6982 7.82842 32.636 7.83858 32.5784 7.86228C32.5208 7.88599 32.4694 7.92261 32.4282 7.96932C32.387 8.01603 32.3571 8.07159 32.3407 8.1317C32.2352 8.41742 32.1514 8.71246 32.0676 9.00438C32.0394 9.08067 32.0379 9.16423 32.0633 9.24147C32.0887 9.31872 32.1394 9.38511 32.2073 9.42986C32.3207 9.49532 32.4446 9.54051 32.5735 9.5634L34.2467 9.90812C34.9482 10.051 35.6497 10.1969 36.3513 10.3336C36.4107 10.3497 36.4731 10.352 36.5336 10.3403C36.5941 10.3286 36.6511 10.3031 36.7002 10.266C36.7494 10.2288 36.7893 10.1808 36.8171 10.1258C36.8449 10.0708 36.8597 10.0101 36.8604 9.94849L36.8697 9.93918ZM37.9809 13.4113C37.9927 13.3204 37.9738 13.2282 37.9271 13.1494C37.8804 13.0706 37.8086 13.0097 37.7233 12.9765C37.636 12.9427 37.54 12.9388 37.4502 12.9651C37.3604 12.9915 37.2818 13.0468 37.2266 13.1224C36.3533 14.0769 35.4821 15.0314 34.613 15.9858C34.562 16.0293 34.5221 16.0842 34.4966 16.1461C34.471 16.208 34.4605 16.275 34.466 16.3418C34.4715 16.4085 34.4927 16.473 34.528 16.5299C34.5632 16.5868 34.6115 16.6345 34.6688 16.6691C34.8737 16.8306 35.0817 16.9796 35.2897 17.1256C35.3413 17.1769 35.4052 17.2141 35.4753 17.2339C35.5453 17.2536 35.6193 17.2552 35.6901 17.2384C35.7609 17.2216 35.8263 17.187 35.8801 17.138C35.9338 17.0889 35.9742 17.0269 35.9974 16.9579C36.6306 15.8461 37.2608 14.7343 37.8878 13.6225C37.9212 13.5576 37.9493 13.4901 37.9716 13.4206L37.9809 13.4113ZM41.1813 12.9175C41.1139 12.9195 41.0479 12.9372 40.9885 12.9691C40.9292 13.0011 40.878 13.0464 40.8392 13.1016C40.8003 13.1567 40.7749 13.2201 40.7647 13.2868C40.7546 13.3535 40.7601 13.4216 40.7809 13.4858C40.8087 13.5601 40.843 13.6318 40.8833 13.7001C41.3696 14.5572 41.8559 15.4154 42.3423 16.2747C42.4757 16.5107 42.6061 16.7467 42.7458 16.9796C42.7698 17.0429 42.8088 17.0994 42.8596 17.1441C42.9103 17.1889 42.9712 17.2206 43.0369 17.2365C43.1027 17.2524 43.1713 17.252 43.2369 17.2354C43.3024 17.2188 43.3629 17.1864 43.4132 17.1411C43.6367 16.9889 43.8602 16.8306 44.0744 16.666C44.1301 16.6317 44.1771 16.5849 44.2115 16.5292C44.2459 16.4736 44.2668 16.4106 44.2726 16.3454C44.2783 16.2802 44.2687 16.2146 44.2445 16.1537C44.2203 16.0929 44.1823 16.0386 44.1333 15.9951C43.2549 15.0293 42.3764 14.0634 41.4886 13.1069C41.3922 13.032 41.2856 12.9714 41.172 12.9268L41.1813 12.9175ZM40.607 10.8056C40.607 10.56 40.5342 10.3198 40.3978 10.1155C40.2614 9.9112 40.0674 9.75198 39.8406 9.65796C39.6137 9.56394 39.364 9.53933 39.1232 9.58727C38.8823 9.6352 38.6611 9.75351 38.4874 9.92724C38.3138 10.101 38.1955 10.3223 38.1476 10.5633C38.0997 10.8043 38.1243 11.054 38.2182 11.281C38.3122 11.508 38.4714 11.702 38.6756 11.8385C38.8798 11.975 39.1198 12.0479 39.3654 12.0479C39.6915 12.0455 40.0035 11.9148 40.2341 11.6841C40.4647 11.4534 40.5953 11.1412 40.5977 10.815L40.607 10.8056Z" fill="#FFD109"/>
</svg>
