<svg width="1256" height="187" viewBox="0 0 1256 187" fill="none" xmlns="http://www.w3.org/2000/svg">
<path d="M516.299 41.4999C506.599 41.4999 497.099 44.1999 488.899 49.1999C483.899 52.1999 479.5 55.8999 475.6 60.1999C472.6 55.9999 468.8 52.3999 464.5 49.4999C456.6 44.1999 447.2 41.3999 437.7 41.3999C426.6 41.3999 416.599 44.4999 407.799 50.5999V44.4999H374.1V169.1C374.1 175.5 379.199 180.6 385.399 180.6H407.899V121.5C407.899 104.1 409.799 95.9999 411.299 92.1999C413.299 87.1999 416.8 82.8999 421.2 79.7999C425.6 76.6999 430 75.1999 434.7 75.1999C439.2 75.1999 442.8 76.1999 445.6 78.4999C448.3 80.5999 450.199 83.5999 450.899 86.9999C451.599 90.1999 452.5 96.9999 452.5 111.1V169.1C452.5 175.5 457.599 180.6 463.799 180.6H486V125.1C486 111.2 487.1 100.7 489.1 93.8999C490.9 87.9999 494 83.4999 498.5 80.0999C503 76.6999 507.7 75.0999 512.7 75.0999C517.6 75.0999 521.3 76.0999 524 78.2999C526.6 80.2999 528.4 82.9999 529.2 86.1999C529.9 89.0999 530.7 94.9999 530.7 107.1V169.1C530.7 175.5 535.8 180.6 542 180.6H564.899V107.1C564.899 82.2999 560.2 65.5999 550.6 55.7999C541.3 46.2999 529.699 41.4999 516.299 41.4999Z" fill="#2C60F2"/>
<path d="M681.299 52.0999C670.899 44.9999 659.099 41.3999 645.899 41.3999C626.499 41.3999 609.799 48.2999 596.399 61.8999C582.899 75.3999 576.1 91.8999 576.1 110.9C576.1 129.9 582.8 146.3 596.2 160C609.6 173.7 625.999 180.7 644.899 180.7C658.099 180.7 670.299 176.9 681.299 169.3C681.299 173.5 684.699 176.8 688.899 176.8H714.799V44.4999H681.299V52.0999ZM671.5 137.9C664.3 145 656 148.4 646.2 148.4C636.2 148.4 627.9 144.8 620.7 137.4C613.5 130 610 121.4 610 111.3C610 101.2 613.4 92.5999 620.6 85.1999C627.6 77.7999 635.9 74.2999 646.1 74.2999C656.2 74.2999 664.7 77.6999 671.6 84.7999C678.6 91.9999 682.1 100.6 682.1 111.4C682.1 122.2 678.7 130.9 671.5 137.9Z" fill="#2C60F2"/>
<path d="M834.599 130.8C824.799 142.7 813.299 148.4 799.199 148.4C787.599 148.4 778.399 144.8 770.899 137.3C763.399 129.8 759.799 121 759.799 110.5C759.799 100.1 763.499 91.6999 770.899 84.6999C778.499 77.5999 787.799 74.1999 799.199 74.1999C813.699 74.1999 825.199 79.8999 834.199 91.3999L838.599 97.0999L865.399 80.2999L861.299 73.6999C855.099 63.4999 846.099 55.1999 835.299 49.7999C824.399 44.1999 812.399 41.3999 799.699 41.3999C778.099 41.3999 760.199 48.3999 746.399 61.9999C732.699 75.5999 725.699 92.2999 725.699 111.6C725.699 130.8 732.699 147.3 746.399 160.7C760.099 174 777.299 180.7 797.599 180.7C810.399 180.7 822.499 178.1 833.599 172.9C844.699 167.7 854.199 159.7 861.099 149.7L865.599 143.2L845.199 129.3C841.899 127 837.299 127.6 834.599 130.8Z" fill="#2C60F2"/>
<path d="M946.499 41.5001C933.199 41.5001 920.999 45.1001 910.299 52.2001V0.600098H876.799V165.7C876.799 171.9 881.899 176.9 888.099 176.9H910.299V169.3C920.699 176.8 933.299 180.8 946.099 180.7C965.199 180.7 981.799 173.8 995.199 160.2C1008.7 146.6 1015.5 130 1015.5 111C1015.5 92.0001 1008.8 75.5001 995.599 62.0001C982.399 48.3001 965.899 41.5001 946.499 41.5001ZM970.899 136.8C963.799 144.2 955.499 147.8 945.399 147.8C935.299 147.8 926.999 144.3 919.999 137C912.899 129.6 909.399 120.8 909.399 110.1C909.399 99.4001 912.799 90.9001 919.799 83.9001C926.799 76.9001 935.199 73.6001 945.699 73.6001C955.999 73.6001 964.399 77.2001 971.199 84.5001C978.199 92.0001 981.599 100.7 981.599 110.7C981.599 120.7 978.099 129.3 970.899 136.8Z" fill="#2C60F2"/>
<path d="M1130.7 121.7H1164.4L1164.2 113.6C1163.7 91.7 1156.9 74 1143.9 61C1130.9 48 1114.4 41.5 1095.2 41.5C1075.8 41.5 1059.3 48.5 1046.2 62.1C1033.2 75.7 1026.6 92.2 1026.6 111.2C1026.6 130.2 1033.2 146.6 1046.1 160.2C1059.1 173.8 1075.9 180.7 1095.9 180.7C1110.3 180.7 1122.9 177.3 1133.4 170.6C1143.7 164 1152.6 153.8 1160 140.4L1136.7 131.8C1132.3 130.2 1127.2 131.2 1124.1 134.8C1116.3 143.9 1106.6 148.4 1094.5 148.4C1085.5 148.4 1077.9 145.3 1071.4 139C1066.6 134.3 1063.4 128.6 1061.8 121.6L1130.7 121.7ZM1096.8 73.2C1112.6 73.2 1126.6 83.3 1131.4 98.1H1062.2C1067 83.3 1081 73.2 1096.8 73.2Z" fill="#2C60F2"/>
<path d="M1255.5 43.2003C1251.8 42.6003 1248.1 42.4003 1244.4 42.3003C1232.1 42.3003 1220.8 45.5003 1210.9 51.8003C1210.2 52.2003 1209.6 52.7003 1209 53.1003V45.3003H1175.5V169.2C1175.5 175.4 1180.5 180.6 1186.9 180.6H1208.4V112.8C1208.4 111.8 1208.4 110.7 1208.6 109.7V109.6C1208.9 107.1 1209.4 104.6 1210.1 102.2C1212.8 92.0003 1220.2 78.0003 1239.8 76.1003L1255.8 43.1003C1255.6 43.2003 1255.6 43.2003 1255.5 43.2003Z" fill="#2C60F2"/>
<path d="M204.7 43.6998C190.1 33.7998 170.099 37.3998 159.899 51.7998L100.499 136.5C90.3994 151 94.0995 170.8 108.599 180.8C123.199 190.8 143.299 187.2 153.399 172.8L212.799 87.9998C222.899 73.4998 219.3 53.6998 204.7 43.6998Z" fill="#2C60F2"/>
<path d="M110.5 42.2C95.9002 32.2 75.8001 35.8 65.7001 50.2L6.30023 135C-3.79977 149.5 -0.0999117 169.3 14.4001 179.3C29.0001 189.3 49.1001 185.7 59.2001 171.3L118.6 86.5C128.7 72 125.1 52.2 110.5 42.2Z" fill="#2C60F2"/>
<path d="M244.1 115.8L270 152.9C279.9 167.1 269.7 186.5 252.5 186.5H226.6H200.7C183.4 186.5 173.3 167.1 183.2 152.9L209.1 115.8C217.6 103.6 235.6 103.6 244.1 115.8Z" fill="#2C60F2"/>
</svg>
