<svg width="32" height="32" viewBox="0 0 32 32" fill="none" xmlns="http://www.w3.org/2000/svg">
<g id="mdi:building">
<path id="Vector" d="M23.9998 20H21.3332V22.6667H23.9998M23.9998 14.6667H21.3332V17.3333H23.9998M26.6665 25.3333H15.9998V22.6667H18.6665V20H15.9998V17.3333H18.6665V14.6667H15.9998V12H26.6665M13.3332 9.33333H10.6665V6.66667H13.3332M13.3332 14.6667H10.6665V12H13.3332M13.3332 20H10.6665V17.3333H13.3332M13.3332 25.3333H10.6665V22.6667H13.3332M7.99984 9.33333H5.33317V6.66667H7.99984M7.99984 14.6667H5.33317V12H7.99984M7.99984 20H5.33317V17.3333H7.99984M7.99984 25.3333H5.33317V22.6667H7.99984M15.9998 9.33333V4H2.6665V28H29.3332V9.33333H15.9998Z" fill="#102EA8"/>
</g>
</svg>
