<svg width="66" height="64" viewBox="0 0 66 64" fill="none" xmlns="http://www.w3.org/2000/svg">
<path fill-rule="evenodd" clip-rule="evenodd" d="M52.502 19.9688H13.5966C12.6762 19.9688 11.9292 20.7038 11.9292 21.6094V44.5781C11.9292 45.4837 12.6762 46.2188 13.5966 46.2188H52.502C53.4224 46.2188 54.1693 45.4837 54.1693 44.5781V21.6094C54.1693 20.7038 53.4224 19.9688 52.502 19.9688ZM27.0034 37.6995C27.6548 37.0586 27.6548 36.0195 27.0034 35.3797L24.6802 33.0938L27.0034 30.8089C27.6548 30.168 27.6548 29.1289 27.0034 28.4891C26.352 27.8481 25.296 27.8481 24.6446 28.4891L21.1431 31.9344C20.4928 32.5742 20.4928 33.6133 21.1431 34.2542L24.6446 37.6995C24.9703 38.02 25.3971 38.1797 25.824 38.1797C26.2508 38.1797 26.6777 38.02 27.0034 37.6995ZM33.1049 39.5119L36.2251 27.4872C36.4529 26.61 35.9138 25.7164 35.0223 25.4922C34.1274 25.2623 33.2131 25.8117 32.9937 26.6756L29.8735 38.7003C29.6456 39.5775 30.1847 40.4711 31.0762 40.6953C31.9444 40.9263 32.8905 40.3813 33.1049 39.5119ZM41.454 37.6995L44.9554 34.2542C45.6057 33.6133 45.6057 32.5742 44.9554 31.9333L41.454 28.488C40.8026 27.8481 39.7466 27.8481 39.0952 28.488C38.4449 29.1289 38.4449 30.168 39.0952 30.8089L41.4184 33.0938L39.0952 35.3786C38.4449 36.0195 38.4449 37.0586 39.0952 37.6995C39.4209 38.02 39.8477 38.1797 40.2746 38.1797C40.7014 38.1797 41.1283 38.02 41.454 37.6995Z" fill="#3B53C9" fill-opacity="0.6"/>
<path d="M49.9453 8.4625C49.9453 6.00156 47.9111 4 45.4101 4H20.6885C18.1874 4 16.1532 6.00156 16.1532 8.4625V10.1195H49.9453V8.4625Z" fill="#3B53C9" fill-opacity="0.6"/>
<path fill-rule="evenodd" clip-rule="evenodd" d="M16.1532 55.5375C16.1532 57.9984 18.1874 60 20.6885 60H45.4101C47.9111 60 49.9453 57.9984 49.9453 55.5375V49.5H16.1532V55.5375ZM35.8838 52.3438H30.2147C29.2943 52.3438 28.5474 53.0788 28.5474 53.9844C28.5474 54.89 29.2943 55.625 30.2147 55.625H35.8838C36.8042 55.625 37.5512 54.89 37.5512 53.9844C37.5512 53.0788 36.8042 52.3438 35.8838 52.3438Z" fill="#3B53C9" fill-opacity="0.6"/>
<path d="M16.1532 13.4008H49.9453V16.6875H16.1532V13.4008Z" fill="#3B53C9" fill-opacity="0.6"/>
</svg>
