<svg width="32" height="32" viewBox="0 0 32 32" fill="none" xmlns="http://www.w3.org/2000/svg">
<path d="M9.6 16H28.8C29.6833 16 30.4375 16.2202 31.0625 16.6607C31.6875 17.1012 32 17.6429 32 18.2857C32 18.9286 31.6833 19.4702 31.05 19.9107C30.4167 20.3512 29.6667 20.5714 28.8 20.5714H27.6L28.1 31.4286C28.1167 31.5833 28.0458 31.7173 27.8875 31.8304C27.7292 31.9435 27.5417 32 27.325 32H25.6C25.4 32 25.225 31.9435 25.075 31.8304C24.925 31.7173 24.8417 31.5833 24.825 31.4286L24.375 20.5714H11.2L8.65 31.4464C8.56667 31.8155 8.30833 32 7.875 32H6.025C5.80833 32 5.62083 31.9435 5.4625 31.8304C5.30417 31.7173 5.23333 31.5893 5.25 31.4464L7.625 20.5714C7.55833 20.5476 7.19167 20.5149 6.525 20.4732C5.85833 20.4315 5.30417 20.2738 4.8625 20C4.42083 19.7262 4.06667 19.25 3.8 18.5714C3.53333 17.869 3.3125 16.9762 3.1375 15.8929C2.9625 14.8095 2.79583 13.4911 2.6375 11.9375C2.47917 10.3839 2.36667 9.3631 2.3 8.875C2.21667 8.20833 1.8125 7.15774 1.0875 5.72321C0.3625 4.28869 0 3.14286 0 2.28571C0 1.7381 0.2625 1.22024 0.7875 0.732143C1.3125 0.244048 2.11667 0 3.2 0C4.18333 0 4.91667 0.223214 5.4 0.669643C5.88333 1.11607 6.325 1.80952 6.725 2.75C8.24167 6.29762 9.2 10.7143 9.6 16Z" fill="#0E4FE3"/>
</svg>
