<svg width="64" height="65" viewBox="0 0 64 65" fill="none" xmlns="http://www.w3.org/2000/svg">
<circle cx="32" cy="32" r="31.25" transform="matrix(-1 0 0 1 64 0.00317383)" fill="#F9F9FC" stroke="#0E4FE3" stroke-width="1.5"/>
<path d="M14.9393 33.0638C14.3536 32.4781 14.3536 31.5283 14.9393 30.9425L24.4853 21.3966C25.0711 20.8108 26.0208 20.8108 26.6066 21.3966C27.1924 21.9824 27.1924 22.9321 26.6066 23.5179L18.1213 32.0032L26.6066 40.4885C27.1924 41.0742 27.1924 42.024 26.6066 42.6098C26.0208 43.1956 25.0711 43.1956 24.4853 42.6098L14.9393 33.0638ZM48 33.5032L16 33.5032L16 30.5032L48 30.5032L48 33.5032Z" fill="#0E4FE3"/>
</svg>
