<svg width="64" height="64" viewBox="0 0 64 64" fill="none" xmlns="http://www.w3.org/2000/svg">
<path opacity="0.6" d="M42.512 39.4692L38.7858 42.6772C38.2124 43.1745 37.8595 43.8788 37.8042 44.6357C37.7489 45.3927 37.9959 46.1408 38.4909 46.7161L38.7769 47.0468L48.8117 58.6632L49.1155 59.0028C49.3596 59.2882 49.6578 59.5225 49.9927 59.6923C50.3277 59.8622 50.6929 59.9641 51.0674 59.9923C51.4419 60.0206 51.8183 59.9745 52.1749 59.8568C52.5315 59.7392 52.8614 59.5522 53.1456 59.3066L57.0058 55.9557C57.2912 55.7116 57.5255 55.4135 57.6953 55.0785C57.8652 54.7435 57.9671 54.3783 57.9954 54.0038C58.0236 53.6293 57.9775 53.253 57.8599 52.8963C57.7422 52.5397 57.5552 52.2098 57.3096 51.9257L57.0058 51.5772L46.9709 39.9607L46.6761 39.6301C46.4325 39.3448 46.1345 39.1108 45.7996 38.9418C45.4648 38.7727 45.0996 38.6719 44.7254 38.6453C44.3512 38.6187 43.9754 38.6668 43.62 38.7868C43.2645 38.9067 42.9365 39.0962 42.655 39.3441L42.512 39.4692ZM25.4269 4.00146C36.6278 4.16051 44.4466 13.493 44.3215 23.4519C44.2607 28.2388 42.3467 32.6379 39.4292 35.9039L41.7078 38.388L37.9101 41.6585L37.9012 41.6674L35.6851 39.1386C32.5579 41.203 28.8925 42.3015 25.1454 42.2974C14.4707 42.2947 5.99428 33.6163 5.99964 23.1481C6.0059 12.4073 14.8121 3.85134 25.4269 4.00146ZM25.1498 38.6382C33.5405 38.6382 40.3317 31.8381 40.3317 23.4474C40.3317 15.0657 33.5405 8.2656 25.1498 8.2656C16.7592 8.2656 9.95907 15.0657 9.95907 23.4474C9.95907 31.8381 16.7592 38.6382 25.1498 38.6382Z" fill="#3B53C9"/>
<path opacity="0.6" d="M31.7802 15.1284H29.0012V19.355C29.0012 20.7311 27.5715 21.6604 26.3116 21.0707L25.1499 20.5345L23.9972 21.0707C22.6658 21.6694 21.2986 20.6775 21.2986 19.355V15.1284H18.5196C17.0809 15.1284 15.9282 16.2901 15.9282 17.7198V29.1844C15.9282 30.6141 17.0809 31.7757 18.5196 31.7757H31.7802C33.21 31.7757 34.3716 30.6141 34.3716 29.1844V17.7198C34.3716 16.2901 33.21 15.1284 31.7802 15.1284ZM22.2905 29.0682H18.7698C18.3945 29.0682 18.0996 28.7733 18.0996 28.398C18.0996 28.0316 18.3945 27.7278 18.7698 27.7278H22.2905C22.4682 27.7278 22.6387 27.7984 22.7644 27.9241C22.89 28.0498 22.9607 28.2203 22.9607 28.398C22.9607 28.5757 22.89 28.7462 22.7644 28.8719C22.6387 28.9976 22.4682 29.0682 22.2905 29.0682ZM24.2027 26.3696H18.7698C18.3945 26.3696 18.0996 26.0658 18.0996 25.6994C18.0996 25.3241 18.3945 25.0292 18.7698 25.0292H24.2027C24.578 25.0292 24.8729 25.3241 24.8729 25.6994C24.8729 26.0658 24.578 26.3696 24.2027 26.3696Z" fill="#3B53C9"/>
<path opacity="0.6" d="M27.6619 15.1309V19.353C27.6618 19.4464 27.6383 19.5382 27.5934 19.6201C27.5485 19.702 27.4837 19.7712 27.405 19.8214C27.3263 19.8717 27.2362 19.9013 27.143 19.9075C27.0499 19.9137 26.9566 19.8963 26.8719 19.857L25.3841 19.1662C25.3108 19.1322 25.2309 19.1145 25.15 19.1145C25.0691 19.1145 24.9893 19.1322 24.9159 19.1662L23.4281 19.857C23.3434 19.8963 23.2502 19.9137 23.157 19.9075C23.0639 19.9013 22.9738 19.8717 22.895 19.8214C22.8163 19.7712 22.7515 19.702 22.7066 19.6201C22.6617 19.5382 22.6382 19.4464 22.6382 19.353V15.1309H27.6619Z" fill="#3B53C9"/>
</svg>
