<svg width="64" height="64" viewBox="0 0 64 64" fill="none" xmlns="http://www.w3.org/2000/svg">
<g opacity="0.6">
<path d="M56.1537 47.4615L52.6827 45.2441C52.565 45.168 52.4818 45.0487 52.4512 44.9119C52.4206 44.7751 52.4449 44.6318 52.5189 44.5128C58.2187 35.1481 56.7758 22.8384 48.982 15.0445C41.0535 7.11607 28.4737 5.73254 19.0563 11.7467L20.0323 13.2761C20.0885 13.3641 20.119 13.466 20.1206 13.5704C20.1221 13.6748 20.0946 13.7776 20.0411 13.8672C19.9876 13.9569 19.9102 14.0299 19.8175 14.0781C19.7249 14.1263 19.6207 14.1477 19.5166 14.1401L11.8686 13.5716C11.7811 13.5652 11.6964 13.5384 11.6212 13.4934C11.5459 13.4484 11.4822 13.3865 11.4351 13.3125C11.388 13.2386 11.3589 13.1547 11.35 13.0674C11.3411 12.9802 11.3527 12.8921 11.3839 12.8102L14.1001 5.64878C14.1371 5.55105 14.2005 5.46555 14.2834 5.40186C14.3662 5.33816 14.4652 5.29879 14.5691 5.28814C14.6731 5.27749 14.7779 5.29599 14.8719 5.34156C14.966 5.38714 15.0455 5.45799 15.1015 5.54619L16.2573 7.36548C27.7029 0.0299532 43.0196 1.7156 52.6657 11.3617C62.1594 20.8657 63.909 35.8869 56.9133 47.2892C56.8748 47.3507 56.8246 47.4039 56.7655 47.4458C56.7063 47.4877 56.6395 47.5176 56.5689 47.5336C56.4982 47.5496 56.425 47.5514 56.3536 47.5391C56.2822 47.5267 56.2149 47.5003 56.1537 47.4615Z" fill="#3B53C9"/>
</g>
<path opacity="0.6" d="M50.466 34.1308V29.8767C50.4658 29.6634 50.3906 29.4571 50.2537 29.2936C50.1167 29.1302 49.9267 29.0201 49.7168 28.9825L46.7672 28.4574C46.4001 26.9515 45.8166 25.4456 44.9224 24.0621L46.6504 21.5896C46.7728 21.4146 46.8297 21.2022 46.8111 20.9895C46.7925 20.7768 46.6996 20.5774 46.5488 20.4263L43.569 17.4475C43.4181 17.2967 43.219 17.2039 43.0065 17.1851C42.794 17.1664 42.5817 17.2229 42.4067 17.3449L39.9436 19.0644C38.5695 18.1891 37.0542 17.615 35.5577 17.2385L35.0241 14.2795C34.9863 14.0696 34.876 13.8797 34.7124 13.7429C34.5488 13.6061 34.3423 13.5312 34.129 13.5313L29.8683 13.5388C29.6558 13.5393 29.4502 13.6142 29.2872 13.7506C29.1242 13.8869 29.0142 14.0761 28.9761 14.2851L28.4424 17.2291C26.9366 17.6056 25.4589 18.2174 24.0848 19.0738L21.5935 17.328C21.4186 17.2055 21.2063 17.1485 20.9936 17.1669C20.7809 17.1853 20.5814 17.278 20.4302 17.4287L17.4467 20.4037C17.2967 20.5537 17.2038 20.7515 17.1842 20.9627C17.1646 21.1739 17.2195 21.3854 17.3394 21.5604L19.0683 24.0903C18.2307 25.455 17.6189 26.9044 17.2425 28.4291L14.2872 28.9703C14.0784 29.0088 13.8897 29.119 13.7538 29.282C13.6178 29.4449 13.5431 29.6503 13.5427 29.8625L13.5352 34.1204C13.5352 34.5628 13.8523 34.9411 14.2881 35.0164L17.2622 35.5341C17.6199 37.0494 18.2401 38.527 19.0777 39.9294L17.3582 42.3924C17.2361 42.5676 17.1796 42.7802 17.1985 42.9929C17.2174 43.2056 17.3106 43.4048 17.4617 43.5557L20.4396 46.5345C20.5908 46.6856 20.7903 46.7786 21.0032 46.7972C21.2162 46.8158 21.4288 46.7588 21.6039 46.6362L24.0848 44.8997C25.4777 45.7656 26.9648 46.3868 28.4801 46.7444L28.9902 49.7072C29.0655 50.143 29.4439 50.4621 29.8862 50.4621H34.1366C34.578 50.4621 34.9554 50.1458 35.0316 49.711L35.5587 46.735C37.0636 46.3585 38.5413 45.7656 39.9069 44.928L42.4086 46.639C42.769 46.8856 43.2556 46.8404 43.5643 46.5308L46.5479 43.5473C46.6992 43.3963 46.7926 43.1969 46.8115 42.984C46.8304 42.7711 46.7737 42.5583 46.6514 42.383L44.9224 39.9115C45.7695 38.5374 46.3813 37.0503 46.7483 35.5444L49.713 35.0268C50.1488 34.9505 50.466 34.5731 50.466 34.1308ZM38.3624 38.3397C34.8519 41.8691 29.1483 41.8409 25.6566 38.3397C22.1554 34.8385 22.1272 29.135 25.6472 25.6244C29.1295 22.1421 34.8519 22.1421 38.353 25.6432C41.8542 29.135 41.8542 34.8574 38.3624 38.3397Z" fill="#3B53C9"/>
<path opacity="0.6" d="M52.7963 51.4888L50.2203 58.7057C50.1853 58.8039 50.1237 58.8904 50.0424 58.9557C49.9611 59.0209 49.8632 59.0622 49.7598 59.0751C49.6563 59.088 49.5513 59.0719 49.4565 59.0286C49.3617 58.9853 49.2807 58.9165 49.2227 58.83L47.7432 56.6248C36.2985 63.9613 21.0119 62.2963 11.3667 52.6605C1.8467 43.1311 0.0838761 28.1005 7.08435 16.701C7.12444 16.637 7.1768 16.5816 7.23841 16.5379C7.30003 16.4942 7.36967 16.4632 7.44334 16.4466C7.51701 16.4299 7.59324 16.4281 7.66764 16.441C7.74204 16.454 7.81313 16.4816 7.87682 16.5222L10.8575 18.4394C11.3611 18.7622 11.5013 19.4201 11.202 19.9377C5.81188 29.2412 7.35541 41.2836 15.0495 48.9768C22.9366 56.8638 35.4448 58.2587 44.8406 52.3067L44.0971 51.2036C44.0389 51.1168 44.0061 51.0155 44.0022 50.9111C43.9984 50.8067 44.0236 50.7033 44.0752 50.6125C44.1268 50.5216 44.2026 50.4469 44.2943 50.3968C44.3859 50.3466 44.4897 50.3229 44.594 50.3283L52.2966 50.7368C52.6731 50.7575 52.9234 51.134 52.7963 51.4888Z" fill="#3B53C9"/>
</svg>
