<svg width="56" height="56" viewBox="0 0 56 56" fill="none" xmlns="http://www.w3.org/2000/svg">
<g id="Twiter">
<circle id="Ellipse 2" cx="28" cy="28" r="28" fill="#55ACEE"/>
<path id="Vector" d="M46.6674 16.9307C45.3326 17.4977 43.8801 17.9057 42.3839 18.0647C43.9373 17.1559 45.1005 15.7202 45.6554 14.027C44.1978 14.8809 42.6009 15.4796 40.9357 15.7967C40.2397 15.064 39.398 14.4803 38.4629 14.082C37.5278 13.6837 36.5195 13.4792 35.5006 13.4815C31.3785 13.4815 28.0634 16.7718 28.0634 20.8094C28.0634 21.3764 28.1332 21.9434 28.2466 22.489C22.0744 22.1711 16.5695 19.2674 12.9098 14.8216C12.2429 15.9432 11.8935 17.2203 11.8978 18.52C11.8978 21.0629 13.2108 23.3051 15.2129 24.6238C14.033 24.578 12.8807 24.2587 11.8498 23.6917V23.7819C11.8498 27.3428 14.406 30.2937 17.8127 30.9724C17.173 31.136 16.515 31.2197 15.8541 31.2215C15.37 31.2215 14.9119 31.1743 14.4496 31.1099C15.3918 34.0136 18.1355 36.1226 21.4026 36.1913C18.8465 38.1629 15.6448 39.3227 12.1682 39.3227C11.5445 39.3227 10.9687 39.3012 10.3711 39.2325C13.6688 41.3158 17.5815 42.5185 21.7952 42.5185C35.4745 42.5185 42.9597 31.359 42.9597 21.6728C42.9597 21.355 42.9597 21.0371 42.9379 20.7192C44.3861 19.6755 45.6554 18.3825 46.6674 16.9307Z" fill="white"/>
</g>
</svg>
