<svg width="24" height="20" viewBox="0 0 24 20" fill="none" xmlns="http://www.w3.org/2000/svg">
<path d="M24 2.35136C23.1075 2.75013 22.1565 3.01445 21.165 3.14279C22.185 2.52248 22.9635 1.54771 23.3295 0.372796C22.3785 0.950324 21.3285 1.35826 20.2095 1.58591C19.3065 0.606557 18.0195 0 16.6155 0C13.8915 0 11.6985 2.25205 11.6985 5.01288C11.6985 5.41012 11.7315 5.79208 11.8125 6.15571C7.722 5.95251 4.1025 3.95561 1.671 0.913655C1.2465 1.66383 0.9975 2.52248 0.9975 3.44683C0.9975 5.18247 1.875 6.72102 3.183 7.61176C2.3925 7.59648 1.617 7.36272 0.96 6.9945C0.96 7.00978 0.96 7.02964 0.96 7.04951C0.96 9.4849 2.6655 11.5078 4.902 11.9738C4.5015 12.0853 4.065 12.1388 3.612 12.1388C3.297 12.1388 2.979 12.1204 2.6805 12.0532C3.318 14.0379 5.127 15.497 7.278 15.5444C5.604 16.8782 3.4785 17.6818 1.1775 17.6818C0.774 17.6818 0.387 17.6635 0 17.6131C2.1795 19.0447 4.7625 19.8621 7.548 19.8621C16.602 19.8621 21.552 12.2228 21.552 5.6011C21.552 5.37956 21.5445 5.16567 21.534 4.95329C22.5105 4.24743 23.331 3.36586 24 2.35136Z" fill="white"/>
</svg>
