<svg width="56" height="56" viewBox="0 0 56 56" fill="none" xmlns="http://www.w3.org/2000/svg">
<circle cx="28" cy="28" r="28" fill="black"/>
<path d="M44 17.9697C42.8232 18.4579 41.5426 18.8092 40.2235 18.946C41.593 18.1636 42.6186 16.9275 43.1078 15.4697C41.8227 16.2049 40.4149 16.7204 38.9468 16.9934C38.3332 16.3625 37.591 15.86 36.7666 15.5171C35.9423 15.1741 35.0532 14.9981 34.155 15C30.5209 15 27.5981 17.8329 27.5981 21.3092C27.5981 21.7973 27.6597 22.2855 27.7596 22.7552C22.318 22.4815 17.4647 19.9815 14.2382 16.1539C13.6503 17.1195 13.3422 18.219 13.346 19.338C13.346 21.5274 14.5035 23.4579 16.2687 24.5932C15.2285 24.5538 14.2126 24.2788 13.3037 23.7907V23.8684C13.3037 26.9342 15.5573 29.4749 18.5608 30.0592C17.9968 30.2 17.4167 30.2721 16.834 30.2737C16.4072 30.2737 16.0034 30.233 15.5957 30.1775C16.4264 32.6775 18.8453 34.4933 21.7258 34.5525C19.4722 36.25 16.6494 37.2485 13.5844 37.2485C13.0345 37.2485 12.5269 37.23 12 37.1709C14.9073 38.9645 18.3569 40 22.0719 40C34.132 40 40.7312 30.392 40.7312 22.0525C40.7312 21.7789 40.7312 21.5052 40.7119 21.2315C41.9887 20.3329 43.1078 19.2197 44 17.9697Z" fill="white"/>
</svg>
