<svg width="64" height="64" viewBox="0 0 64 64" fill="none" xmlns="http://www.w3.org/2000/svg">
<rect width="64" height="64" fill="#C9C9C9"/>
<g id="Services" clip-path="url(#clip0_0_1)">
<rect width="1440" height="4060" transform="translate(-156 -1456)" fill="white"/>
<g id="Group 1000001273">
<rect id="Background" x="-57" y="-56" width="397" height="424" rx="20" fill="#F9F9FC"/>
</g>
<g id="Frame">
<g id="Group">
<g id="Ui Ux">
<g id="Group_2">
<path id="Union" opacity="0.6" fill-rule="evenodd" clip-rule="evenodd" d="M21.5 44.25V56.5H56.5V30.25H21.5V44.25ZM11 46H18V58.25C18 58.7141 18.1844 59.1592 18.5126 59.4874C18.8408 59.8156 19.2859 60 19.75 60H58.25C58.7141 60 59.1592 59.8156 59.4874 59.4874C59.8156 59.1592 60 58.7141 60 58.25V28.5C60 28.0359 59.8156 27.5908 59.4874 27.2626C59.1592 26.9344 58.7141 26.75 58.25 26.75H19.75C19.2859 26.75 18.8408 26.9344 18.5126 27.2626C18.1844 27.5908 18 28.0359 18 28.5V42.5H11C10.0717 42.5 9.1815 42.1312 8.52513 41.4749C7.86875 40.8185 7.5 39.9283 7.5 39V11C7.5 10.0717 7.86875 9.1815 8.52513 8.52513C9.1815 7.86875 10.0717 7.5 11 7.5H28.5C29.4283 7.5 30.3185 7.86875 30.9749 8.52513C31.6313 9.1815 32 10.0717 32 11V21.5C32 21.9641 32.1844 22.4092 32.5126 22.7374C32.8407 23.0656 33.2859 23.25 33.75 23.25C34.2141 23.25 34.6593 23.0656 34.9874 22.7374C35.3156 22.4092 35.5 21.9641 35.5 21.5V11C35.5 9.14348 34.7625 7.36301 33.4497 6.05025C32.137 4.7375 30.3565 4 28.5 4H11C9.14348 4 7.36301 4.7375 6.05025 6.05025C4.7375 7.36301 4 9.14348 4 11V39C4 40.8565 4.7375 42.637 6.05025 43.9497C7.36301 45.2625 9.14348 46 11 46Z" fill="#3B53C9"/>
<path id="Vector" opacity="0.6" d="M16.25 23.25C14.8576 23.25 13.5223 22.6969 12.5377 21.7123C11.5531 20.7277 11 19.3924 11 18V12.75C11 12.2859 11.1844 11.8408 11.5126 11.5126C11.8408 11.1844 12.2859 11 12.75 11C13.2141 11 13.6592 11.1844 13.9874 11.5126C14.3156 11.8408 14.5 12.2859 14.5 12.75V18C14.5 18.4641 14.6844 18.9092 15.0126 19.2374C15.3408 19.5656 15.7859 19.75 16.25 19.75C16.7141 19.75 17.1592 19.5656 17.4874 19.2374C17.8156 18.9092 18 18.4641 18 18V12.75C18 12.2859 18.1844 11.8408 18.5126 11.5126C18.8408 11.1844 19.2859 11 19.75 11C20.2141 11 20.6592 11.1844 20.9874 11.5126C21.3156 11.8408 21.5 12.2859 21.5 12.75V18C21.5 19.3924 20.9469 20.7277 19.9623 21.7123C18.9777 22.6969 17.6424 23.25 16.25 23.25Z" fill="#3B53C9"/>
</g>
<path id="Vector_2" opacity="0.6" d="M30.25 46C28.8576 46 27.5223 45.4469 26.5377 44.4623C25.5531 43.4777 25 42.1424 25 40.75V35.5C25 35.0359 25.1844 34.5908 25.5126 34.2626C25.8408 33.9344 26.2859 33.75 26.75 33.75C27.2141 33.75 27.6592 33.9344 27.9874 34.2626C28.3156 34.5908 28.5 35.0359 28.5 35.5V40.75C28.5 41.2141 28.6844 41.6592 29.0126 41.9874C29.3408 42.3156 29.7859 42.5 30.25 42.5C30.7141 42.5 31.1592 42.3156 31.4874 41.9874C31.8156 41.6592 32 41.2141 32 40.75V35.5C32 35.0359 32.1844 34.5908 32.5126 34.2626C32.8408 33.9344 33.2859 33.75 33.75 33.75C34.2141 33.75 34.6592 33.9344 34.9874 34.2626C35.3156 34.5908 35.5 35.0359 35.5 35.5V40.75C35.5 42.1424 34.9469 43.4777 33.9623 44.4623C32.9777 45.4469 31.6424 46 30.25 46Z" fill="#3B53C9"/>
<path id="Vector_3" opacity="0.6" d="M26.75 23.25C26.2859 23.25 25.8408 23.0656 25.5126 22.7374C25.1844 22.4092 25 21.9641 25 21.5V12.75C25 12.2859 25.1844 11.8408 25.5126 11.5126C25.8408 11.1844 26.2859 11 26.75 11C27.2141 11 27.6592 11.1844 27.9874 11.5126C28.3156 11.8408 28.5 12.2859 28.5 12.75V21.5C28.5 21.9641 28.3156 22.4092 27.9874 22.7374C27.6592 23.0656 27.2141 23.25 26.75 23.25Z" fill="#3B53C9"/>
<path id="Union_2" opacity="0.6" fill-rule="evenodd" clip-rule="evenodd" d="M38.0738 45.7296C38.3512 45.9048 38.6722 45.9985 39.0003 46C39.2631 45.9988 39.5223 45.9384 39.7586 45.8233C39.995 45.7082 40.2023 45.5413 40.3653 45.335L42.5001 42.6665L44.6349 45.335C44.7979 45.5412 45.0052 45.7081 45.2415 45.8232C45.4778 45.9383 45.737 45.9988 45.9999 46C46.328 45.9985 46.649 45.9048 46.9264 45.7296C47.2037 45.5544 47.4263 45.3048 47.5686 45.0092C47.7109 44.7136 47.7673 44.3839 47.7313 44.0579C47.6953 43.7318 47.5683 43.4224 47.3649 43.165L44.7331 39.8752L47.3653 36.585C47.5316 36.4088 47.6595 36.2 47.7409 35.9717C47.8224 35.7435 47.8555 35.5008 47.8382 35.2591C47.8209 35.0174 47.7537 34.7819 47.6406 34.5675C47.5276 34.3532 47.3713 34.1646 47.1816 34.0138C46.9919 33.8631 46.7729 33.7533 46.5386 33.6916C46.3043 33.6298 46.0597 33.6174 45.8203 33.6551C45.5809 33.6928 45.352 33.7798 45.148 33.9107C44.944 34.0415 44.7694 34.2132 44.6353 34.415L42.5001 37.084L40.3649 34.415C40.0639 34.0961 39.6543 33.9019 39.217 33.8707C38.7797 33.8394 38.3466 33.9735 38.0034 34.2463C37.6602 34.5191 37.4318 34.9108 37.3636 35.3439C37.2954 35.7769 37.3922 36.2199 37.6349 36.585L40.2671 39.8752L37.6353 43.165C37.4319 43.4224 37.3049 43.7318 37.2689 44.0579C37.2329 44.384 37.2892 44.7136 37.4315 45.0092C37.5739 45.3048 37.7964 45.5544 38.0738 45.7296Z" fill="#3B53C9"/>
<path id="Vector_4" opacity="0.6" d="M30.25 53H26.75C26.2859 53 25.8408 52.8156 25.5126 52.4874C25.1844 52.1592 25 51.7141 25 51.25C25 50.7859 25.1844 50.3408 25.5126 50.0126C25.8408 49.6844 26.2859 49.5 26.75 49.5H30.25C30.7141 49.5 31.1592 49.6844 31.4874 50.0126C31.8156 50.3408 32 50.7859 32 51.25C32 51.7141 31.8156 52.1592 31.4874 52.4874C31.1592 52.8156 30.7141 53 30.25 53ZM51.25 53H37.25C36.7859 53 36.3408 52.8156 36.0126 52.4874C35.6844 52.1592 35.5 51.7141 35.5 51.25C35.5 50.7859 35.6844 50.3408 36.0126 50.0126C36.3408 49.6844 36.7859 49.5 37.25 49.5H51.25C51.7141 49.5 52.1593 49.6844 52.4874 50.0126C52.8156 50.3408 53 50.7859 53 51.25C53 51.7141 52.8156 52.1592 52.4874 52.4874C52.1593 52.8156 51.7141 53 51.25 53Z" fill="#3B53C9"/>
</g>
</g>
</g>
</g>
<defs>
<clipPath id="clip0_0_1">
<rect width="1440" height="4060" fill="white" transform="translate(-156 -1456)"/>
</clipPath>
</defs>
</svg>
