<svg width="64" height="64" viewBox="0 0 64 64" fill="none" xmlns="http://www.w3.org/2000/svg">
<path fill-rule="evenodd" clip-rule="evenodd" d="M48.5455 22.0909H15.4545C11.0178 22.0909 9.09091 25.9448 9.09091 28.4546V38.6364C9.09091 40.5035 9.66236 42.2407 10.6551 43.6687C11.126 44.3458 13.4653 47.5455 18 47.5455H25.2125C27.8089 47.5455 29.7104 45.7637 29.7104 45.7637C31.9287 44.2033 33.9664 45.5193 34.2909 45.7637C34.2909 45.7637 36.1147 47.5455 38.7887 47.5455H46C50.732 47.5455 54.9091 43.7286 54.9091 38.6364V28.4546C54.9091 25.5375 52.5889 22.0909 48.5455 22.0909ZM15.4533 29.7298H17.9987C19.6584 29.7298 19.7487 27.2226 17.9987 27.1844H15.4533C13.7911 27.1844 13.7364 29.7298 15.4533 29.7298Z" fill="#3B53C9" fill-opacity="0.6"/>
<path d="M7.75073 43.7209C6.95996 42.1425 6.54732 40.4018 6.54545 38.6364V28.4546C6.54545 27.6158 6.67018 26.8077 6.88782 26.0377C6.06462 26.2438 5.33367 26.7186 4.81063 27.3868C4.28759 28.0551 4.00233 28.8787 4 29.7273V39.9091C4.00151 40.9091 4.39525 41.8685 5.09659 42.5813C5.79794 43.2941 6.75092 43.7033 7.75073 43.7209Z" fill="#3B53C9" fill-opacity="0.6"/>
<path d="M57.1122 26.0377C57.3298 26.8077 57.4545 27.6158 57.4545 28.4546V38.6364C57.4527 40.4018 57.04 42.1425 56.2493 43.7209C57.2491 43.7033 58.2021 43.2941 58.9034 42.5813C59.6048 41.8685 59.9985 40.9091 60 39.9091V29.7273C59.9977 28.8787 59.7124 28.0551 59.1894 27.3868C58.6663 26.7186 57.9354 26.2438 57.1122 26.0377Z" fill="#3B53C9" fill-opacity="0.6"/>
<path d="M34.2451 17H29.7549C29.0454 16.9977 28.3495 17.1941 27.746 17.5671C27.1424 17.9401 26.6554 18.4746 26.3402 19.1102L26.1225 19.5455H37.8775L37.6598 19.1102C37.3447 18.4745 36.8577 17.9399 36.2542 17.5669C35.6506 17.1939 34.9546 16.9975 34.2451 17Z" fill="#3B53C9" fill-opacity="0.6"/>
</svg>
