<svg width="56" height="56" viewBox="0 0 56 56" fill="none" xmlns="http://www.w3.org/2000/svg">
<path fill-rule="evenodd" clip-rule="evenodd" d="M40.3721 9.11628H0V5.86047C0 4.30617 0.61744 2.81554 1.71649 1.71649C2.81554 0.61744 4.30617 0 5.86047 0H34.5116C36.0659 0 37.5566 0.61744 38.6556 1.71649C39.7547 2.81554 40.3721 4.30617 40.3721 5.86047V9.11628ZM40.3721 13.0233H0V31.907C0 33.4613 0.61744 34.9519 1.71649 36.0509C2.81554 37.15 4.30617 37.7674 5.86047 37.7674H34.5116C36.0659 37.7674 37.5566 37.15 38.6556 36.0509C39.7547 34.9519 40.3721 33.4613 40.3721 31.907V13.0233ZM15.0419 30.7453L19.0192 18.8108C19.1002 18.5674 19.2284 18.3424 19.3965 18.1486C19.5645 17.9548 19.769 17.7959 19.9985 17.6812C20.2279 17.5664 20.4776 17.498 20.7335 17.4797C20.9894 17.4615 21.2463 17.4938 21.4897 17.5749C21.733 17.656 21.9581 17.7842 22.1519 17.9522C22.3457 18.1202 22.5045 18.3248 22.6193 18.5542C22.7341 18.7836 22.8025 19.0334 22.8207 19.2892C22.839 19.5451 22.8067 19.802 22.7256 20.0454L18.7483 31.9799C18.5846 32.4714 18.2323 32.8777 17.769 33.1095C17.3057 33.3413 16.7693 33.3795 16.2778 33.2158C15.7863 33.0521 15.3799 32.6998 15.1482 32.2365C14.9164 31.7732 14.8781 31.2368 15.0419 30.7453ZM7.08465 24.0149L11.062 20.035C11.429 19.6696 11.9258 19.4645 12.4437 19.4645C12.9616 19.4645 13.4584 19.6696 13.8255 20.035C14.1908 20.402 14.3959 20.8989 14.3959 21.4167C14.3959 21.9346 14.1908 22.4315 13.8255 22.7985L11.2287 25.3953L13.8255 27.9922C14.1908 28.3592 14.3959 28.8561 14.3959 29.374C14.3959 29.8918 14.1908 30.3887 13.8255 30.7557C13.4584 31.1211 12.9616 31.3262 12.4437 31.3262C11.9258 31.3262 11.429 31.1211 11.062 30.7557L7.08465 26.7758C6.9032 26.5946 6.75925 26.3794 6.66104 26.1426C6.56282 25.9057 6.51227 25.6518 6.51227 25.3953C6.51227 25.1389 6.56282 24.885 6.66104 24.6481C6.75925 24.4113 6.9032 24.1961 7.08465 24.0149ZM26.5388 25.3953L23.942 22.7985C23.5766 22.4315 23.3715 21.9346 23.3715 21.4167C23.3715 20.8989 23.5766 20.402 23.942 20.035C24.309 19.6696 24.8058 19.4645 25.3237 19.4645C25.8416 19.4645 26.3384 19.6696 26.7055 20.035L30.6828 24.0149C30.8642 24.1961 31.0082 24.4113 31.1064 24.6481C31.2046 24.885 31.2552 25.1389 31.2552 25.3953C31.2552 25.6518 31.2046 25.9057 31.1064 26.1426C31.0082 26.3794 30.8642 26.5946 30.6828 26.7758L26.7055 30.7557C26.3384 31.1211 25.8416 31.3262 25.3237 31.3262C24.8058 31.3262 24.309 31.1211 23.942 30.7557C23.5766 30.3887 23.3715 29.8918 23.3715 29.374C23.3715 28.8561 23.5766 28.3592 23.942 27.9922L26.5388 25.3953ZM35.1628 52.093H43.6278C44.1459 52.093 44.6427 52.2989 45.0091 52.6652C45.3754 53.0316 45.5812 53.5284 45.5812 54.0465C45.5812 54.5646 45.3754 55.0615 45.0091 55.4279C44.6427 55.7942 44.1459 56 43.6278 56H22.7906C22.2725 56 21.7756 55.7942 21.4092 55.4279C21.0429 55.0615 20.8371 54.5646 20.8371 54.0465C20.8371 53.5284 21.0429 53.0316 21.4092 52.6652C21.7756 52.2989 22.2725 52.093 22.7906 52.093H31.2558V48.1861H16.2789C14.7246 48.1861 13.234 47.5686 12.1349 46.4696C11.0359 45.3705 10.4185 43.8799 10.4185 42.3256V40.3721H34.5115C36.7566 40.3721 38.9097 39.4803 40.4972 37.8927C42.0847 36.3052 42.9766 34.1521 42.9766 31.907V15.6279H50.1394C51.6937 15.6279 53.1843 16.2454 54.2834 17.3444C55.3824 18.4435 55.9998 19.9341 55.9998 21.4884V42.3256C55.9998 43.8799 55.3824 45.3705 54.2834 46.4696C53.1843 47.5686 51.6937 48.1861 50.1394 48.1861H35.1628V52.093Z" fill="#3B53C9" fill-opacity="0.6"/>
</svg>
