<svg width="64" height="64" viewBox="0 0 64 64" fill="none" xmlns="http://www.w3.org/2000/svg">
<path opacity="0.6" d="M60 21.4584C60 20.9061 59.5523 20.4584 59 20.4584H48.835C48.5697 20.4584 48.3153 20.5638 48.1278 20.7514L27.2783 41.6062C27.0913 41.7933 26.989 42.0469 26.9745 42.3111C26.9187 43.3233 26.6434 44.762 25.6868 46.1225C24.5122 47.7929 22.6763 48.8421 20.23 49.2408C16.0625 49.92 14.1021 50.9818 14.0827 50.9925L13.4114 51.3739C12.8622 51.6859 12.1648 51.4168 11.9675 50.8168L11.7257 50.0814C11.6532 49.8648 9.9768 44.7207 12.3623 40.1793C13.6874 37.6566 15.9589 35.8506 19.1189 34.8033C19.2714 34.7527 19.4113 34.6686 19.525 34.5549L31.9142 22.1656C32.5441 21.5357 32.098 20.4585 31.2071 20.4585H5C4.44772 20.4585 4 20.9062 4 21.4585V56.2974C4 56.8497 4.44772 57.2974 5 57.2974H59C59.5523 57.2974 60 56.8497 60 56.2974V21.4584ZM54.2422 51.3746C54.2422 51.9269 53.7945 52.3746 53.2422 52.3746H32.9893C32.437 52.3746 31.9893 51.9269 31.9893 51.3746V50.0933C31.9893 49.541 32.437 49.0933 32.9893 49.0933H53.2422C53.7945 49.0933 54.2423 49.5411 54.2422 50.0934L54.2422 51.3746ZM54.2422 43.9952C54.2422 44.5475 53.7945 44.9952 53.2422 44.9952H32.9893C32.437 44.9952 31.9893 44.5474 31.9893 43.9952V42.7139C31.9893 42.1616 32.437 41.7139 32.9893 41.7139H53.2422C53.7945 41.7139 54.2423 42.1617 54.2422 42.7139L54.2422 43.9952ZM54.2422 36.6157C54.2422 37.168 53.7945 37.6157 53.2422 37.6157H45.0918C44.5396 37.6157 44.0918 37.168 44.0918 36.6157V35.3345C44.0918 34.7822 44.5396 34.3345 45.0918 34.3345H53.2422C53.7945 34.3345 54.2422 34.7822 54.2422 35.3345V36.6157ZM4 14.0718C4 13.5195 4.44772 13.0718 5 13.0718H7.21586C7.76814 13.0718 8.21586 13.5195 8.21586 14.0718V16.1772C8.21586 16.7295 7.76814 17.1772 7.21586 17.1772H5C4.44772 17.1772 4 16.7295 4 16.1772V14.0718ZM11.4971 14.0718C11.4971 13.5195 11.9448 13.0718 12.4971 13.0718H14.5953C15.1476 13.0718 15.5953 13.5195 15.5953 14.0718V16.1772C15.5953 16.7295 15.1476 17.1772 14.5953 17.1772H12.4971C11.9448 17.1772 11.4971 16.7295 11.4971 16.1772V14.0718Z" fill="#3B53C9"/>
<g opacity="0.6">
<path d="M15.278 41.6852C14.5111 43.1338 14.3325 44.7273 14.3737 46.0601C14.3933 46.6944 15.0364 47.0893 15.6451 46.9099C16.7156 46.5945 18.0643 46.2691 19.7026 46.0021C21.5366 45.7033 22.7565 44.9171 23.3286 43.6657C23.5335 43.2175 23.6307 42.7744 23.6744 42.4087C23.7069 42.1364 23.5957 41.8707 23.4017 41.6768L20.2262 38.5021C19.9505 38.2265 19.5381 38.1324 19.1801 38.2869C17.3703 39.0678 16.0608 40.2065 15.278 41.6852Z" fill="#3B53C9"/>
<path d="M29.8036 33.0252C30.1942 33.4157 30.8274 33.4156 31.2179 33.025L53.7716 10.4653C54.162 10.0748 54.162 9.44169 53.7715 9.05121L52.4275 7.70714C52.037 7.3166 51.4038 7.31659 51.0133 7.70713L28.4565 30.2641C28.066 30.6547 28.066 31.2879 28.4566 31.6784L29.8036 33.0252Z" fill="#3B53C9"/>
<path d="M23.2445 36.8841C22.854 36.4936 22.854 35.8604 23.2445 35.4699L24.7165 33.9979C25.107 33.6074 25.7402 33.6074 26.1307 33.9979L27.4778 35.345C27.8683 35.7355 27.8683 36.3687 27.4778 36.7592L26.0058 38.2312C25.6153 38.6217 24.9821 38.6217 24.5916 38.2312L23.2445 36.8841Z" fill="#3B53C9"/>
<path d="M18.8768 16.1771C18.8768 16.7294 19.3246 17.1771 19.8768 17.1771H36.5038C36.7601 17.1771 37.0065 17.0788 37.1924 16.9023L39.4099 14.7969C40.0651 14.1749 39.6249 13.0717 38.7214 13.0717H19.8768C19.3246 13.0717 18.8768 13.5194 18.8768 14.0717V16.1771Z" fill="#3B53C9"/>
<path d="M53.5179 15.452C52.8628 16.0741 53.3031 17.1771 54.2065 17.1771H59.0003C59.5526 17.1771 60.0003 16.7294 60.0003 16.1771V14.0717C60.0003 13.5194 59.5526 13.0717 59.0003 13.0717H56.4235C56.1672 13.0717 55.9207 13.1701 55.7349 13.3466L53.5179 15.452Z" fill="#3B53C9"/>
</g>
</svg>
