<svg width="32" height="32" viewBox="0 0 32 32" fill="none" xmlns="http://www.w3.org/2000/svg">
<path d="M26.2857 0C27.8012 0 29.2547 0.602039 30.3263 1.67368C31.398 2.74531 32 4.19876 32 5.71429V26.2857C32 27.8012 31.398 29.2547 30.3263 30.3263C29.2547 31.398 27.8012 32 26.2857 32H5.71429C4.19876 32 2.74531 31.398 1.67368 30.3263C0.602039 29.2547 0 27.8012 0 26.2857V5.71429C0 4.19876 0.602039 2.74531 1.67368 1.67368C2.74531 0.602039 4.19876 0 5.71429 0H26.2857ZM26.2857 2.28571H5.71429C4.80497 2.28571 3.9329 2.64694 3.28992 3.28992C2.64694 3.9329 2.28571 4.80497 2.28571 5.71429V26.2857C2.28571 27.195 2.64694 28.0671 3.28992 28.7101C3.9329 29.3531 4.80497 29.7143 5.71429 29.7143H26.2857C27.195 29.7143 28.0671 29.3531 28.7101 28.7101C29.3531 28.0671 29.7143 27.195 29.7143 26.2857V5.71429C29.7143 4.80497 29.3531 3.9329 28.7101 3.28992C28.0671 2.64694 27.195 2.28571 26.2857 2.28571ZM22.2126 13.7143C23.232 13.7143 23.6 13.8194 23.9726 14.0206C24.3451 14.2194 24.6377 14.512 24.8366 14.8846C25.0377 15.2571 25.1429 15.6251 25.1429 16.6446V22.2126C25.1429 23.232 25.0377 23.6 24.8366 23.9726C24.6418 24.3407 24.3407 24.6418 23.9726 24.8366C23.6023 25.0377 23.232 25.1429 22.2126 25.1429H9.78743C8.768 25.1429 8.4 25.0377 8.02743 24.8366C7.65926 24.6418 7.3582 24.3407 7.16343 23.9726C6.96229 23.6023 6.85714 23.232 6.85714 22.2126V16.6446C6.85714 15.6251 6.96229 15.2571 7.16343 14.8846C7.35832 14.5165 7.65934 14.2155 8.02743 14.0206C8.4 13.8194 8.768 13.7143 9.78743 13.7143H22.2126ZM22.656 16.0046H9.344L9.16114 16.016L9.14743 16.1989V22.656L9.15886 22.8389L9.34171 22.8526H22.656L22.8389 22.8411L22.8526 22.6583V16.2011L22.8411 16.0183L22.6583 16.0046H22.656ZM24 6.85714C24.2856 6.85662 24.561 6.96304 24.7721 7.15545C24.9831 7.34786 25.1145 7.61231 25.1403 7.89674C25.1661 8.18116 25.0845 8.46494 24.9115 8.69219C24.7385 8.91944 24.4867 9.07369 24.2057 9.12457L24 9.14286H8C7.71441 9.14338 7.43897 9.03696 7.22792 8.84455C7.01688 8.65214 6.88552 8.38769 6.85971 8.10327C6.83391 7.81884 6.91553 7.53506 7.0885 7.30781C7.26148 7.08056 7.51326 6.92631 7.79429 6.87543L8 6.85714H24Z" fill="#0E4FE3"/>
</svg>
