<svg width="32" height="32" viewBox="0 0 32 32" fill="none" xmlns="http://www.w3.org/2000/svg">
<path d="M16 32C7.16429 32 0 24.8357 0 16C0 7.16429 7.16429 0 16 0C24.8357 0 32 7.16429 32 16C32 24.8357 24.8357 32 16 32ZM16 2.71428C8.66429 2.71428 2.71429 8.66429 2.71429 16C2.71429 23.3357 8.66429 29.2857 16 29.2857C23.3357 29.2857 29.2857 23.3357 29.2857 16C29.2857 8.66429 23.3357 2.71428 16 2.71428Z" fill="#0E4FE3"/>
<path d="M22.2396 11.4785L17.1467 15.1606V23.9999C17.1467 24.1571 17.0181 24.2856 16.861 24.2856H15.1431C14.986 24.2856 14.8574 24.1571 14.8574 23.9999V14.1642C14.8574 14.0714 14.9003 13.9856 14.9753 13.9321L20.8824 9.62493C21.011 9.53207 21.1896 9.56065 21.2824 9.68565L22.3039 11.0785C22.3967 11.2106 22.3681 11.3892 22.2396 11.4785Z" fill="#0E4FE3"/>
</svg>
