<svg width="56" height="56" viewBox="0 0 56 56" fill="none" xmlns="http://www.w3.org/2000/svg">
<path d="M0 8.12214C0 3.63641 3.6364 0 8.12214 0H47.8779C52.3636 0 56 3.6364 56 8.12214V47.8779C56 52.3636 52.3636 56 47.8779 56H8.12214C3.63641 56 0 52.3636 0 47.8779V8.12214Z" fill="white"/>
<path d="M16 16H40.1594V16.7564C40.1594 17.7136 39.7742 18.6315 39.0885 19.3083C38.4028 19.9851 37.4729 20.3654 36.5032 20.3654H16V16Z" fill="#FDC041"/>
<path d="M40.1603 40.0006H16V22.9438H20.4224V35.637H35.7396C36.9121 35.637 38.0365 36.0967 38.8655 36.9151C39.6945 37.7334 40.1603 38.8433 40.1603 40.0006Z" fill="#000086"/>
<path d="M27.9304 27.9992C27.9306 28.1837 28.0051 28.3606 28.1373 28.491C28.2696 28.6214 28.4489 28.6946 28.6358 28.6946H38.227C38.5167 28.6946 38.7947 28.8079 39 29.0097C39.2053 29.2115 39.3212 29.4854 39.3224 29.7714V31.9743C39.3224 32.261 39.207 32.536 39.0016 32.7388C38.7961 32.9416 38.5175 33.0555 38.227 33.0555H23.5161V32.9936H23.5098V22.9439H23.5161H38.227C38.3706 22.9433 38.513 22.9707 38.6458 23.0245C38.7787 23.0784 38.8995 23.1576 39.0013 23.2576C39.1031 23.3577 39.1838 23.4766 39.2389 23.6075C39.294 23.7384 39.3224 23.8788 39.3224 24.0206V26.2217C39.3212 26.5077 39.2053 26.7815 39 26.9833C38.7947 27.1851 38.5167 27.2984 38.227 27.2984H28.6358C28.5428 27.2984 28.4507 27.3166 28.3648 27.3519C28.2789 27.3871 28.201 27.4388 28.1354 27.504C28.0698 27.5691 28.018 27.6464 27.9828 27.7314C27.9476 27.8164 27.9298 27.9074 27.9304 27.9992Z" fill="#FDC041"/>
</svg>
