<svg width="28" height="28" viewBox="0 0 28 28" fill="none" xmlns="http://www.w3.org/2000/svg">
<rect width="28" height="28" rx="4" fill="#01174F"/>
<path fill-rule="evenodd" clip-rule="evenodd" d="M18 8.60446V9.75H18.5V8C18.5 7.9337 18.4737 7.87011 18.4268 7.82322C18.3799 7.77634 18.3163 7.75 18.25 7.75H16.5V8.25H17.6475L14.5 11.3975L12.6767 9.57422C12.6299 9.52735 12.5663 9.50102 12.5 9.50102C12.4337 9.50102 12.3701 9.52735 12.3232 9.57422L9.32324 12.5742L9.67674 12.9277L12.5 10.1045L14.3232 11.9277C14.3701 11.9746 14.4337 12.0009 14.5 12.0009C14.5663 12.0009 14.6299 11.9746 14.6767 11.9277L18 8.60446ZM16.5 18.75V19.75C16.5 19.75 16 20.25 14 20.25C12 20.25 11.5 19.75 11.5 19.75V18.75C11.5 18.3522 11.658 17.9706 11.9393 17.6893C12.2206 17.408 12.6022 17.25 13 17.25H15C15.3978 17.25 15.7794 17.408 16.0607 17.6893C16.342 17.9706 16.5 18.3522 16.5 18.75Z" fill="white"/>
<path d="M14 17C14.8284 17 15.5 16.3284 15.5 15.5C15.5 14.6716 14.8284 14 14 14C13.1716 14 12.5 14.6716 12.5 15.5C12.5 16.3284 13.1716 17 14 17Z" fill="white"/>
<path d="M21.25 18V19C21.25 19 20.75 19.5 18.75 19.5C18.1616 19.5125 17.5739 19.4529 17 19.3225V18.75C16.9998 18.4863 16.9473 18.2252 16.8456 17.9819C16.7439 17.7386 16.595 17.5179 16.4075 17.3325C16.5317 17.0826 16.7231 16.8723 16.9603 16.7252C17.1974 16.5781 17.4709 16.5001 17.75 16.5H19.75C20.1478 16.5 20.5293 16.658 20.8106 16.9393C21.0919 17.2206 21.25 17.6022 21.25 18Z" fill="white"/>
<path d="M18.75 16.25C19.5784 16.25 20.25 15.5784 20.25 14.75C20.25 13.9216 19.5784 13.25 18.75 13.25C17.9216 13.25 17.25 13.9216 17.25 14.75C17.25 15.5784 17.9216 16.25 18.75 16.25Z" fill="white"/>
<path d="M11.5925 17.3325C11.405 17.5179 11.256 17.7386 11.1543 17.9819C11.0526 18.2252 11.0002 18.4863 11 18.75V19.3225C10.4261 19.4529 9.83839 19.5125 9.25 19.5C7.25 19.5 6.75 19 6.75 19V18C6.75 17.6022 6.90804 17.2206 7.18934 16.9393C7.47064 16.658 7.85218 16.5 8.25 16.5H10.25C10.5291 16.5001 10.8026 16.5781 11.0397 16.7252C11.2769 16.8723 11.4683 17.0826 11.5925 17.3325Z" fill="white"/>
<path d="M9.25 16.25C10.0784 16.25 10.75 15.5784 10.75 14.75C10.75 13.9216 10.0784 13.25 9.25 13.25C8.42157 13.25 7.75 13.9216 7.75 14.75C7.75 15.5784 8.42157 16.25 9.25 16.25Z" fill="white"/>
</svg>
