<svg width="1024" height="1024" viewBox="0 0 1024 1024" fill="none" xmlns="http://www.w3.org/2000/svg">
<rect width="1024" height="1024" rx="512" fill="#01174F"/>
<path d="M660.394 359.894C627.623 338.687 583.286 346.398 562.082 377.245L430.999 564.253C407.867 597.027 417.505 639.442 448.348 662.577C481.119 683.784 525.456 676.072 546.66 645.225L677.743 458.218C700.875 427.371 693.165 383.029 660.394 359.894Z" fill="white"/>
<path d="M452.204 357.966C419.434 336.759 375.097 344.471 353.892 375.317L222.809 562.325C199.677 595.1 209.316 637.514 240.159 660.649C272.929 681.856 317.266 674.144 338.471 643.298L469.554 456.29C492.686 423.515 484.975 379.173 452.204 357.966Z" fill="white"/>
<path d="M747.143 519.911L804.974 602.811C826.178 633.658 804.974 678 766.42 678H708.589H650.759C612.205 678 591 635.586 612.205 602.811L670.036 519.911C689.313 492.92 729.794 492.92 747.143 519.911Z" fill="white"/>
</svg>
