<svg width="48" height="48" viewBox="0 0 48 48" fill="none" xmlns="http://www.w3.org/2000/svg">
<circle cx="24" cy="24" r="24" fill="#01174F"/>
<path fill-rule="evenodd" clip-rule="evenodd" d="M18.3454 10.3679C19.8079 10.3006 20.2741 10.2856 23.9994 10.2856C27.7247 10.2856 28.191 10.3019 29.6522 10.3679C31.1134 10.434 32.1108 10.6672 32.9835 11.005C33.8974 11.3504 34.7265 11.8902 35.4122 12.5884C36.1104 13.2729 36.649 14.1007 36.9931 15.0158C37.3322 15.8886 37.5641 16.886 37.6314 18.3447C37.6988 19.8096 37.7137 20.2759 37.7137 23.9999C37.7137 27.7252 37.6975 28.1915 37.6314 29.654C37.5654 31.1127 37.3322 32.1101 36.9931 32.9828C36.649 33.898 36.1095 34.7272 35.4122 35.4127C34.7265 36.1109 33.8974 36.6495 32.9835 36.9936C32.1108 37.3327 31.1134 37.5646 29.6547 37.6319C28.191 37.6993 27.7247 37.7142 23.9994 37.7142C20.2741 37.7142 19.8079 37.698 18.3454 37.6319C16.8867 37.5659 15.8893 37.3327 15.0166 36.9936C14.1014 36.6494 13.2722 36.11 12.5867 35.4127C11.889 34.7278 11.349 33.899 11.0045 32.984C10.6667 32.1113 10.4348 31.1139 10.3674 29.6552C10.3001 28.1903 10.2852 27.724 10.2852 23.9999C10.2852 20.2746 10.3014 19.8083 10.3674 18.3472C10.4335 16.886 10.6667 15.8886 11.0045 15.0158C11.3495 14.1008 11.8899 13.272 12.5879 12.5872C13.2724 11.8896 14.1008 11.3497 15.0153 11.005C15.8881 10.6672 16.8855 10.4353 18.3442 10.3679H18.3454ZM29.5413 12.8365C28.095 12.7704 27.6612 12.7567 23.9994 12.7567C20.3377 12.7567 19.9039 12.7704 18.4576 12.8365C17.1199 12.8976 16.3942 13.1208 15.9105 13.309C15.2709 13.5584 14.8134 13.8539 14.3334 14.3339C13.8784 14.7765 13.5282 15.3154 13.3085 15.911C13.1203 16.3947 12.8971 17.1203 12.836 18.4581C12.7699 19.9043 12.7562 20.3382 12.7562 23.9999C12.7562 27.6616 12.7699 28.0955 12.836 29.5417C12.8971 30.8795 13.1203 31.6051 13.3085 32.0889C13.528 32.6836 13.8783 33.2234 14.3334 33.666C14.776 34.1211 15.3158 34.4714 15.9105 34.6908C16.3942 34.8791 17.1199 35.1023 18.4576 35.1634C19.9039 35.2294 20.3365 35.2432 23.9994 35.2432C27.6624 35.2432 28.095 35.2294 29.5413 35.1634C30.879 35.1023 31.6046 34.8791 32.0884 34.6908C32.728 34.4415 33.1855 34.146 33.6655 33.666C34.1206 33.2234 34.4709 32.6836 34.6904 32.0889C34.8786 31.6051 35.1018 30.8795 35.1629 29.5417C35.2289 28.0955 35.2427 27.6616 35.2427 23.9999C35.2427 20.3382 35.2289 19.9043 35.1629 18.4581C35.1018 17.1203 34.8786 16.3947 34.6904 15.911C34.441 15.2714 34.1455 14.8139 33.6655 14.3339C33.2228 13.8789 32.684 13.5287 32.0884 13.309C31.6046 13.1208 30.879 12.8976 29.5413 12.8365ZM22.2478 28.2277C23.226 28.6349 24.3153 28.6899 25.3296 28.3832C26.3439 28.0765 27.2203 27.4272 27.809 26.5461C28.3978 25.6651 28.6624 24.6069 28.5576 23.5525C28.4529 22.498 27.9853 21.5126 27.2348 20.7646C26.7563 20.2864 26.1778 19.9203 25.5408 19.6926C24.9039 19.4648 24.2244 19.3812 23.5512 19.4476C22.8781 19.514 22.228 19.7288 21.6478 20.0766C21.0676 20.4243 20.5718 20.8964 20.196 21.4589C19.8202 22.0213 19.5737 22.66 19.4744 23.3291C19.375 23.9982 19.4253 24.681 19.6215 25.3284C19.8177 25.9757 20.1551 26.5715 20.6092 27.0728C21.0633 27.5742 21.6229 27.9686 22.2478 28.2277ZM19.0149 19.0154C19.6695 18.3608 20.4466 17.8416 21.3018 17.4873C22.1571 17.1331 23.0737 16.9508 23.9994 16.9508C24.9252 16.9508 25.8418 17.1331 26.697 17.4873C27.5523 17.8416 28.3294 18.3608 28.984 19.0154C29.6385 19.67 30.1578 20.4471 30.512 21.3023C30.8663 22.1576 31.0486 23.0742 31.0486 23.9999C31.0486 24.9256 30.8663 25.8423 30.512 26.6975C30.1578 27.5528 29.6385 28.3299 28.984 28.9844C27.662 30.3064 25.869 31.0491 23.9994 31.0491C22.1299 31.0491 20.3369 30.3064 19.0149 28.9844C17.6929 27.6625 16.9503 25.8695 16.9503 23.9999C16.9503 22.1304 17.6929 20.3374 19.0149 19.0154ZM32.612 18.0006C32.7742 17.8475 32.9041 17.6635 32.9939 17.4594C33.0837 17.2553 33.1317 17.0353 33.1349 16.8123C33.1382 16.5893 33.0967 16.368 33.0128 16.1614C32.929 15.9547 32.8046 15.767 32.6469 15.6093C32.4892 15.4517 32.3015 15.3272 32.0948 15.2434C31.8882 15.1595 31.6669 15.118 31.4439 15.1213C31.2209 15.1245 31.0009 15.1725 30.7968 15.2623C30.5927 15.3521 30.4087 15.482 30.2556 15.6442C29.9581 15.9597 29.7951 16.3787 29.8015 16.8123C29.8078 17.2459 29.9829 17.66 30.2895 17.9667C30.5962 18.2734 31.0103 18.4484 31.4439 18.4547C31.8775 18.4611 32.2965 18.2981 32.612 18.0006Z" fill="white"/>
</svg>
