<svg width="48" height="48" viewBox="0 0 48 48" fill="none" xmlns="http://www.w3.org/2000/svg">
<circle cx="24" cy="24" r="24" fill="#01174F"/>
<path d="M13.582 16.89C15.4028 16.89 16.8788 15.4116 16.8788 13.5878C16.8788 11.7641 15.4028 10.2856 13.582 10.2856C11.7612 10.2856 10.2852 11.7641 10.2852 13.5878C10.2852 15.4116 11.7612 16.89 13.582 16.89Z" fill="white"/>
<path d="M19.9919 19.3922V37.7127H25.6709V28.6528C25.6709 26.2622 26.12 23.947 29.0793 23.947C31.9979 23.947 32.0341 26.6802 32.0341 28.8037V37.7142H37.7161V27.6673C37.7161 22.7321 36.6553 18.9395 30.8964 18.9395C28.1315 18.9395 26.2782 20.4592 25.5203 21.8975H25.4434V19.3922H19.9919ZM10.7373 19.3922H16.4254V37.7127H10.7373V19.3922Z" fill="white"/>
</svg>
