<svg width="143" height="149" viewBox="0 0 143 149" fill="none" xmlns="http://www.w3.org/2000/svg">
<path d="M19.0918 30.373V44.116C19.0921 50.3147 21.5547 56.2595 25.9379 60.6426C30.3212 65.0257 36.2661 67.488 42.4648 67.488H99.8058C103.42 67.488 106.887 66.0521 109.443 63.4962C111.999 60.9402 113.435 57.4736 113.435 53.859H49.3888C46.3855 53.859 43.5052 52.6659 41.3815 50.5423C39.2579 48.4186 38.0648 45.5383 38.0648 42.535V31.988C38.0645 30.5002 38.3575 29.0269 38.927 27.6523C39.4965 26.2778 40.3313 25.029 41.3838 23.9773C42.4362 22.9256 43.6856 22.0917 45.0605 21.5232C46.4354 20.9546 47.909 20.6627 49.3968 20.664C62.8908 20.676 85.4058 20.65 99.8288 20.629C103.44 20.6237 106.901 19.1854 109.452 16.63C112.004 14.0746 113.436 10.611 113.436 7H42.4648C39.3954 7 36.3561 7.60457 33.5203 8.77917C30.6846 9.95378 28.108 11.6754 25.9376 13.8458C23.7672 16.0162 22.0456 18.5928 20.871 21.4286C19.6964 24.2643 19.0918 27.3036 19.0918 30.373Z" fill="#11014D"/>
<path d="M72.0869 31.6108H103.11C106.23 31.6111 109.223 32.8509 111.429 35.0574C113.635 37.2639 114.875 40.2565 114.875 43.3768H83.8529C80.7324 43.3768 77.7396 42.1372 75.5331 39.9307C73.3265 37.7241 72.0869 34.7314 72.0869 31.6108Z" fill="#FA9C44"/>
<path d="M15.4266 113.929C9.87656 113.929 8.47656 110.829 8.47656 105.129C8.47656 98.9289 10.2766 96.3289 15.3016 96.3289C17.2266 96.3289 19.8016 96.7289 21.2266 97.0289L21.1266 99.7039C19.8266 99.5539 17.5016 99.3789 15.8516 99.3789C12.9016 99.3789 12.0266 100.354 12.0266 105.129C12.0266 109.654 12.6516 110.929 15.7516 110.929C16.5016 110.929 17.3766 110.879 17.8266 110.829V107.529H16.2766V104.529H21.2266V113.354C19.7016 113.604 17.0516 113.929 15.4266 113.929ZM29.2848 113.929C24.9348 113.929 23.5348 111.204 23.5348 107.354C23.5348 103.504 24.9348 100.829 29.2848 100.829C33.6348 100.829 35.0348 103.504 35.0348 107.354C35.0348 111.204 33.6348 113.929 29.2848 113.929ZM29.2848 111.079C31.1348 111.079 31.6348 109.779 31.6348 107.354C31.6348 104.929 31.1348 103.679 29.2848 103.679C27.4348 103.679 26.9348 104.929 26.9348 107.354C26.9348 109.779 27.4348 111.079 29.2848 111.079ZM37.6404 113.629V96.1289H40.9904V113.629H37.6404ZM48.5037 113.929C44.7287 113.929 43.6287 111.729 43.6287 107.329C43.6287 102.754 45.4037 100.829 48.8037 100.829C49.4787 100.829 50.7287 101.029 51.5037 101.179V96.1289H54.8537V113.629H51.5287V113.104C50.7787 113.454 49.4287 113.929 48.5037 113.929ZM49.0787 110.929C49.9287 110.929 50.9787 110.704 51.5037 110.554V103.979C50.9037 103.879 49.8287 103.729 49.0537 103.729C47.8037 103.729 47.0287 104.804 47.0287 107.329C47.0287 109.879 47.5037 110.929 49.0787 110.929ZM62.6994 113.929C58.9244 113.929 57.3244 112.054 57.3244 107.554C57.3244 103.104 59.1994 100.829 62.8494 100.829C66.5244 100.829 68.2994 102.704 68.2994 106.479L68.0494 108.804H60.6994C60.7244 110.304 61.4244 110.979 63.2244 110.979C64.7244 110.979 66.7494 110.854 67.8494 110.754L67.8994 113.229C66.6744 113.529 64.3994 113.929 62.6994 113.929ZM60.6744 106.254H64.9994C64.9994 104.229 64.4244 103.579 62.8494 103.579C61.2494 103.579 60.6994 104.354 60.6744 106.254ZM70.6936 113.629V101.129H74.0186V101.829C74.7436 101.404 76.0936 100.829 77.1436 100.829C80.6436 100.829 81.5436 103.029 81.5436 106.854V113.629H78.1936V106.954C78.1936 105.054 77.9436 103.829 76.3186 103.829C75.4686 103.829 74.5186 104.079 74.0436 104.279V113.629H70.6936Z" fill="#FA9C44"/>
<path d="M90.3051 113.629V96.6289H96.0301C101.955 96.6289 103.255 99.1539 103.255 104.804C103.255 110.604 102.13 113.629 96.0301 113.629H90.3051ZM93.7551 110.629H96.0301C99.3801 110.629 99.7051 108.579 99.7051 104.804C99.7051 101.079 99.3801 99.6289 96.0301 99.6289H93.7551V110.629ZM110.697 113.929C106.922 113.929 105.322 112.054 105.322 107.554C105.322 103.104 107.197 100.829 110.847 100.829C114.522 100.829 116.297 102.704 116.297 106.479L116.047 108.804H108.697C108.722 110.304 109.422 110.979 111.222 110.979C112.722 110.979 114.747 110.854 115.847 110.754L115.897 113.229C114.672 113.529 112.397 113.929 110.697 113.929ZM108.672 106.254H112.997C112.997 104.229 112.422 103.579 110.847 103.579C109.247 103.579 108.697 104.354 108.672 106.254ZM121.742 113.929C119.117 113.929 117.867 112.479 117.867 109.829C117.867 107.004 119.492 106.204 122.242 106.004L124.917 105.804V105.029C124.917 103.954 124.442 103.679 123.442 103.679C122.242 103.679 120.042 103.804 118.742 103.879L118.642 101.554C119.792 101.254 121.967 100.829 123.717 100.829C126.967 100.829 128.267 102.104 128.267 105.029V110.229C128.317 110.979 128.417 111.279 129.092 111.404L128.992 113.929C128.067 113.929 127.417 113.879 126.817 113.704C126.317 113.579 125.892 113.379 125.417 113.054C124.642 113.429 123.117 113.929 121.742 113.929ZM122.467 111.204C123.242 111.204 124.317 110.979 124.917 110.804V108.129L122.642 108.329C121.767 108.404 121.242 108.829 121.242 109.729C121.242 110.604 121.567 111.204 122.467 111.204ZM131.61 113.629V96.1289H134.96V113.629H131.61Z" fill="#11014D"/>
<path d="M33.0026 138.629C33.4026 138.629 33.5026 139.204 33.5026 140.129C33.5026 141.054 33.4026 141.629 33.0026 141.629H30.0276V141.754C30.0276 145.379 27.0276 147.829 22.7026 147.829C18.3276 147.829 15.0776 145.204 15.0776 141.604C15.0776 140.254 15.5526 136.979 15.9776 134.304L19.2776 134.779C18.7276 138.254 18.4276 140.704 18.4276 141.604C18.4276 143.479 20.0776 144.829 22.7026 144.829C25.3026 144.829 26.6776 143.654 26.6776 141.754V124.129H30.0276V138.629H33.0026ZM39.3235 129.129V141.629H32.9985C32.5985 141.629 32.4985 141.054 32.4985 140.129C32.4985 139.204 32.5985 138.629 32.9985 138.629H35.9735V129.129H39.3235ZM33.4985 146.529V143.129H36.8485V146.529H33.4985ZM38.4235 143.129H41.7735V146.529H38.4235V143.129ZM45.4046 129.129C49.4046 129.129 51.7546 130.804 51.7546 135.829V141.629H42.0796V138.629H48.4046V135.829C48.4046 132.754 47.7796 132.129 45.4046 132.129H43.3796V129.129H45.4046Z" fill="#11014D"/>
<path d="M65.2868 129.129V125.729H68.6368V129.129H65.2868ZM67.1118 147.829C62.7368 147.829 59.4868 145.204 59.4868 141.604C59.4868 140.254 59.9618 136.979 60.3868 134.304L63.6868 134.779C63.1368 138.254 62.8368 140.704 62.8368 141.604C62.8368 143.479 64.4868 144.829 67.1118 144.829C69.7118 144.829 71.0868 143.654 71.0868 141.754V129.129H74.4368V141.754C74.4368 145.379 71.4368 147.829 67.1118 147.829ZM89.837 138.629C90.237 138.629 90.337 139.204 90.337 140.129C90.337 141.054 90.237 141.629 89.837 141.629H77.187V138.629H83.512V135.829C83.512 132.754 82.887 132.129 80.512 132.129H78.487V129.129H80.512C84.512 129.129 86.862 130.804 86.862 135.829V138.629H89.837ZM93.5595 124.129H96.9095V141.629H89.8345C89.4345 141.629 89.3345 141.054 89.3345 140.129C89.3345 139.204 89.4345 138.629 89.8345 138.629H93.5595V124.129ZM114.248 138.629C114.648 138.629 114.748 139.204 114.748 140.129C114.748 141.054 114.648 141.629 114.248 141.629H111.273V141.779C111.273 145.404 109.373 147.779 105.573 147.779C104.373 147.779 102.823 147.554 101.473 147.254L102.198 144.329C103.548 144.629 104.698 144.779 105.573 144.779C107.223 144.779 107.923 144.029 107.923 141.779V141.629H105.223C100.848 141.629 99.6479 139.679 99.6479 135.379C99.6479 131.079 100.848 129.129 105.223 129.129H111.273V138.629H114.248ZM105.223 138.629H107.923V132.129H105.223C103.248 132.129 102.998 132.254 102.998 135.379C102.998 138.504 103.248 138.629 105.223 138.629ZM122.174 123.904V127.304H118.824V123.904H122.174ZM127.099 123.904V127.304H123.749V123.904H127.099ZM122.124 129.129H128.174V141.629H114.249C113.849 141.629 113.749 141.054 113.749 140.129C113.749 139.204 113.849 138.629 114.249 138.629H116.924C116.649 137.754 116.549 136.679 116.549 135.379C116.549 131.079 117.749 129.129 122.124 129.129ZM119.899 135.379C119.899 138.504 120.149 138.629 122.124 138.629H124.824V132.129H122.124C120.149 132.129 119.899 132.254 119.899 135.379Z" fill="#FA9C44"/>
</svg>
