<svg width="56" height="56" viewBox="0 0 56 56" fill="none" xmlns="http://www.w3.org/2000/svg">
<rect width="56" height="56" fill="#C9C9C9"/>
<g id="Group 1000011201">
<g id="Group 1000011105">
<g id="Group 1000011103">
<g id="Group 1000011040">
<g id="3">
<g id="bg">
<rect id="Rectangle 39" x="-162" y="-24" width="381" height="640" fill="url(#paint0_linear_0_1)"/>
</g>
</g>
</g>
</g>
</g>
<g id="Group 1000011200">
<path id="Rectangle" d="M0 8.12214C0 3.63641 3.6364 0 8.12214 0H47.8779C52.3636 0 56 3.6364 56 8.12214V47.8779C56 52.3636 52.3636 56 47.8779 56H8.12214C3.63641 56 0 52.3636 0 47.8779V8.12214Z" fill="white"/>
<g id="Group 1000011034">
<path id="Vector" d="M20.4981 23.2094C18.0476 23.2094 16.4484 25.1016 16.4484 27.9984C16.4484 30.8951 18.0476 32.7873 20.4981 32.7873C22.9486 32.7873 24.5477 30.8951 24.5477 27.9984C24.5362 25.1016 22.9371 23.2094 20.4981 23.2094ZM26.6646 34.3759C24.9849 36.0228 22.914 36.8405 20.4866 36.8405C18.0591 36.8405 15.9883 36.0345 14.3086 34.3759C12.6404 32.7289 11.7891 30.6148 11.7891 27.9984C11.7891 25.3819 12.6404 23.2678 14.3201 21.6208C15.9998 19.9622 18.0706 19.1562 20.4981 19.1562C22.9255 19.1562 24.9964 19.9622 26.6761 21.6208C28.3557 23.2678 29.2071 25.3819 29.2071 27.9984C29.1956 30.6148 28.3442 32.7289 26.6646 34.3759Z" fill="black"/>
<path id="Vector_2" d="M44.2111 32.73V36.5028H30.0029V33.022L38.2518 23.2688H30.0835V19.4844H44.0041V23.0469L35.6977 32.73H44.2111Z" fill="black"/>
</g>
</g>
</g>
<defs>
<linearGradient id="paint0_linear_0_1" x1="-156.823" y1="-7.58974" x2="319.345" y2="81.8639" gradientUnits="userSpaceOnUse">
<stop stop-color="#295C79"/>
<stop offset="1" stop-color="#5386A4"/>
</linearGradient>
</defs>
</svg>
