<svg width="28" height="28" viewBox="0 0 28 28" fill="none" xmlns="http://www.w3.org/2000/svg">
<rect width="28" height="28" rx="4" fill="#01174F"/>
<g clip-path="url(#clip0_2241_11247)">
<path d="M20.0383 17.864L19.1705 17.3097C19.1411 17.2907 19.1203 17.2608 19.1127 17.2266C19.105 17.1924 19.1111 17.1566 19.1296 17.1269C20.5545 14.7857 20.1938 11.7083 18.2454 9.75979C16.2633 7.77768 13.1183 7.43179 10.764 8.93532L11.008 9.31768C11.022 9.33968 11.0296 9.36516 11.03 9.39126C11.0304 9.41736 11.0235 9.44306 11.0102 9.46547C10.9968 9.48788 10.9774 9.50613 10.9543 9.51818C10.9311 9.53022 10.9051 9.53559 10.879 9.53368L8.96702 9.39156C8.94516 9.38995 8.92398 9.38325 8.90517 9.37201C8.88635 9.36077 8.87043 9.34528 8.85866 9.32679C8.84689 9.3083 8.8396 9.28732 8.83737 9.26552C8.83515 9.24371 8.83805 9.22169 8.84584 9.2012L9.5249 7.41085C9.53415 7.38642 9.55002 7.36505 9.57072 7.34912C9.59143 7.3332 9.61617 7.32335 9.64215 7.32069C9.66814 7.31803 9.69436 7.32265 9.71786 7.33405C9.74137 7.34544 9.76124 7.36316 9.77525 7.3852L10.0642 7.84003C12.9256 6.00615 16.7548 6.42756 19.1663 8.83909C21.5397 11.2151 21.9771 14.9704 20.2282 17.821C20.2186 17.8363 20.206 17.8496 20.1912 17.8601C20.1765 17.8706 20.1598 17.878 20.1421 17.882C20.1244 17.886 20.1061 17.8865 20.0883 17.8834C20.0704 17.8803 20.0536 17.8737 20.0383 17.864Z" fill="white"/>
<path d="M18.6165 14.5327V13.4692C18.6164 13.4159 18.5977 13.3643 18.5634 13.3234C18.5292 13.2825 18.4817 13.255 18.4292 13.2456L17.6918 13.1143C17.6 12.7379 17.4541 12.3614 17.2306 12.0155L17.6626 11.3974C17.6932 11.3537 17.7074 11.3005 17.7028 11.2474C17.6981 11.1942 17.6749 11.1444 17.6372 11.1066L16.8923 10.3619C16.8545 10.3242 16.8047 10.301 16.7516 10.2963C16.6985 10.2916 16.6454 10.3057 16.6017 10.3362L15.9859 10.7661C15.6424 10.5473 15.2636 10.4038 14.8894 10.3096L14.756 9.56987C14.7466 9.5174 14.719 9.46991 14.6781 9.43572C14.6372 9.40153 14.5856 9.3828 14.5323 9.38281L13.4671 9.38469C13.414 9.38483 13.3626 9.40356 13.3218 9.43765C13.2811 9.47173 13.2535 9.51902 13.244 9.57128L13.1106 10.3073C12.7341 10.4014 12.3647 10.5543 12.0212 10.7685L11.3984 10.332C11.3547 10.3014 11.3016 10.2871 11.2484 10.2917C11.1952 10.2963 11.1454 10.3195 11.1076 10.3572L10.3617 11.1009C10.3242 11.1384 10.301 11.1879 10.2961 11.2407C10.2912 11.2935 10.3049 11.3463 10.3348 11.3901L10.7671 12.0226C10.5577 12.3638 10.4047 12.7261 10.3106 13.1073L9.57179 13.2426C9.51961 13.2522 9.47244 13.2798 9.43844 13.3205C9.40445 13.3612 9.38578 13.4126 9.38567 13.4656L9.38379 14.5301C9.38379 14.6407 9.46308 14.7353 9.57202 14.7541L10.3156 14.8835C10.405 15.2623 10.56 15.6318 10.7694 15.9823L10.3396 16.5981C10.309 16.6419 10.2949 16.695 10.2996 16.7482C10.3044 16.8014 10.3277 16.8512 10.3654 16.8889L11.1099 17.6336C11.1477 17.6714 11.1976 17.6947 11.2508 17.6993C11.304 17.7039 11.3572 17.6897 11.401 17.659L12.0212 17.2249C12.3694 17.4414 12.7412 17.5967 13.12 17.6861L13.2476 18.4268C13.2664 18.5358 13.361 18.6155 13.4716 18.6155H14.5341C14.6445 18.6155 14.7388 18.5365 14.7579 18.4278L14.8897 17.6838C15.2659 17.5896 15.6353 17.4414 15.9767 17.232L16.6021 17.6598C16.6923 17.7214 16.8139 17.7101 16.8911 17.6327L17.637 16.8868C17.6748 16.8491 17.6981 16.7992 17.7029 16.746C17.7076 16.6928 17.6934 16.6396 17.6628 16.5958L17.2306 15.9779C17.4424 15.6343 17.5953 15.2626 17.6871 14.8861L18.4283 14.7567C18.5372 14.7376 18.6165 14.6433 18.6165 14.5327ZM15.5906 15.5849C14.713 16.4673 13.2871 16.4602 12.4141 15.5849C11.5388 14.7096 11.5318 13.2838 12.4118 12.4061C13.2824 11.5355 14.713 11.5355 15.5883 12.4108C16.4636 13.2838 16.4636 14.7143 15.5906 15.5849Z" fill="white"/>
<path d="M19.199 18.8709L18.555 20.6751C18.5462 20.6996 18.5308 20.7213 18.5105 20.7376C18.4901 20.7539 18.4657 20.7642 18.4398 20.7674C18.414 20.7707 18.3877 20.7666 18.364 20.7558C18.3403 20.745 18.3201 20.7278 18.3056 20.7061L17.9357 20.1549C15.0745 21.989 11.2528 21.5727 8.84155 19.1638C6.46155 16.7814 6.02085 13.0238 7.77096 10.1739C7.78099 10.1579 7.79408 10.1441 7.80948 10.1331C7.82488 10.1222 7.8423 10.1145 7.86071 10.1103C7.87913 10.1061 7.89819 10.1057 7.91679 10.1089C7.93539 10.1122 7.95316 10.1191 7.96908 10.1292L8.71426 10.6085C8.84014 10.6892 8.8752 10.8537 8.80038 10.9831C7.45285 13.309 7.83873 16.3196 9.76226 18.2429C11.734 20.2146 14.8611 20.5633 17.21 19.0753L17.0241 18.7996C17.0096 18.7779 17.0014 18.7525 17.0004 18.7264C16.9995 18.7003 17.0058 18.6745 17.0187 18.6518C17.0316 18.6291 17.0505 18.6104 17.0734 18.5978C17.0963 18.5853 17.1223 18.5794 17.1484 18.5807L19.074 18.6829C19.1681 18.688 19.2307 18.7821 19.199 18.8709Z" fill="white"/>
</g>
<defs>
<clipPath id="clip0_2241_11247">
<rect width="16" height="16" fill="white" transform="translate(6 6)"/>
</clipPath>
</defs>
</svg>
