<svg width="125" height="40" viewBox="0 0 125 40" fill="none" xmlns="http://www.w3.org/2000/svg">
<rect width="125" height="40" fill="#C9C9C9"/>
<g id="Thumbnail" clip-path="url(#clip0_0_1)">
<rect width="379" height="640" transform="translate(-127 -44)" fill="url(#paint0_linear_0_1)"/>
<g id="Rinku 3">
<rect width="125" height="40" rx="10" fill="white"/>
<path id="Vector" d="M46.8757 21.0717C46.8769 18.6692 46.8757 16.2668 46.8769 13.8655C46.8769 13.2404 46.9819 13.1194 47.5977 13.1252C50.1625 13.1496 52.7344 13.0845 55.2909 13.2451C57.9512 13.4115 60.0075 14.6372 60.9042 17.2527C61.1307 17.9126 61.0835 18.6762 61.0941 19.3932C61.1177 20.9599 60.3733 22.1879 59.2324 23.2064C58.9658 23.4439 58.639 23.6278 58.317 23.7919C57.9418 23.9851 57.9135 24.2517 58.1211 24.5473C58.8986 25.6554 59.6949 26.7507 60.4806 27.853C60.7107 28.1766 60.9313 28.5072 61.1519 28.8366C61.3525 29.1369 61.2333 29.3394 60.9053 29.3441C59.8259 29.3592 58.7334 29.4314 57.674 29.2836C57.2859 29.23 56.9319 28.6562 56.6405 28.2639C55.9398 27.3199 55.2815 26.3457 54.6149 25.3784C54.3247 24.9582 53.9707 24.7371 53.4222 24.7731C52.7285 24.8185 52.03 24.8011 51.334 24.7824C50.8243 24.7696 50.6497 25.0257 50.6509 25.4808C50.6533 26.5098 50.6545 27.5399 50.6462 28.5689C50.6415 29.2847 50.5813 29.3429 49.8569 29.3522C49.1054 29.3615 48.3539 29.3429 47.6024 29.3627C47.1612 29.3743 46.9642 29.1532 46.9052 28.7644C46.8804 28.605 46.8781 28.4408 46.8781 28.279C46.8745 25.8766 46.8745 23.4741 46.8757 21.0717ZM50.6214 18.8904C50.6202 18.8904 50.6191 18.8904 50.6179 18.8904C50.6179 19.6481 50.6167 20.4059 50.6179 21.1636C50.6179 21.521 50.7477 21.7456 51.1641 21.7421C52.3356 21.7317 53.5083 21.748 54.6798 21.7328C55.8053 21.7189 56.6771 21.1206 57.0617 20.1789C57.464 19.193 57.4923 18.0826 56.6618 17.1735C56.0766 16.5333 55.2732 16.2644 54.4674 16.1818C53.3797 16.0701 52.2731 16.1399 51.1747 16.1213C50.7783 16.1143 50.6108 16.2807 50.6179 16.6707C50.6297 17.411 50.6214 18.1513 50.6214 18.8904Z" fill="#313131"/>
<path id="Vector_2" d="M90.4412 16.6067C90.4412 17.9275 90.4333 19.2471 90.4502 20.5666C90.4525 20.758 90.5787 20.9482 90.6474 21.1384C90.8199 21.0498 91.025 20.9978 91.1603 20.8667C92.5308 19.5412 93.88 18.1933 95.2618 16.882C95.4298 16.7225 95.7487 16.6918 96.0001 16.6859C96.9277 16.6658 97.8576 16.6705 98.7852 16.6906C98.9565 16.6941 99.1256 16.8099 99.2958 16.8737C99.2259 17.0509 99.1988 17.2718 99.0805 17.4006C98.2836 18.2594 97.4653 19.0958 96.6583 19.9441C96.1286 20.5017 95.609 21.0687 95.086 21.6322C94.8369 21.9016 94.9192 22.165 95.1097 22.419C96.4566 24.2135 97.8057 26.0068 99.1526 27.8013C99.4006 28.1309 99.6666 28.4499 99.8852 28.7996C100.084 29.1162 100.046 29.3584 99.6023 29.3572C98.5158 29.3548 97.4259 29.4151 96.3472 29.3265C96.0249 29.2993 95.689 28.9023 95.4354 28.6046C94.5935 27.6158 93.7808 26.5975 92.9659 25.5839C92.7675 25.337 92.6402 25.0098 92.4069 24.816C92.2716 24.7038 91.9402 24.7014 91.7836 24.7995C91.459 25.0027 91.1411 25.2661 90.9134 25.5792C90.6925 25.8816 90.4953 26.2644 90.4536 26.6329C90.3792 27.2839 90.4412 27.9513 90.4254 28.6105C90.4119 29.1741 90.2236 29.3548 89.6804 29.3584C88.9793 29.3631 88.2783 29.3643 87.5783 29.3584C86.9066 29.3524 86.8761 29.3182 86.8761 28.6082C86.875 26.2608 86.875 23.9134 86.875 21.5661C86.875 18.7154 86.8761 15.8648 86.8761 13.0142C86.8761 11.8931 86.875 11.8907 87.9717 11.8789C88.5499 11.873 89.1281 11.8742 89.7063 11.8801C90.2473 11.886 90.4254 12.0632 90.4299 12.642C90.4401 13.9628 90.4333 15.2824 90.4333 16.6032C90.4355 16.6067 90.4389 16.6067 90.4412 16.6067Z" fill="#313131"/>
<path id="Vector_3" d="M83.1006 24.2538C83.1006 25.6836 83.1097 27.1146 83.0972 28.5444C83.0915 29.2227 82.9477 29.3438 82.3009 29.3486C81.5925 29.3534 80.8841 29.3701 80.1756 29.3749C79.6395 29.3785 79.5562 29.2455 79.5516 28.6618C79.5391 26.7478 79.5129 24.8351 79.4764 22.9223C79.4672 22.4501 79.417 21.9755 79.3589 21.5057C79.182 20.0771 78.3755 19.6192 77.2028 19.5785C75.8019 19.5293 74.8277 20.2365 74.4969 21.6782C74.3463 22.3338 74.2585 23.0193 74.2436 23.6941C74.2049 25.3672 74.2174 27.0415 74.2242 28.7158C74.2265 29.194 74.0429 29.3773 73.5843 29.3605C72.8051 29.333 72.0237 29.3294 71.2446 29.3605C70.8225 29.3773 70.6559 29.1772 70.6377 28.7853C70.6217 28.4329 70.632 28.0782 70.632 27.7258C70.6308 24.7128 70.6308 21.6986 70.6308 18.6856C70.6308 18.1487 70.6194 17.6118 70.6285 17.0748C70.6365 16.6206 70.7962 16.3605 71.3062 16.3893C72.0305 16.4313 72.7595 16.4073 73.485 16.3941C73.8752 16.3869 74.0645 16.5547 74.117 16.967C74.182 17.4835 74.2699 17.4931 74.725 17.2139C76.1852 16.315 77.7287 16.0609 79.4148 16.3845C80.7221 16.635 81.5834 17.4464 82.3591 18.4531C83.039 19.3364 83.039 20.421 83.0983 21.4673C83.1508 22.3937 83.1097 23.3262 83.1097 24.2574C83.1051 24.2538 83.1029 24.2538 83.1006 24.2538Z" fill="#313131"/>
<path id="Vector_4" d="M114.368 23.0631C114.368 24.7818 114.372 26.5015 114.367 28.2202C114.365 29.0639 114.196 29.2301 113.375 29.2324C112.789 29.2336 112.204 29.2128 111.62 29.2359C111.184 29.2532 110.965 29.1078 110.932 28.6415C110.893 28.0921 110.648 27.9882 110.219 28.3194C108.16 29.9053 105.225 29.6122 103.448 28.054C102.445 27.1745 101.925 25.9348 101.9 24.5798C101.854 22.1986 101.887 19.8163 101.879 17.4351C101.878 17.0727 102.041 16.8984 102.385 16.8938C103.217 16.8834 104.05 16.8707 104.883 16.8846C105.279 16.8915 105.468 17.0993 105.463 17.539C105.444 19.4192 105.426 21.3006 105.468 23.1797C105.484 23.878 105.524 24.5821 105.961 25.2261C106.506 26.0306 107.275 26.2545 108.124 26.2072C109.56 26.1287 110.647 25.0195 110.694 23.5571C110.757 21.5892 110.727 19.6189 110.733 17.6487C110.735 17.0162 110.835 16.8915 111.457 16.8811C112.148 16.8696 112.84 16.8765 113.531 16.8846C114.218 16.8927 114.375 17.0577 114.375 17.7433C114.375 19.5162 114.375 21.2891 114.375 23.062C114.372 23.0631 114.369 23.0631 114.368 23.0631Z" fill="#313131"/>
<path id="Vector_5" d="M34.375 13.5689C34.3066 13.7021 34.2406 13.875 34.1392 14.0203C33.112 15.4872 32.0767 16.9493 31.0495 18.4163C30.7429 18.8544 30.6474 18.8748 30.4033 18.3959C30.0378 17.6804 29.7194 16.9397 29.3821 16.2087C28.9187 15.2027 28.48 14.1847 27.9741 13.2015C27.8774 13.0143 27.5271 12.8882 27.2807 12.8642C25.4434 12.6842 23.6026 12.5317 21.763 12.3804C21.1887 12.3336 21.1215 12.2592 21.4375 11.7754C22.4694 10.2004 23.5154 8.63386 24.5826 7.08289C24.6781 6.94363 24.9635 6.8632 25.1533 6.87641C26.7571 6.98925 28.3715 7.31577 29.9599 7.21253C31.6392 7.10329 31.9505 8.27853 32.4741 9.35052C33.0955 10.623 33.6828 11.9135 34.2807 13.1979C34.3243 13.2964 34.3349 13.4104 34.375 13.5689Z" fill="#8960CF"/>
<path id="Vector_6" d="M15.1633 11.8883C16.625 12.0049 18.0856 12.1238 19.5473 12.2345C19.7999 12.2532 20.056 12.2252 20.3085 12.2392C20.6371 12.2578 20.7237 12.3651 20.5027 12.674C19.4771 14.1102 18.4761 15.564 17.4553 17.0025C17.1173 17.4793 17.0846 17.9911 17.3149 18.4854C17.9979 19.9519 18.7194 21.4021 19.4245 22.8593C19.4631 22.9398 19.5099 23.0167 19.5438 23.0995C19.7613 23.6311 19.6326 23.8013 19.055 23.7372C18.4434 23.6707 17.8341 23.5798 17.2214 23.5331C16.1923 23.455 15.1621 23.3921 14.1307 23.3478C13.5893 23.3245 13.2467 23.1636 13.0491 22.5854C12.8129 21.8964 12.4071 21.2657 12.0867 20.6036C11.7359 19.8796 11.3991 19.1487 11.0576 18.4212C11.0342 18.3723 11.0331 18.3082 11.0003 18.2697C10.2706 17.4373 10.7396 16.795 11.2693 16.0839C12.1732 14.8715 13.0046 13.6066 13.8571 12.3558C14.1869 11.8743 14.6558 11.8475 15.1633 11.8883Z" fill="#8960CF"/>
<path id="Vector_7" d="M28.7121 30.5881C27.0267 30.501 25.3401 30.4258 23.6557 30.3195C23.1212 30.2861 22.9371 29.7908 22.7473 29.3575C22.0825 27.8427 21.4245 26.3244 20.7743 24.8013C20.6935 24.6103 20.6733 24.3907 20.625 24.1842C20.808 24.1902 20.9911 24.1866 21.173 24.2057C22.2094 24.3107 23.2447 24.4205 24.28 24.5304C24.9021 24.596 25.5287 24.6342 26.1452 24.7381C26.5506 24.8061 26.8998 24.7369 27.1255 24.3919C27.9272 23.1708 28.702 21.9294 29.4881 20.6952C29.7306 20.3144 29.9675 19.9289 30.2236 19.5588C30.2887 19.4645 30.4212 19.3774 30.5245 19.375C30.5829 19.3738 30.6559 19.5457 30.7053 19.6484C31.0714 20.4159 31.4385 21.1834 31.7923 21.9581C31.9124 22.2195 31.9764 22.5107 32.1011 22.7697C32.4087 23.4095 32.7557 24.0278 33.0421 24.6772C33.1296 24.8741 33.1645 25.2119 33.0634 25.3707C32.3099 26.5596 31.5172 27.7198 30.7345 28.8872C30.474 29.2763 30.1685 29.638 29.9507 30.0522C29.661 30.6036 29.2276 30.6896 28.7121 30.5881Z" fill="#8960CF"/>
<path id="Vector_8" d="M40.6402 19.9815C40.6402 15.4152 40.6554 10.849 40.625 6.28268C40.6207 5.56873 41.1857 5.89816 41.3972 5.625C41.5512 5.83016 41.7595 6.01422 41.843 6.24869C41.9156 6.45267 41.8419 6.71411 41.8419 6.95092C41.8408 15.7201 41.8408 24.4892 41.8408 33.2583C41.8408 33.3861 41.8332 33.5139 41.8473 33.6405C41.894 34.0778 41.8365 34.3908 41.3159 34.3744C40.6944 34.3545 40.638 34.3111 40.638 33.6264C40.6391 29.0777 40.6391 24.5302 40.6391 19.9815C40.638 19.9815 40.6391 19.9815 40.6402 19.9815Z" fill="#313131"/>
<path id="Vector_9" d="M67.4978 23.1578C67.499 24.9277 67.5027 26.6963 67.4965 28.4661C67.4928 29.3346 67.4483 29.3652 66.5624 29.3605C65.8741 29.3569 65.1846 29.344 64.4976 29.3734C63.9341 29.3981 63.7476 29.1369 63.75 28.6497C63.7562 27.4824 63.75 26.315 63.75 25.1477C63.7513 22.6483 63.7537 20.1501 63.7562 17.6507C63.7574 16.9858 63.8563 16.8988 64.5532 16.8976C65.2625 16.8964 65.9717 16.8811 66.681 16.8752C67.3643 16.8693 67.4916 16.9776 67.4928 17.6307C67.5002 19.4735 67.4965 21.3151 67.4978 23.1578Z" fill="#313131"/>
<path id="Vector_10" d="M65.3538 10.6288C66.7277 10.7039 67.5613 11.585 67.4965 12.8944C67.4385 14.0757 66.3967 15.125 65.2435 14.9879C63.922 14.83 63.094 14.3267 63.1259 12.5451C63.1475 11.3858 64.1256 10.5616 65.3538 10.6288Z" fill="#313131"/>
</g>
</g>
<defs>
<linearGradient id="paint0_linear_0_1" x1="4.3427" y1="69.9127" x2="440.203" y2="136.375" gradientUnits="userSpaceOnUse">
<stop stop-color="#8960CF"/>
<stop offset="1" stop-color="#582BA4"/>
</linearGradient>
<clipPath id="clip0_0_1">
<rect width="379" height="640" fill="white" transform="translate(-127 -44)"/>
</clipPath>
</defs>
</svg>
