<svg width="28" height="28" viewBox="0 0 28 28" fill="none" xmlns="http://www.w3.org/2000/svg">
<rect width="28" height="28" rx="4" fill="#01174F"/>
<path fill-rule="evenodd" clip-rule="evenodd" d="M21.993 11.6737C21.7045 11.3833 21.3611 11.1532 20.983 10.9965C20.6048 10.8399 20.1992 10.76 19.7899 10.7613C19.7086 10.7613 19.6247 10.7622 19.5395 10.7666C19.3911 8.09438 17.1824 6.00278 14.506 6.00002C13.397 5.99661 12.3185 6.36261 11.4406 7.04025C10.6337 7.66174 10.0319 8.51106 9.71303 9.47833C7.57006 9.82906 5.99755 11.6821 6.00015 13.8536C6.00015 13.8574 6.00015 13.8607 6.0003 13.8644V13.8747C6.00015 13.8793 6 13.877 6 13.8817C6.00275 15.8594 7.6074 17.4608 9.58513 17.4598H12.7833V18.2037H11.5117C11.4735 18.2027 11.4355 18.2095 11.4 18.2236C11.3645 18.2378 11.3323 18.2589 11.3051 18.2858C11.278 18.3127 11.2566 18.3448 11.2422 18.3801C11.2278 18.4155 11.2207 18.4534 11.2213 18.4916V19.7467C11.047 19.7926 10.8887 19.8857 10.7638 20.0156C10.6134 20.163 10.5102 20.3518 10.4672 20.558C10.4243 20.7641 10.4435 20.9784 10.5225 21.1736C10.6014 21.3689 10.7366 21.5363 10.9107 21.6546C11.0849 21.773 11.2903 21.837 11.5009 21.8384C11.7115 21.8399 11.9177 21.7787 12.0935 21.6628C12.2693 21.5469 12.4068 21.3814 12.4884 21.1873C12.5701 20.9932 12.5922 20.7792 12.5521 20.5725C12.5121 20.3658 12.4115 20.1756 12.2632 20.0261H12.2667C12.1383 19.8773 11.9651 19.7959 11.8163 19.7467V18.7987H13.0704C13.1514 18.797 13.2286 18.7641 13.2859 18.7069C13.3433 18.6497 13.3764 18.5726 13.3784 18.4916V17.4598H14.1594V19.9186C13.6521 20.0666 13.3309 20.5652 13.4057 21.0883C13.4804 21.6114 13.9284 22 14.457 22C14.9854 22 15.4334 21.6113 15.5082 21.0883C15.583 20.5652 15.2618 20.0666 14.7545 19.9185V17.4598H15.5356V18.4916C15.5375 18.5726 15.5706 18.6497 15.628 18.7069C15.6854 18.7641 15.7626 18.797 15.8435 18.7987H17.0976V19.7467C16.9489 19.7959 16.7756 19.8773 16.6472 20.0261H16.649C16.2384 20.4432 16.2434 21.1141 16.6602 21.5249C17.077 21.9359 17.7479 21.9314 18.159 21.5149C18.5703 21.0984 18.5663 20.4275 18.1502 20.0161C18.0253 19.8859 17.867 19.7927 17.6927 19.7467V18.4916C17.6933 18.4534 17.6862 18.4155 17.6718 18.3801C17.6574 18.3448 17.636 18.3127 17.6089 18.2857C17.5817 18.2589 17.5494 18.2377 17.5139 18.2236C17.4784 18.2095 17.4404 18.2027 17.4023 18.2037H16.1306V17.4598H19.3288C21.3064 17.4608 22.9109 15.8595 22.9138 13.8819C22.9138 13.8593 22.9108 13.8368 22.9045 13.815C22.8892 13.0102 22.5625 12.2426 21.993 11.6737ZM17.2844 14.3265L17.5895 13.5367C17.6115 13.4795 17.6152 13.4168 17.6003 13.3573C17.5854 13.2978 17.5525 13.2444 17.5061 13.2043L17.27 13.0005C17.284 12.8099 17.279 12.6183 17.2552 12.4285L17.4831 12.21C17.5271 12.1678 17.557 12.1132 17.5689 12.0535C17.5808 11.9938 17.5741 11.9318 17.5497 11.876L17.2102 11.0999C17.1856 11.0435 17.144 10.996 17.0912 10.9642C17.0385 10.9323 16.9771 10.9177 16.9157 10.9222L16.6019 10.9454C16.4783 10.7986 16.3389 10.6659 16.1864 10.5495L16.1958 10.2371C16.1977 10.1755 16.1804 10.1149 16.1463 10.0636C16.1122 10.0123 16.063 9.97286 16.0055 9.95075L15.2156 9.64566C15.1583 9.62361 15.0957 9.61978 15.0361 9.63468C14.9766 9.64959 14.9232 9.6825 14.8831 9.72893L14.6794 9.96514C14.4886 9.95119 14.297 9.95616 14.1072 9.97998L13.8887 9.75203C13.8466 9.70809 13.7919 9.67815 13.7322 9.66626C13.6725 9.65436 13.6105 9.66107 13.5547 9.68549L12.7787 10.025C12.7223 10.0497 12.6749 10.0912 12.6431 10.1439C12.6113 10.1967 12.5966 10.258 12.6011 10.3194L12.6242 10.6331C12.4775 10.7567 12.3448 10.8961 12.2285 11.0487L11.9158 11.0395C11.8542 11.0376 11.7936 11.0549 11.7423 11.089C11.6909 11.1231 11.6515 11.1723 11.6293 11.2298L11.3244 12.0197C11.3023 12.0769 11.2985 12.1396 11.3134 12.1991C11.3283 12.2586 11.3612 12.312 11.4076 12.3521L11.6439 12.5559C11.6299 12.7466 11.6348 12.9381 11.6587 13.1278L11.4309 13.3465C11.3869 13.3886 11.3569 13.4432 11.345 13.503C11.3331 13.5627 11.3398 13.6246 11.3642 13.6804L11.7037 14.4565C11.7283 14.5129 11.7699 14.5603 11.8227 14.5921C11.8754 14.6239 11.9368 14.6385 11.9982 14.6339L12.312 14.6108C12.4356 14.7576 12.5749 14.8903 12.7275 15.0066L12.7184 15.3192C12.7165 15.3808 12.7338 15.4414 12.7679 15.4927C12.8019 15.544 12.8511 15.5835 12.9085 15.6057L13.6984 15.9106C13.7557 15.9327 13.8183 15.9365 13.8779 15.9216C13.9374 15.9067 13.9909 15.8738 14.031 15.8274L14.2347 15.5912C14.4253 15.6051 14.6168 15.6002 14.8065 15.5763L15.0252 15.8041C15.0673 15.8481 15.1219 15.8781 15.1817 15.89C15.2414 15.9019 15.3033 15.8953 15.3592 15.8709L16.1352 15.5313C16.1916 15.5067 16.239 15.4651 16.2708 15.4124C16.3025 15.3596 16.3172 15.2984 16.3126 15.237L16.2895 14.923C16.4363 14.7995 16.5691 14.6603 16.6854 14.5077L16.998 14.5169C17.0595 14.5185 17.1201 14.5011 17.1714 14.4671C17.2226 14.433 17.2621 14.3839 17.2844 14.3265Z" fill="white"/>
</svg>
