<svg width="28" height="28" viewBox="0 0 28 28" fill="none" xmlns="http://www.w3.org/2000/svg">
<rect width="28" height="28" rx="4" fill="#01174F"/>
<g clip-path="url(#clip0_2241_11216)">
<path fill-rule="evenodd" clip-rule="evenodd" d="M11 17.5V21H21V13.5H11V17.5ZM8 18H10V21.5C10 21.6326 10.0527 21.7598 10.1464 21.8536C10.2402 21.9473 10.3674 22 10.5 22H21.5C21.6326 22 21.7598 21.9473 21.8536 21.8536C21.9473 21.7598 22 21.6326 22 21.5V13C22 12.8674 21.9473 12.7402 21.8536 12.6464C21.7598 12.5527 21.6326 12.5 21.5 12.5H10.5C10.3674 12.5 10.2402 12.5527 10.1464 12.6464C10.0527 12.7402 10 12.8674 10 13V17H8C7.73478 17 7.48043 16.8946 7.29289 16.7071C7.10536 16.5196 7 16.2652 7 16V8C7 7.73478 7.10536 7.48043 7.29289 7.29289C7.48043 7.10536 7.73478 7 8 7H13C13.2652 7 13.5196 7.10536 13.7071 7.29289C13.8946 7.48043 14 7.73478 14 8V11C14 11.1326 14.0527 11.2598 14.1464 11.3536C14.2402 11.4473 14.3674 11.5 14.5 11.5C14.6326 11.5 14.7598 11.4473 14.8536 11.3536C14.9473 11.2598 15 11.1326 15 11V8C15 7.46957 14.7893 6.96086 14.4142 6.58579C14.0391 6.21071 13.5304 6 13 6H8C7.46957 6 6.96086 6.21071 6.58579 6.58579C6.21071 6.96086 6 7.46957 6 8V16C6 16.5304 6.21071 17.0391 6.58579 17.4142C6.96086 17.7893 7.46957 18 8 18Z" fill="white"/>
<path d="M9.5 11.5C9.10218 11.5 8.72064 11.342 8.43934 11.0607C8.15804 10.7794 8 10.3978 8 10V8.5C8 8.36739 8.05268 8.24021 8.14645 8.14645C8.24021 8.05268 8.36739 8 8.5 8C8.63261 8 8.75979 8.05268 8.85355 8.14645C8.94732 8.24021 9 8.36739 9 8.5V10C9 10.1326 9.05268 10.2598 9.14645 10.3536C9.24021 10.4473 9.36739 10.5 9.5 10.5C9.63261 10.5 9.75979 10.4473 9.85355 10.3536C9.94732 10.2598 10 10.1326 10 10V8.5C10 8.36739 10.0527 8.24021 10.1464 8.14645C10.2402 8.05268 10.3674 8 10.5 8C10.6326 8 10.7598 8.05268 10.8536 8.14645C10.9473 8.24021 11 8.36739 11 8.5V10C11 10.3978 10.842 10.7794 10.5607 11.0607C10.2794 11.342 9.89782 11.5 9.5 11.5Z" fill="white"/>
<path d="M13.5 18C13.1022 18 12.7206 17.842 12.4393 17.5607C12.158 17.2794 12 16.8978 12 16.5V15C12 14.8674 12.0527 14.7402 12.1464 14.6464C12.2402 14.5527 12.3674 14.5 12.5 14.5C12.6326 14.5 12.7598 14.5527 12.8536 14.6464C12.9473 14.7402 13 14.8674 13 15V16.5C13 16.6326 13.0527 16.7598 13.1464 16.8536C13.2402 16.9473 13.3674 17 13.5 17C13.6326 17 13.7598 16.9473 13.8536 16.8536C13.9473 16.7598 14 16.6326 14 16.5V15C14 14.8674 14.0527 14.7402 14.1464 14.6464C14.2402 14.5527 14.3674 14.5 14.5 14.5C14.6326 14.5 14.7598 14.5527 14.8536 14.6464C14.9473 14.7402 15 14.8674 15 15V16.5C15 16.8978 14.842 17.2794 14.5607 17.5607C14.2794 17.842 13.8978 18 13.5 18Z" fill="white"/>
<path d="M12.5 11.5C12.3674 11.5 12.2402 11.4473 12.1464 11.3536C12.0527 11.2598 12 11.1326 12 11V8.5C12 8.36739 12.0527 8.24021 12.1464 8.14645C12.2402 8.05268 12.3674 8 12.5 8C12.6326 8 12.7598 8.05268 12.8536 8.14645C12.9473 8.24021 13 8.36739 13 8.5V11C13 11.1326 12.9473 11.2598 12.8536 11.3536C12.7598 11.4473 12.6326 11.5 12.5 11.5Z" fill="white"/>
<path fill-rule="evenodd" clip-rule="evenodd" d="M15.7354 17.9247C15.8147 17.9748 15.9064 18.0015 16.0001 18.002C16.0752 18.0016 16.1493 17.9844 16.2168 17.9515C16.2843 17.9186 16.3436 17.8709 16.3901 17.812L17.0001 17.0495L17.61 17.8119C17.6566 17.8709 17.7158 17.9186 17.7834 17.9514C17.8509 17.9843 17.9249 18.0016 18 18.0019C18.0938 18.0015 18.1855 17.9747 18.2647 17.9247C18.344 17.8746 18.4076 17.8033 18.4482 17.7189C18.4889 17.6344 18.505 17.5402 18.4947 17.4471C18.4844 17.3539 18.4482 17.2655 18.39 17.1919L17.6381 16.252L18.3901 15.312C18.4377 15.2616 18.4742 15.2019 18.4975 15.1367C18.5207 15.0715 18.5302 15.0022 18.5253 14.9331C18.5203 14.8641 18.5011 14.7968 18.4688 14.7355C18.4365 14.6743 18.3919 14.6204 18.3377 14.5773C18.2835 14.5343 18.2209 14.5029 18.154 14.4853C18.087 14.4676 18.0171 14.4641 17.9487 14.4748C17.8803 14.4856 17.8149 14.5105 17.7566 14.5479C17.6984 14.5852 17.6485 14.6343 17.6101 14.692L17.0001 15.4545L16.39 14.6919C16.3041 14.6009 16.187 14.5454 16.0621 14.5364C15.9371 14.5275 15.8134 14.5658 15.7153 14.6437C15.6173 14.7217 15.552 14.8336 15.5325 14.9573C15.513 15.0811 15.5407 15.2076 15.61 15.3119L16.3621 16.252L15.6101 17.192C15.552 17.2655 15.5158 17.3539 15.5055 17.4471C15.4952 17.5402 15.5113 17.6344 15.5519 17.7189C15.5926 17.8033 15.6562 17.8747 15.7354 17.9247Z" fill="white"/>
<path d="M13.5 20H12.5C12.3674 20 12.2402 19.9473 12.1464 19.8536C12.0527 19.7598 12 19.6326 12 19.5C12 19.3674 12.0527 19.2402 12.1464 19.1464C12.2402 19.0527 12.3674 19 12.5 19H13.5C13.6326 19 13.7598 19.0527 13.8536 19.1464C13.9473 19.2402 14 19.3674 14 19.5C14 19.6326 13.9473 19.7598 13.8536 19.8536C13.7598 19.9473 13.6326 20 13.5 20ZM19.5 20H15.5C15.3674 20 15.2402 19.9473 15.1464 19.8536C15.0527 19.7598 15 19.6326 15 19.5C15 19.3674 15.0527 19.2402 15.1464 19.1464C15.2402 19.0527 15.3674 19 15.5 19H19.5C19.6326 19 19.7598 19.0527 19.8536 19.1464C19.9473 19.2402 20 19.3674 20 19.5C20 19.6326 19.9473 19.7598 19.8536 19.8536C19.7598 19.9473 19.6326 20 19.5 20Z" fill="white"/>
</g>
<defs>
<clipPath id="clip0_2241_11216">
<rect width="16" height="16" fill="white" transform="translate(6 6)"/>
</clipPath>
</defs>
</svg>
