<svg width="79" height="53" viewBox="0 0 79 53" fill="none" xmlns="http://www.w3.org/2000/svg">
<path d="M1.44597 44.8034C1.32346 45.0481 1.37246 45.2647 1.37124 45.4763C1.37124 46.6106 1.37124 47.746 1.37124 48.8802C1.37124 49.2913 1.36144 49.306 0.943656 49.3036C-0.196974 49.2962 0.0174301 49.4369 0.0137546 48.3835C0.00395322 45.3515 0.0137546 42.3184 0.0137546 39.2864C0.0137546 39.1494 0.0198804 39.0124 0.0137546 38.8753C0.00272805 38.649 0.108092 38.5805 0.328622 38.5658C1.37737 38.4911 1.37737 38.485 1.37737 39.5507C1.37737 40.7437 1.37737 41.9366 1.37737 43.1308C1.37737 43.5896 1.37737 43.597 1.80862 43.5982C3.37602 43.5982 4.94342 43.5982 6.51082 43.5982C6.9237 43.5982 6.93227 43.5884 6.9335 43.181C6.9335 41.8351 6.9335 40.4806 6.9335 39.1311C6.9335 38.5756 6.9335 38.567 7.46032 38.5719C8.3841 38.5817 8.27261 38.4336 8.27383 39.3721C8.27873 42.444 8.27873 45.5159 8.27383 48.5878C8.27383 48.7248 8.2677 48.8619 8.27383 48.9977C8.28486 49.224 8.18072 49.2938 7.95896 49.3109C6.92982 49.3892 6.93105 49.3953 6.93105 48.3639C6.93105 47.3084 6.93105 46.2521 6.93105 45.1949C6.93105 45.004 6.9678 44.7985 6.65539 44.7997C4.91197 44.8071 3.17101 44.8034 1.44597 44.8034Z" fill="white"/>
<path d="M62.0348 41.9425V43.0082C62.2872 43.0205 62.346 42.8186 62.4562 42.7109C63.0811 42.1077 63.8186 41.7969 64.6885 41.8544C65.502 41.907 66.1452 42.2668 66.5703 42.9813C66.6292 43.0792 66.6549 43.204 66.8154 43.2872C66.9244 43.1563 67.0347 43.0082 67.1609 42.8736C67.9597 42.0172 68.9398 41.7015 70.0878 41.9132C70.8621 42.0551 71.3852 42.5176 71.6989 43.2272C71.9165 43.7319 72.0283 44.2757 72.0272 44.8252C72.0395 46.1711 72.0334 47.5243 72.0272 48.8739C72.0272 49.2923 72.0174 49.3046 71.6082 49.3046C70.5828 49.3046 70.7812 49.3792 70.7727 48.5288C70.7616 47.4729 70.7727 46.4158 70.7727 45.3599C70.7833 44.9685 70.7363 44.5777 70.633 44.2C70.2654 42.9764 68.9606 42.5849 67.9719 43.4047C67.412 43.8684 67.1548 44.4948 67.1021 45.202C67.0702 45.6303 67.0812 46.0585 67.08 46.4929C67.08 47.3139 67.08 48.1349 67.08 48.9571C67.08 49.2018 67.0041 49.2972 66.7468 49.3131C65.8218 49.3706 65.823 49.3792 65.8218 48.4383C65.8218 47.3824 65.8218 46.3265 65.8144 45.2706C65.8137 44.977 65.7784 44.6846 65.7091 44.3994C65.5473 43.7301 65.2288 43.1759 64.5023 43.0351C64.1559 42.9526 63.7928 42.9736 63.4583 43.0954C63.1237 43.2172 62.8323 43.4345 62.6204 43.7203C62.2322 44.2197 62.0269 44.8367 62.0385 45.4688C62.0299 46.1539 62.0385 46.8379 62.0385 47.5231C62.0385 47.8742 62.0483 48.2266 62.0385 48.579C62.0299 48.8041 62.161 49.1247 61.9539 49.2373C61.6488 49.4086 61.2678 49.3058 60.9199 49.2838C60.8353 49.2838 60.7974 49.2006 60.7876 49.1161C60.7778 49.0317 60.7876 48.9216 60.7876 48.8237C60.7876 46.6923 60.7876 44.5605 60.7876 42.4283C60.7876 41.9511 60.7876 41.9499 61.2605 41.9389C61.4859 41.9401 61.7187 41.9425 62.0348 41.9425Z" fill="white"/>
<path d="M24.0766 48.1096C23.9971 48.1587 23.9214 48.2134 23.8499 48.2735C22.8147 49.4628 21.5099 49.6366 20.1107 49.1569C18.665 48.6614 17.9446 47.5492 17.8197 46.0528C17.718 44.8501 18.0206 43.7697 18.8807 42.879C20.1634 41.549 22.5329 41.4548 23.7581 42.879C23.7991 42.9225 23.8429 42.9634 23.8891 43.0013C24.0815 42.9108 24.0117 42.7334 24.0117 42.5963C24.0178 41.2871 24.0117 39.9779 24.0117 38.6688C24.0117 38.1891 24.0117 38.1891 24.4858 38.1793C25.2675 38.1671 25.2675 38.1671 25.2675 38.9343V48.6063C25.2675 48.7287 25.2675 48.8413 25.2675 48.9587C25.2675 49.0175 25.2846 49.0896 25.2564 49.1325C25.0335 49.4677 24.6941 49.245 24.4098 49.2952C24.2175 49.3282 24.0631 49.2707 24.0729 49.0199C24.0839 48.7556 24.0766 48.4864 24.0766 48.1096ZM21.5724 42.9976C20.1218 43.0038 19.0571 44.138 19.0608 45.6747C19.0608 47.1613 20.1634 48.2846 21.5944 48.2601C23.0254 48.2356 24.0668 47.1381 24.0705 45.676C24.0741 44.1294 23.0132 42.9915 21.5724 42.9976Z" fill="white"/>
<path d="M51.9487 43.0904C52.0859 42.7564 52.0209 42.4847 52.0295 42.2253C52.0295 42.0406 52.0736 41.9537 52.288 41.9366C53.2767 41.8595 53.2755 41.8522 53.2755 42.8493C53.2755 44.8429 53.2755 46.836 53.2755 48.8288C53.2755 49.295 53.2694 49.3047 52.8479 49.3047C51.8837 49.3047 52.0871 49.3696 52.0663 48.5315C52.0663 48.4348 52.0663 48.3369 52.0663 48.2501C51.9217 48.1779 51.8702 48.2806 51.8212 48.3504C50.585 49.952 47.2563 49.7917 46.2063 47.3422C45.9446 46.7604 45.8224 46.1257 45.8494 45.4885C45.8764 44.8513 46.0519 44.2292 46.3619 43.6716C46.7579 42.9313 47.4106 42.3606 48.1977 42.0664C48.9849 41.7723 49.8524 41.7748 50.6377 42.0736C51.1498 42.2731 51.5554 42.6267 51.9487 43.0904ZM52.065 45.6745C52.065 44.4999 51.4623 43.5211 50.5042 43.1479C48.947 42.5361 47.2869 43.6287 47.1301 45.3576C47.0076 46.7353 47.7696 47.9013 48.9776 48.1717C50.6622 48.5584 52.065 47.4254 52.065 45.6745Z" fill="white"/>
<path d="M39.7397 45.612C39.7397 47.8291 38.2008 49.3732 35.9698 49.3805C33.7388 49.3878 32.1608 47.856 32.1485 45.6609C32.135 43.4353 33.7204 41.8447 35.9527 41.8447C38.1629 41.8447 39.7335 43.4084 39.7397 45.612ZM35.9208 42.9973C34.48 43.0059 33.408 44.1181 33.4043 45.6108C33.4006 47.1035 34.5168 48.2732 35.9625 48.2561C37.4082 48.2389 38.4679 47.1292 38.4679 45.6291C38.4741 44.1009 37.3984 42.9887 35.9208 42.9973Z" fill="white"/>
<path d="M9.92188 41.9444H11.0809C11.3186 41.9444 11.3406 42.1451 11.4068 42.3017C12.0071 43.7014 12.6025 45.1023 13.2078 46.4996C13.3303 46.797 13.4295 47.1114 13.6721 47.4344C13.862 46.9658 14.0311 46.5584 14.1953 46.1473C14.7013 44.8784 15.217 43.6133 15.7022 42.3359C15.8247 42.0239 15.9767 41.904 16.3025 41.9383C16.5527 41.9511 16.8034 41.9511 17.0536 41.9383C17.1932 42.1218 17.0474 42.2552 16.996 42.3824C15.7373 45.5171 14.4742 48.6494 13.2065 51.7792C13.0044 52.2784 13.0007 52.2772 12.4482 52.2784H11.7866C11.7596 51.9982 11.9017 51.8012 11.9826 51.592C12.2668 50.864 12.5548 50.1384 12.8611 49.4202C12.9219 49.2905 12.9525 49.1487 12.9506 49.0054C12.9487 48.8621 12.9143 48.7212 12.85 48.5931C11.9446 46.5804 11.0576 44.5554 10.1669 42.5415C10.0897 42.3739 10.0223 42.1964 9.92188 41.9444Z" fill="white"/>
<path d="M74.1107 47.415C74.6265 47.8518 75.1766 48.1724 75.8394 48.2532C76.2464 48.3236 76.6646 48.2933 77.0572 48.1651C77.4247 48.0268 77.7004 47.7894 77.7347 47.3636C77.769 46.9379 77.5166 46.7066 77.176 46.5561C76.7656 46.3762 76.3417 46.2233 75.9215 46.0667C75.5147 45.9266 75.1227 45.7467 74.7514 45.5296C74.0788 45.105 73.748 44.503 73.808 43.7053C73.8681 42.9075 74.3153 42.3875 75.0112 42.1049C76.2792 41.591 77.4615 41.8504 78.5641 42.6029C78.7308 42.7166 78.7467 42.8304 78.6291 42.9895C78.5115 43.1486 78.3938 43.3504 78.2726 43.5278C78.22 43.5928 78.164 43.6549 78.1047 43.7138C77.5803 43.2929 77.0192 42.9956 76.3454 42.9724C76.028 42.9626 75.7169 42.9858 75.4449 43.1718C74.9805 43.4875 74.9377 44.0393 75.3493 44.4198C75.5943 44.6498 75.9129 44.7673 76.2216 44.8909C76.7484 45.1001 77.2863 45.2861 77.7996 45.5259C78.7467 45.9664 79.0579 46.4962 78.9942 47.4603C78.9726 47.8652 78.8224 48.2526 78.5653 48.5664C78.3081 48.8802 77.9575 49.1039 77.5644 49.2051C76.2167 49.5954 74.9327 49.3984 73.7664 48.5811C73.5569 48.4342 73.4552 48.3021 73.6537 48.0672C73.771 47.9099 73.8797 47.7466 73.9796 47.5778C74.0139 47.53 74.0543 47.4872 74.1107 47.415Z" fill="white"/>
<path d="M45.3381 39.5887C45.0318 39.4677 44.7188 39.364 44.4009 39.278C43.6364 39.1164 43.1757 39.4419 43.1034 40.2201C43.0568 40.6863 43.0875 41.1585 43.0728 41.6272C43.0642 41.8963 43.21 41.9502 43.4403 41.9453C43.8912 41.9355 44.3408 41.9514 44.788 41.9392C45.022 41.9392 45.1335 41.9808 45.1409 42.2548C45.1605 43.0171 45.1739 43.0171 44.4119 43.0171C44.059 43.0171 43.7062 43.0232 43.3546 43.0171C43.1598 43.0171 43.0642 43.0905 43.0691 43.2899C43.0691 43.427 43.0691 43.564 43.0691 43.6998C43.0691 45.3826 43.0691 47.065 43.0691 48.7469C43.0691 49.3012 43.0691 49.3061 42.5374 49.3049C41.6957 49.3049 41.8292 49.3624 41.8268 48.5781C41.8207 46.8761 41.8268 45.1742 41.8268 43.4722C41.8268 43.1052 41.8733 43.0073 41.3735 43.0122C40.9275 43.0122 40.9275 42.9963 40.9189 42.5632C40.9238 42.4849 40.9238 42.4065 40.9189 42.3282C40.8699 42.0052 41.0292 41.9367 41.322 41.9355C41.8207 41.9355 41.8231 41.9159 41.8268 41.4216C41.8268 41.0301 41.8194 40.6385 41.8268 40.2482C41.8648 38.6772 42.889 37.8427 44.4364 38.1229C44.7649 38.1784 45.083 38.2836 45.3798 38.4349C45.5415 38.5194 45.615 38.6258 45.5574 38.8106C45.4851 39.0516 45.4214 39.2963 45.3381 39.5887Z" fill="white"/>
<path d="M28.7874 41.9941V43.0684C29.0324 42.9778 29.123 42.7931 29.248 42.6671C29.7422 42.1544 30.4199 41.8587 31.1323 41.8448C31.3774 41.8363 31.4999 41.917 31.4766 42.1764C31.4705 42.2352 31.4766 42.2988 31.4766 42.3526C31.4582 42.6218 31.5795 42.9424 31.4153 43.1504C31.2512 43.3584 30.9387 43.2066 30.6925 43.2336C29.6119 43.3559 28.8376 44.2381 28.7825 45.4812C28.7543 46.126 28.7739 46.772 28.7739 47.4168C28.7739 47.9258 28.78 48.4336 28.7739 48.9426C28.7739 49.3097 28.758 49.3097 28.1098 49.3097C27.5389 49.3097 27.5267 49.3097 27.5242 48.9242C27.5181 47.8292 27.5242 46.7341 27.5242 45.639C27.5242 44.544 27.5328 43.4489 27.5242 42.3538C27.5242 42.0639 27.583 41.906 27.9101 41.9427C28.1748 41.9672 28.4455 41.9085 28.7874 41.9941Z" fill="white"/>
<path d="M56.7396 43.0683C56.9381 42.8884 57.0815 42.7661 57.2162 42.6352C57.7051 42.1476 58.3632 41.8667 59.054 41.8509C59.2904 41.8423 59.4375 41.901 59.4105 42.1702C59.4105 42.2094 59.4105 42.2485 59.4105 42.2926C59.3921 42.5826 59.5183 42.9215 59.3517 43.1491C59.1851 43.3766 58.8433 43.209 58.5798 43.2445C57.6622 43.3668 56.9467 44.0643 56.769 45.0639C56.7262 45.3338 56.7065 45.6068 56.7102 45.88C56.7029 46.876 56.7102 47.8719 56.7102 48.8667C56.7102 49.301 56.7004 49.3145 56.3059 49.3133C55.2658 49.3133 55.4667 49.4099 55.4618 48.4923C55.4508 46.482 55.4618 44.4705 55.4618 42.4602C55.4618 41.9647 55.4618 41.9561 55.9175 41.9573C56.8499 41.9573 56.7029 41.8594 56.7164 42.7123C56.7127 42.7991 56.7213 42.8958 56.7396 43.0683Z" fill="white"/>
<path d="M43.3264 34.4404C41.7006 34.5529 41.7006 34.5529 41.4887 33.1165C41.4789 33.0492 41.4777 32.9807 41.4654 32.9134C41.3686 32.3824 41.5879 31.696 41.175 31.3521C40.8173 31.0536 40.1949 31.3142 39.6828 31.2897C39.2038 31.2653 38.7198 31.3044 38.2444 31.2567C37.7691 31.209 37.6441 31.406 37.6086 31.8232C37.5522 32.4692 37.4738 33.1153 37.3636 33.7552C37.241 34.4893 37.2239 34.4954 36.441 34.4893C36.2107 34.4893 35.9656 34.5639 35.6838 34.3755C35.777 33.738 35.8762 33.0724 35.9718 32.4056C36.0097 32.1352 36.0367 31.8624 36.071 31.5907C36.1212 31.1943 35.9975 30.9361 35.5613 30.8566C35.1911 30.7885 34.825 30.6995 34.4648 30.5899C31.0712 29.6011 28.0546 27.6143 25.8083 24.8884C23.5619 22.1624 22.19 18.8239 21.8713 15.3079C21.8248 14.7964 21.7807 14.285 21.7709 13.7723C21.7537 12.8767 21.7709 12.862 22.6836 13.0186C23.6637 13.1863 24.6439 13.3857 25.5725 13.7246C32.6262 16.3348 36.6285 21.3664 37.5792 28.8194C37.6772 29.5964 37.6588 29.5976 38.3951 29.6759C39.1109 29.7481 39.832 29.7481 40.5478 29.6759C41.3159 29.6 41.338 29.6049 41.3956 28.8549C41.4746 27.6591 41.7026 26.4779 42.0743 25.3384C44.4021 18.423 49.195 14.3376 56.361 13.0125C57.2027 12.8559 57.2321 12.9048 57.2296 13.6243C57.2318 17.4201 56.0102 21.1157 53.7457 24.1642C51.4811 27.2127 48.2939 29.452 44.6557 30.5507C44.3948 30.6303 44.1301 30.7037 43.8655 30.7722C42.8278 31.0438 42.818 31.0438 42.9662 32.1474C43.0655 32.8889 43.1978 33.6267 43.3264 34.4404ZM23.3709 14.9274C23.5118 15.7447 23.5914 16.5265 23.7863 17.279C25.352 23.3318 29.1476 27.2765 35.1203 29.1265C36.0171 29.4043 36.0624 29.2489 35.962 28.4181C35.2134 22.178 30.6092 16.7786 24.4956 15.0473C24.1783 14.9616 23.8671 14.7609 23.3709 14.9274ZM55.5279 14.8527C47.6574 16.3087 42.9356 23.9277 43.0765 29.2501C49.3616 28.1771 55.175 22.0912 55.5279 14.8576V14.8527Z" fill="white"/>
<path d="M39.4945 0C41.2158 2.42016 42.9997 4.62865 44.4307 7.08796C45.0861 8.21606 45.6215 9.39311 45.8666 10.6876C46.4914 13.9912 44.3081 17.3865 41.0137 18.2234C37.778 19.0456 34.4076 17.1687 33.3466 13.9581C32.9273 12.6846 32.9183 11.3119 33.3208 10.033C33.6796 8.85424 34.1973 7.72969 34.8597 6.69031C35.4943 5.67722 36.1498 4.67514 36.8334 3.69386C37.6714 2.48378 38.5486 1.30674 39.4945 0ZM39.5067 2.4116C37.8699 4.67392 36.2318 6.77841 35.1267 9.22426C34.875 9.7845 34.6805 10.3686 34.546 10.9678C34.1025 12.9536 35.0251 15.074 36.7783 16.2009C37.6194 16.7372 38.6022 17.0095 39.5999 16.9824C40.5975 16.9554 41.5641 16.6303 42.3748 16.0492C44.2775 14.6617 45.0261 12.2342 44.1954 9.93147C43.1834 7.121 41.2403 4.89416 39.5067 2.4116Z" fill="white"/>
<path d="M37.6463 15.6075C36.8509 15.2091 36.2149 14.5524 35.8428 13.7453C35.7399 13.5348 35.7105 13.3452 35.9653 13.2485C36.1748 13.1678 36.4554 13.0038 36.6036 13.2816C36.9199 13.8413 37.3433 14.3336 37.8496 14.7302C38.2221 15.0386 37.8545 15.32 37.6463 15.6075Z" fill="white"/>
</svg>
