<svg width="45" height="52" viewBox="0 0 45 52" fill="none" xmlns="http://www.w3.org/2000/svg">
<path d="M14.9253 33.1213H28.6175V36.5504H14.9253V33.1213ZM5.2659 15.0683H8.20962L8.20173 19.5634L12.5282 24.0907H38.2764V36.5499H35.3327L35.3406 31.6364L31.0141 27.1101H5.2659V15.0683ZM14.9253 15.0683H28.6175V18.0799H14.9253V15.0683ZM12.5913 0L8.22818 4.49025L8.22029 9.03444L2.93237 9.02914L0 11.2057V30.9876L2.86973 33.1213H8.21797L8.20173 38.0348L12.5282 42.5602H28.6175V45.9892H5.2659V40.0271H0V49.8668L2.86973 52H30.9784L35.3146 47.5386L35.323 42.5602H40.6373L44.974 38.0988L45 22.6063L40.6735 18.0799H35.3262L35.3411 13.5849L31.0146 9.05851L14.9253 9.04166V6.03917H38.2764V12.0008H44.9754L45 4.55525L40.6735 0.0279257L12.5913 0Z" fill="white"/>
</svg>
