<svg width="120" height="138" viewBox="0 0 120 138" fill="none" xmlns="http://www.w3.org/2000/svg">
<path d="M39.8008 87.8988H76.3133V96.9991H39.8008V87.8988ZM14.0424 39.989H21.8923L21.8713 51.9182L33.4086 63.933H102.07V96.9978H94.2205L94.2416 83.9582L82.7043 71.9459H14.0424V39.989ZM39.8008 39.989H76.3133V47.9814H39.8008V39.989ZM33.5768 0L21.9418 11.9164L21.9208 23.976L7.81965 23.9619L0 29.7381V82.2364L7.65261 87.8988H21.9146L21.8713 100.938L33.4086 112.948H76.3133V122.048H14.0424V106.226H0V132.339L7.65261 138H82.609L94.1723 126.16L94.1946 112.948H108.366L119.931 101.108L120 59.9937L108.463 47.9814H94.2032L94.2428 36.0522L82.7055 24.0399L39.8008 23.9952V16.027H102.07V31.8483H119.934L120 12.0889L108.463 0.0741104L33.5768 0Z" fill="#0E2145"/>
</svg>
