<svg width="243" height="144" viewBox="0 0 243 144" fill="none" xmlns="http://www.w3.org/2000/svg">
<path d="M34.2295 142.334L42.9155 114.667H88.4047L97.0908 142.334H131.32L86.8605 10.563H44.4597L0 142.334H34.2295ZM50.5078 90.4747L65.1132 43.763H66.1427L80.8125 90.4747H50.5078Z" fill="#DCE1FF"/>
<path d="M173.367 144.006C187.136 144.006 196.659 138.666 202.063 128.565H202.835V142.334H232.432V75.1615C232.432 54.2506 213.838 42.2188 188.68 42.2188C162.107 42.2188 147.052 55.6018 144.542 73.6173L173.56 74.6468C174.911 68.3413 180.123 64.4809 188.423 64.4809C196.144 64.4809 201.034 68.2126 201.034 74.8398V75.1615C201.034 81.2095 194.471 82.4964 177.614 83.9762C157.604 85.6491 140.875 93.0483 140.875 114.924C140.875 134.484 154.451 144.006 173.367 144.006ZM183.083 123.417C175.812 123.417 170.665 119.943 170.665 113.38C170.665 107.01 175.683 103.15 184.627 101.799C190.482 100.962 197.688 99.6754 201.227 97.8095V107.203C201.227 116.855 193.12 123.417 183.083 123.417Z" fill="#DCE1FF"/>
<path fill-rule="evenodd" clip-rule="evenodd" d="M44.7998 131.764L46.3378 126.865C45.5422 126.616 44.6948 127.058 44.445 127.854L43.6913 130.254H40.5211C39.6872 130.254 39.0112 130.93 39.0112 131.764H44.7998ZM33.4736 131.764C33.4736 130.93 32.7976 130.254 31.9637 130.254H23.4064C22.5725 130.254 21.8965 130.93 21.8965 131.764H33.4736ZM16.3589 131.764C16.3589 130.93 15.6829 130.254 14.849 130.254H12.6732L13.2359 128.587C13.5025 127.797 13.0781 126.94 12.288 126.673L10.5703 131.764H16.3589ZM13.7926 122.214C14.5827 122.481 15.4393 122.056 15.7059 121.266L18.1759 113.946C18.4425 113.155 18.0181 112.299 17.228 112.032L13.7926 122.214ZM18.7326 107.573C19.5227 107.839 20.3793 107.415 20.6459 106.625L23.1159 99.3043C23.3825 98.5142 22.9581 97.6576 22.1679 97.391L18.7326 107.573ZM23.6725 92.9317C24.4626 93.1982 25.3193 92.7738 25.5859 91.9837L28.0558 84.6631C28.3224 83.873 27.898 83.0164 27.1079 82.7498L23.6725 92.9317ZM28.6125 78.2905C29.4026 78.5571 30.2592 78.1327 30.5258 77.3426L32.9958 70.022C33.2624 69.2318 32.838 68.3752 32.0479 68.1086L28.6125 78.2905ZM33.5525 63.6493C34.3426 63.9159 35.1992 63.4915 35.4658 62.7014L37.9358 55.3808C38.2024 54.5907 37.778 53.734 36.9878 53.4674L33.5525 63.6493ZM38.4924 49.0081C39.2825 49.2747 40.1392 48.8503 40.4058 48.0602L42.8757 40.7396C43.1423 39.9495 42.7179 39.0929 41.9278 38.8263L38.4924 49.0081ZM48.3724 19.7258C49.1625 19.9923 50.0191 19.5679 50.2857 18.7778L52.7557 11.4572C53.0223 10.6671 52.5979 9.81049 51.8078 9.5439L48.3724 19.7258ZM53.3123 5.08458C54.1025 5.35116 54.9591 4.92676 55.2257 4.13664L56.1141 1.50352H58.5634C59.3973 1.50352 60.0733 0.827531 60.0733 -0.00634766H55.03L53.3123 5.08458ZM64.1204 -0.00634766C64.1204 0.827531 64.7964 1.50352 65.6302 1.50352H72.697C73.5309 1.50352 74.2069 0.827531 74.2069 -0.00634766H64.1204ZM78.254 -0.00634766C78.254 0.827531 78.93 1.50352 79.7638 1.50352H86.8306C87.6645 1.50352 88.3405 0.827531 88.3405 -0.00634766H78.254ZM92.3876 -0.00634766C92.3876 0.827531 93.0636 1.50352 93.8974 1.50352H96.3468L97.2352 4.13665C97.5018 4.92676 98.3584 5.35117 99.1485 5.08458L97.4308 -0.00634766H92.3876ZM100.653 9.54391C99.863 9.81049 99.4386 10.6671 99.7052 11.4572L102.175 18.7778C102.442 19.5679 103.298 19.9923 104.089 19.7258L100.653 9.54391ZM105.593 24.1851C104.803 24.4517 104.379 25.3083 104.645 26.0984L107.115 33.419C107.382 34.2091 108.238 34.6335 109.028 34.367L105.593 24.1851ZM110.533 38.8263C109.743 39.0929 109.319 39.9495 109.585 40.7396L112.055 48.0602C112.322 48.8503 113.178 49.2747 113.968 49.0081L110.533 38.8263ZM115.473 53.4674C114.683 53.734 114.258 54.5907 114.525 55.3808L116.995 62.7014C117.262 63.4915 118.118 63.9159 118.908 63.6493L115.473 53.4674ZM120.413 68.1086C119.623 68.3752 119.198 69.2318 119.465 70.0219L121.935 77.3425C122.202 78.1327 123.058 78.5571 123.848 78.2905L120.413 68.1086ZM125.353 82.7498C124.563 83.0164 124.138 83.873 124.405 84.6631L126.875 91.9837C127.142 92.7738 127.998 93.1982 128.788 92.9317L125.353 82.7498ZM130.293 97.391C129.503 97.6576 129.078 98.5142 129.345 99.3043L131.815 106.625C132.082 107.415 132.938 107.839 133.728 107.573L130.293 97.391ZM135.233 112.032C134.443 112.299 134.018 113.155 134.285 113.945L136.755 121.266C137.022 122.056 137.878 122.481 138.668 122.214L135.233 112.032ZM140.173 126.673C139.383 126.94 138.958 127.797 139.225 128.587L139.788 130.254H137.612C136.778 130.254 136.102 130.93 136.102 131.764H141.891L140.173 126.673ZM130.564 131.764C130.564 130.93 129.888 130.254 129.054 130.254H120.497C119.663 130.254 118.987 130.93 118.987 131.764H130.564ZM113.45 131.764C113.45 130.93 112.774 130.254 111.94 130.254H108.77L108.016 127.854C107.766 127.058 106.919 126.616 106.123 126.865L107.661 131.764H113.45ZM104.856 122.83C105.652 122.58 106.094 121.733 105.844 120.937L103.673 114.02C103.423 113.225 102.576 112.782 101.78 113.032L104.856 122.83ZM100.513 108.996C101.309 108.747 101.751 107.899 101.501 107.104L100.084 102.588H95.1842C94.3504 102.588 93.6744 103.264 93.6744 104.098H98.975L100.513 108.996ZM89.1126 104.098C89.1126 103.264 88.4366 102.588 87.6027 102.588H80.0212C79.1873 102.588 78.5113 103.264 78.5113 104.098H89.1126ZM73.9495 104.098C73.9495 103.264 73.2735 102.588 72.4397 102.588H64.8581C64.0243 102.588 63.3483 103.264 63.3483 104.098H73.9495ZM58.7865 104.098C58.7865 103.264 58.1105 102.588 57.2766 102.588H52.3773L50.9595 107.104C50.7098 107.899 51.1522 108.747 51.9478 108.996L53.4858 104.098H58.7865ZM50.6808 113.032C49.8852 112.782 49.0378 113.225 48.788 114.02L46.6165 120.937C46.3667 121.733 46.8092 122.58 47.6048 122.83L50.6808 113.032ZM46.8678 24.1851L43.4324 34.367C44.2225 34.6335 45.0791 34.2091 45.3457 33.419L47.8157 26.0984C48.0823 25.3083 47.6579 24.4517 46.8678 24.1851ZM61.0781 79.9053H66.3761C66.3761 80.7392 65.7001 81.4152 64.8662 81.4152H59.024L60.8541 75.5621C61.103 74.7662 61.9499 74.3228 62.7458 74.5716L61.0781 79.9053ZM67.6143 59.0011C66.8184 58.7522 65.9715 59.1957 65.7226 59.9916L63.2884 67.7768C63.0395 68.5727 63.483 69.4196 64.2789 69.6685L67.6143 59.0011ZM72.4828 43.4305C71.6869 43.1817 70.84 43.6251 70.5911 44.421L68.1569 52.2063C67.908 53.0022 68.3515 53.8491 69.1474 54.0979L72.4828 43.4305ZM83.2778 54.0974C84.0734 53.8475 84.5158 53 84.2659 52.2045L81.8209 44.4192C81.5711 43.6236 80.7236 43.1812 79.928 43.4311L83.2778 54.0974ZM88.1677 69.6679C88.9633 69.4181 89.4057 68.5706 89.1558 67.775L86.7109 59.9897C86.461 59.1942 85.6135 58.7518 84.818 59.0016L88.1677 69.6679ZM86.0848 79.9053C86.0848 80.7392 86.7608 81.4152 87.5947 81.4152H93.4395L91.6008 75.5603C91.3509 74.7647 90.5035 74.3223 89.7079 74.5722L91.3828 79.9053H86.0848ZM70.9325 79.9053C70.9325 80.7392 71.6085 81.4152 72.4423 81.4152H80.0185C80.8524 81.4152 81.5284 80.7392 81.5284 79.9053H70.9325ZM78.3879 38.5268C79.1834 38.277 79.6258 37.4295 79.376 36.6339L77.8214 31.6838H76.4556C76.3679 31.6838 76.2819 31.6913 76.1983 31.7056C76.1146 31.6913 76.0286 31.6838 75.9409 31.6838H74.5737L73.0253 36.6357C72.7765 37.4316 73.22 38.2785 74.0158 38.5274L75.6835 33.1937H76.713L78.3879 38.5268ZM213.02 116.498C212.956 116.49 212.892 116.485 212.827 116.485H211.729L211.302 117.283C210.642 118.518 209.919 119.674 209.134 120.751C208.651 121.415 208.787 122.34 209.434 122.837C209.593 122.642 209.749 122.445 209.903 122.244C210.055 122.046 210.206 121.844 210.355 121.64C210.898 120.895 211.411 120.115 211.896 119.302C211.957 119.199 212.018 119.096 212.078 118.992C212.221 118.745 212.362 118.496 212.499 118.243C212.544 118.161 212.589 118.078 212.634 117.995H213.406V122.947C214.24 122.947 214.916 122.271 214.916 121.438V116.485H213.213C213.147 116.485 213.083 116.49 213.02 116.498ZM233.414 131.764C233.414 130.93 232.738 130.254 231.904 130.254H224.505C223.671 130.254 222.995 130.93 222.995 131.764H233.414ZM243.003 109.263C242.169 109.263 241.493 109.939 241.493 110.773V119.17C241.493 120.003 242.169 120.679 243.003 120.679V109.263ZM243.003 92.4701C242.169 92.4701 241.493 93.1461 241.493 93.9799V102.376C241.493 103.21 242.169 103.886 243.003 103.886V92.4701ZM243.003 75.677C242.169 75.677 241.493 76.353 241.493 77.1869V85.5834C241.493 86.4173 242.169 87.0933 243.003 87.0933V75.677ZM242.576 59.2657C241.767 59.3787 241.192 60.1181 241.286 60.9344C241.423 62.1167 241.493 63.3361 241.493 64.5921V68.7904C241.493 69.6243 242.169 70.3003 243.003 70.3003V64.5921C243.003 63.2799 242.929 62.0026 242.786 60.761C242.757 60.5099 242.725 60.2603 242.69 60.0122C242.655 59.7619 242.617 59.513 242.576 59.2657ZM236.234 45.4884C235.598 45.9993 235.481 46.9273 235.979 47.5801C237.444 49.5036 238.64 51.6064 239.54 53.8825C239.841 54.6454 240.695 55.0259 241.461 54.7464C241.381 54.507 241.298 54.2694 241.212 54.0335C241.126 53.7965 241.036 53.5612 240.944 53.3277C239.993 50.9202 238.727 48.6965 237.18 46.6652C237.027 46.4652 236.872 46.267 236.715 46.0707C236.557 45.8748 236.397 45.6807 236.234 45.4884ZM223.96 36.4719C223.605 37.2129 223.908 38.1044 224.646 38.4736C226.922 39.613 229.002 40.9249 230.862 42.3994C231.506 42.9102 232.439 42.8104 232.961 42.1808C232.772 42.0159 232.58 41.8529 232.386 41.6918C232.193 41.5314 231.997 41.3728 231.8 41.2161C229.852 39.6723 227.684 38.3057 225.322 37.1234C225.098 37.0112 224.871 36.9006 224.644 36.7916C224.417 36.6834 224.189 36.5768 223.96 36.4719ZM209.228 32.3242C209.103 33.1404 209.658 33.9071 210.475 34.0418C213.021 34.4614 215.452 35.0278 217.751 35.7347C218.541 35.9776 219.377 35.5403 219.631 34.7566C219.394 34.6758 219.155 34.5965 218.914 34.5187C218.676 34.4414 218.436 34.3657 218.194 34.2915C215.827 33.5634 213.329 32.982 210.721 32.552C210.473 32.5112 210.225 32.4717 209.975 32.4337C209.727 32.3958 209.478 32.3593 209.228 32.3242ZM194.013 31.8308C194.062 32.6559 194.767 33.2892 195.594 33.2483C196.786 33.1894 198.005 33.1594 199.251 33.1594C200.524 33.1594 201.78 33.1908 203.016 33.2532C203.844 33.2949 204.549 32.6621 204.599 31.8369C204.349 31.8191 204.098 31.8025 203.846 31.7872C203.596 31.7719 203.344 31.7579 203.092 31.7452C201.83 31.6816 200.549 31.6495 199.251 31.6495C197.981 31.6495 196.737 31.6801 195.52 31.7402C195.267 31.7527 195.016 31.7665 194.766 31.7815C194.514 31.7966 194.262 31.8131 194.013 31.8308ZM179.436 34.6822C179.692 35.4644 180.53 35.8989 181.318 35.6539C183.52 34.97 185.869 34.4163 188.363 34.0058C189.18 33.8714 189.735 33.1054 189.611 32.2895C189.361 32.3243 189.112 32.3605 188.864 32.3981C188.614 32.436 188.365 32.4753 188.118 32.516C185.559 32.9371 183.142 33.5064 180.871 34.2119C180.629 34.2869 180.389 34.3634 180.151 34.4414C179.911 34.5201 179.673 34.6004 179.436 34.6822ZM166.514 41.9155C167.032 42.5495 167.965 42.6552 168.613 42.1477C170.425 40.7288 172.436 39.4501 174.649 38.332C175.385 37.9601 175.685 37.0678 175.328 36.3282C175.099 36.4339 174.871 36.5412 174.645 36.6502C174.418 36.76 174.192 36.8714 173.968 36.9844C171.671 38.1455 169.574 39.4768 167.682 40.9591C167.483 41.1147 167.287 41.272 167.093 41.431C166.898 41.5908 166.705 41.7524 166.514 41.9155ZM157.704 53.7689C158.446 54.114 159.331 53.8047 159.695 53.067C160.739 50.9482 162.018 48.9539 163.531 47.1067C164.052 46.4705 163.967 45.5367 163.346 45.0042C163.177 45.1918 163.011 45.3809 162.847 45.5716C162.683 45.7629 162.522 45.9557 162.362 46.1501C160.776 48.087 159.435 50.1785 158.34 52.3996C158.229 52.6253 158.12 52.8523 158.014 53.0806C157.908 53.3087 157.805 53.5382 157.704 53.7689ZM174.758 63.7449C174.787 62.9115 174.136 62.212 173.302 62.1824L166.048 61.9251C165.215 61.8955 164.515 62.5471 164.485 63.3805L174.758 63.7449ZM205.016 54.8575C205.023 54.8328 205.03 54.8077 205.036 54.7823C205.235 53.9724 204.739 53.155 203.929 52.9565C202.415 52.5855 200.76 52.4016 198.993 52.4016C197.126 52.4016 195.384 52.5867 193.781 52.9514C192.968 53.1364 192.458 53.9455 192.643 54.7586C192.648 54.78 192.654 54.8011 192.659 54.822C192.896 54.7456 193.137 54.6738 193.383 54.6067C193.623 54.5412 193.867 54.4802 194.116 54.4237C195.596 54.0868 197.225 53.9115 198.993 53.9115C200.657 53.9115 202.189 54.0848 203.57 54.423C203.817 54.4837 204.06 54.5497 204.298 54.621C204.543 54.6943 204.782 54.7732 205.016 54.8575ZM209.938 58.4725C209.975 58.4513 210.013 58.4316 210.053 58.4133C210.81 58.0633 211.707 58.3932 212.057 59.15C212.76 60.671 213.114 62.3915 213.114 64.2704V64.3509C213.114 64.3779 213.113 64.4046 213.112 64.4313C213.113 64.4579 213.114 64.4847 213.114 64.5117V64.5921C213.114 66.0957 212.769 67.4633 211.958 68.6548C211.49 69.3444 210.55 69.5233 209.861 69.0544C209.8 69.0128 209.743 68.9675 209.69 68.919C209.889 68.7519 210.073 68.578 210.24 68.3965C210.414 68.2079 210.57 68.0111 210.71 67.8058C211.103 67.2283 211.361 66.5827 211.495 65.8569C211.54 65.6155 211.57 65.3652 211.588 65.1056C211.599 64.9384 211.604 64.7672 211.604 64.5921V64.2704C211.604 64.0973 211.601 63.9261 211.594 63.7568C211.584 63.501 211.567 63.2498 211.542 63.0031C211.422 61.8226 211.132 60.7476 210.686 59.7838C210.58 59.5537 210.465 59.3299 210.341 59.1126C210.215 58.8926 210.081 58.6792 209.938 58.4725ZM196.799 72.5387C196.799 72.542 196.799 72.5453 196.8 72.5487C196.911 73.3751 197.672 73.9546 198.498 73.8432C201.168 73.483 203.448 73.0721 205.346 72.5533C206.15 72.3334 206.624 71.5031 206.404 70.6987C206.4 70.6832 206.396 70.6678 206.391 70.6526C206.16 70.7329 205.921 70.811 205.673 70.8869C205.439 70.9588 205.197 71.0287 204.948 71.0968C203.142 71.5905 200.937 71.9907 198.296 72.3469C198.05 72.38 197.801 72.4128 197.548 72.4452C197.302 72.4767 197.052 72.5078 196.799 72.5387ZM183.332 73.9391C183.438 74.7602 184.186 75.3442 185.009 75.2456C186.096 75.1154 187.197 75.0045 188.31 74.9115L188.316 74.911C189.495 74.8075 190.624 74.7048 191.706 74.6014C192.536 74.5219 193.145 73.7847 193.065 72.9546L193.065 72.9508C192.817 72.9758 192.567 73.0007 192.314 73.0255C192.066 73.0499 191.816 73.0741 191.562 73.0983C190.486 73.2014 189.36 73.3037 188.184 73.4069C187.055 73.5013 185.936 73.6139 184.83 73.7464C184.579 73.7764 184.33 73.8074 184.08 73.8394C183.83 73.8716 183.581 73.9049 183.332 73.9391ZM170.26 77.1205C170.54 77.8939 171.39 78.3023 172.171 78.0339C174.171 77.3463 176.285 76.7756 178.491 76.3085C179.301 76.1369 179.821 75.3454 179.659 74.5354C179.411 74.5821 179.164 74.63 178.917 74.6792C178.67 74.7287 178.424 74.7794 178.178 74.8314C175.92 75.3095 173.746 75.8958 171.68 76.6061C171.441 76.6882 171.204 76.7719 170.968 76.8573C170.73 76.9434 170.494 77.031 170.26 77.1205ZM158.906 84.1941C159.466 84.7846 160.398 84.8259 161.008 84.2796C162.56 82.8903 164.311 81.6773 166.235 80.6232C166.957 80.2279 167.227 79.329 166.849 78.6026C166.623 78.7142 166.398 78.8279 166.176 78.9436C165.952 79.06 165.73 79.1785 165.51 79.299C163.496 80.4021 161.648 81.68 160.001 83.1546C159.813 83.3226 159.628 83.4931 159.446 83.6662C159.263 83.8396 159.083 84.0155 158.906 84.1941ZM152.434 95.8265C153.219 96.0469 154.041 95.6027 154.284 94.8191C154.942 92.693 155.83 90.7875 156.918 89.0784C157.357 88.3884 157.166 87.4772 156.494 87.0201C156.346 87.2231 156.201 87.4288 156.059 87.6373C155.918 87.8447 155.78 88.0549 155.644 88.2678C154.482 90.0931 153.538 92.1215 152.841 94.3726C152.767 94.6115 152.696 94.8529 152.628 95.0968C152.56 95.3375 152.496 95.5808 152.434 95.8265ZM151.852 109.971C152.664 109.867 153.247 109.131 153.16 108.313C153.025 107.049 152.955 105.73 152.955 104.355C152.955 103.231 153.001 102.149 153.09 101.11C153.16 100.289 152.561 99.5663 151.746 99.4794C151.714 99.7271 151.685 99.9771 151.658 100.229C151.631 100.478 151.607 100.728 151.586 100.981C151.493 102.065 151.445 103.19 151.445 104.355C151.445 105.781 151.517 107.154 151.659 108.474C151.686 108.726 151.715 108.976 151.747 109.224C151.779 109.475 151.814 109.724 151.852 109.971ZM158.83 124.596C159.429 124.047 159.486 123.118 158.951 122.499C157.313 120.601 155.974 118.407 154.98 115.904C154.677 115.142 153.824 114.763 153.059 115.043C153.139 115.283 153.222 115.52 153.308 115.756C153.395 115.993 153.484 116.228 153.577 116.461C154.632 119.117 156.058 121.458 157.808 123.485C157.973 123.676 158.14 123.864 158.31 124.049C158.481 124.234 158.654 124.417 158.83 124.596ZM173.171 132.261C173.375 131.467 172.907 130.652 172.114 130.431C169.47 129.694 167.053 128.687 164.895 127.416C164.188 127 163.282 127.224 162.849 127.915C163.058 128.054 163.269 128.191 163.483 128.325C163.696 128.458 163.911 128.589 164.128 128.717C166.411 130.061 168.952 131.117 171.708 131.885C171.95 131.952 172.193 132.018 172.438 132.081C172.68 132.143 172.925 132.203 173.171 132.261ZM189.738 133.092C189.651 132.275 188.924 131.675 188.103 131.748C186.766 131.867 185.378 131.927 183.937 131.927C182.571 131.927 181.236 131.876 179.935 131.774C179.112 131.71 178.391 132.319 178.314 133.138C178.563 133.166 178.814 133.191 179.065 133.215C179.315 133.238 179.565 133.26 179.817 133.28C181.159 133.385 182.534 133.437 183.937 133.437C185.42 133.437 186.852 133.375 188.236 133.252C188.488 133.23 188.739 133.205 188.988 133.179C189.239 133.152 189.489 133.123 189.738 133.092ZM205.498 126.781C205.003 126.134 204.081 125.994 203.416 126.473C201.282 128.01 198.872 129.234 196.174 130.13C195.393 130.389 194.966 131.224 195.206 132.005C195.449 131.937 195.691 131.866 195.93 131.793C196.172 131.719 196.412 131.642 196.65 131.563C199.485 130.622 202.034 129.33 204.298 127.698C204.503 127.551 204.705 127.401 204.905 127.248C205.105 127.095 205.302 126.939 205.498 126.781ZM186.958 58.3903C186.789 58.5777 186.627 58.7704 186.471 58.9683C186.315 59.1659 186.166 59.3687 186.024 59.5766C185.127 60.8846 184.491 62.3939 184.13 64.0774L178.994 63.8952C179.024 63.0618 179.723 62.4102 180.557 62.4398L182.972 62.5255C183.389 61.1454 183.992 59.8708 184.778 58.723C185.25 58.0352 186.189 57.8598 186.877 58.3312C186.905 58.3502 186.932 58.3699 186.958 58.3903ZM160.249 63.2302C160.278 62.3968 159.627 61.6973 158.793 61.6677L156.878 61.5998C156.995 60.9756 157.128 60.3583 157.277 59.7482C157.473 58.9485 156.991 58.142 156.2 57.9311C156.13 58.1724 156.062 58.4149 155.997 58.6584C155.933 58.9012 155.87 59.145 155.81 59.3898C155.637 60.0999 155.484 60.8187 155.353 61.5457C155.308 61.795 155.265 62.0453 155.225 62.2965C155.185 62.5461 155.148 62.7966 155.113 63.048L160.249 63.2302ZM243.003 126.056C242.169 126.056 241.493 126.732 241.493 127.566V130.254H239.303C238.469 130.254 237.793 130.93 237.793 131.764H243.003V126.056ZM218.615 131.764C218.615 130.93 217.939 130.254 217.105 130.254H214.916V128.322C214.916 127.488 214.24 126.812 213.406 126.812V131.764H218.615ZM200.174 90.4443C199.926 90.4878 199.678 90.5305 199.43 90.5725C197.988 90.8168 196.556 91.0352 195.197 91.2294C193.417 91.4983 191.792 91.8667 190.332 92.3345C190.089 92.4123 189.85 92.4929 189.617 92.5762C189.376 92.6619 189.14 92.7505 188.91 92.842C188.904 92.8265 188.899 92.8108 188.894 92.795C188.639 92.0009 189.077 91.1509 189.871 90.8966C191.421 90.4002 193.126 90.0153 194.972 89.7364L194.978 89.7355L194.984 89.7347C196.333 89.5419 197.752 89.3255 199.178 89.0839C199.997 88.9451 200.774 89.4942 200.917 90.3115C200.669 90.3566 200.422 90.4008 200.174 90.4443ZM206.342 89.1512C206.126 88.3579 206.585 87.535 207.378 87.3047C208.903 86.8616 210.17 86.3914 211.093 85.9046L213.307 84.7372V89.5887C213.307 90.4226 212.631 91.0985 211.797 91.0985V87.2402C211.561 87.3646 211.309 87.4864 211.042 87.6056C210.802 87.7128 210.55 87.818 210.287 87.9212C209.538 88.2152 208.7 88.4928 207.799 88.7546C207.561 88.8238 207.319 88.8918 207.072 88.9588C206.832 89.0239 206.589 89.0881 206.342 89.1512ZM211.797 92.7757C212.631 92.7757 213.307 93.4517 213.307 94.2856V96.634C213.307 97.9093 213.177 99.1411 212.926 100.321C212.753 101.137 211.952 101.658 211.136 101.485C211.112 101.479 211.088 101.474 211.064 101.467C211.14 101.229 211.21 100.987 211.275 100.742C211.339 100.5 211.397 100.255 211.449 100.008C211.678 98.9328 211.797 97.8062 211.797 96.634V92.7757ZM202.098 111.126C202.107 111.145 202.117 111.163 202.127 111.182C202.526 111.914 203.443 112.184 204.175 111.785C206.383 110.583 208.304 108.983 209.809 107.044C210.32 106.385 210.2 105.437 209.542 104.926C209.522 104.91 209.502 104.895 209.481 104.881C209.347 105.095 209.208 105.305 209.064 105.511C208.92 105.717 208.77 105.92 208.616 106.118C207.247 107.883 205.49 109.35 203.453 110.459C203.233 110.579 203.009 110.695 202.783 110.807C202.558 110.917 202.329 111.024 202.098 111.126ZM187.74 111.911C187.732 111.936 187.725 111.961 187.719 111.987C187.521 112.797 188.017 113.614 188.827 113.812C190.324 114.178 191.945 114.358 193.653 114.358C194.886 114.358 196.094 114.265 197.268 114.084C198.092 113.957 198.657 113.186 198.53 112.361C198.527 112.344 198.524 112.326 198.521 112.308C198.277 112.364 198.03 112.416 197.782 112.463C197.536 112.51 197.288 112.553 197.038 112.592C195.942 112.761 194.81 112.848 193.653 112.848C192.05 112.848 190.55 112.679 189.186 112.345C188.938 112.285 188.695 112.219 188.457 112.148C188.213 112.075 187.974 111.996 187.74 111.911ZM183.25 96.7588C183.216 96.7359 183.181 96.7143 183.144 96.6939C182.415 96.2894 181.496 96.5525 181.091 97.2817C180.179 98.9251 179.725 100.78 179.725 102.811C179.725 104.668 180.094 106.355 180.809 107.837C181.171 108.588 182.074 108.903 182.825 108.54C182.866 108.521 182.905 108.499 182.943 108.477C182.795 108.273 182.656 108.062 182.527 107.845C182.398 107.63 182.279 107.409 182.169 107.18C181.562 105.924 181.235 104.466 181.235 102.811C181.235 101.012 181.635 99.4129 182.411 98.0142C182.533 97.7945 182.665 97.5797 182.805 97.3699C182.944 97.1613 183.093 96.9576 183.25 96.7588Z" fill="#0E4FE3"/>
</svg>
